<?xml version="1.0" encoding="UTF-8"?>
<svg width="53px" height="49px" viewBox="0 0 53 49" version="1.1" xmlns="http://www.w3.org/2000/svg" xmlns:xlink="http://www.w3.org/1999/xlink">
    <title>iconBrowser</title>
    <g id="Page-1" stroke="none" stroke-width="1" fill="none" fill-rule="evenodd">
        <g id="Artboard" transform="translate(-754.000000, -53.000000)" fill-rule="nonzero">
            <g id="iconBrowser" transform="translate(754.000000, 53.000000)">
                <path d="M46.4666667,47 L4.53333333,47 C2.02866667,47 0,44.9994118 0,42.5294118 L0,9 L51,9 L51,42.5294118 C51,44.9994118 48.9713333,47 46.4666667,47 Z" id="Path" fill="#2B2D42"></path>
                <path d="M25.3494324,38 L19.4482578,31.2039891 C18.8505807,30.5173769 18.8505807,29.4826231 19.4482578,28.7960109 L25.3494324,22 L27.9976376,24.4079782 L23.1453507,30 L28,35.5896041 L25.3494324,38 Z" id="Path" fill="#0DD680"></path>
                <path d="M40.3545783,37 L38,34.7421792 L42.3163768,29.4988666 L38,24.2578208 L40.3545783,22 L45.601444,28.3722231 C46.132852,29.0160193 46.132852,29.9862475 45.601444,30.6300438 L40.3545783,37 Z" id="Path" fill="#0DD680"></path>
                <path d="M17.5503952,29.5 L24.5775409,20.8900772 L25.9968502,22.1604714 L20.1102935,28.8384387 C19.7770576,29.2164762 19.7771868,29.7834098 20.1105951,30.1612953 L26,36.8363554 L26,36.8363554 L24.6065432,38.0837491 L17.5503952,29.5 Z" id="Path-Copy-4" fill="#0BB36B"></path>
                <path d="M36.6721343,34.7421792 L41.0637694,29.4988666 L36.6721343,24.1693063 L38.1326512,22.9449554 L42.601444,28.3722231 C43.132852,29.0160193 43.132852,29.9862475 42.601444,30.6300438 C40.574602,33.0907309 39.0544705,34.9362462 38.0410495,36.1665898 C37.8885003,36.351792 37.4321953,35.8769885 36.6721343,34.7421792 Z" id="Path-Copy-3" fill="#0BB36B"></path>
                <path d="M24.5575535,20.5316194 L18.626436,27.7356563 C18.2117705,28.2380749 18,28.8681116 18,29.5 C18,30.1318884 18.2117705,30.7619251 18.6272056,31.2652773 L24.5575919,38.4684273 L28.3612811,34.82023 L23.9799381,29.4997079 L28.3589117,24.1771732 L24.5575535,20.5316194 Z" id="Path-Copy-6" stroke="#FAFBFC" stroke-width="2" stroke-linejoin="round"></path>
                <path d="M40.4409603,20.5317068 L36.6386163,24.1777998 L41.0210092,29.499004 L36.6387587,34.8223368 L40.4408239,38.4681625 L46.3733137,31.2658247 C46.7881864,30.7632107 47,30.1330968 47,29.5011334 C47,28.8691701 46.7881864,28.2390562 46.372655,27.7356434 L40.4409603,20.5317068 Z" id="Path-Copy-5" stroke="#FAFBFC" stroke-width="2" stroke-linejoin="round"></path>
                <path d="M52,9 L1,9 L1,5.57142857 C1,3.04571429 3.02866667,1 5.53333333,1 L47.4666667,1 C49.9713333,1 52,3.04571429 52,5.57142857 L52,9 Z" id="Path" fill="#0DD680"></path>
                <path d="M11,1 L6.23529412,1 C3.89529412,1 2,3.04571429 2,5.57142857 L2,9 L6.76470588,9 L6.76470588,5.57142857 C6.76470588,3.04571429 8.66,1 11,1 Z" id="Path" fill="#0BB36B"></path>
                <path d="M6.76470588,42.5294118 L6.76470588,9 L2,9 L2,42.5294118 C2,44.9994118 3.89529412,47 6.23529412,47 L11,47 C8.66,47 6.76470588,44.9994118 6.76470588,42.5294118 Z" id="Path" fill="#1A1829"></path>
                <path d="M46.9270833,1.5 L6.07291667,1.5 C4.81307487,1.5 3.67202693,2.01783735 2.84537204,2.85158191 C2.01409709,3.68998614 1.5,4.84786931 1.5,6.125 L1.5,42.875 C1.5,44.1521307 2.01409709,45.3100139 2.84537204,46.1484181 C3.67202693,46.9821627 4.81307487,47.5 6.07291667,47.5 L46.9270833,47.5 C48.1869251,47.5 49.3279731,46.9821627 50.154628,46.1484181 C50.9859029,45.3100139 51.5,44.1521307 51.5,42.875 L51.5,6.125 C51.5,4.84786931 50.9859029,3.68998614 50.154628,2.85158191 C49.3279731,2.01783735 48.1869251,1.5 46.9270833,1.5 Z" id="Path" stroke="#FAFBFC" stroke-width="3"></path>
                <polygon id="Path" fill="#FAFBFC" points="1 8 52 8 52 10 1 10"></polygon>
            </g>
        </g>
    </g>
</svg>