<?xml version="1.0" encoding="UTF-8"?>
<svg xmlns="http://www.w3.org/2000/svg" version="1.1" viewBox="0 0 48 44.016598" height="44.016598" width="48">
   <path opacity="0" d="M 42.423236,42.622407 H 5.576764 c -2.1908719,0 -3.983403,-1.792532 -3.983403,-3.983403 V 8.763486 h 44.813278 v 29.875518 c 0,2.190871 -1.792531,3.983403 -3.983403,3.983403 z" />
   <path fill="#2fdf84" d="M 46.406639,8.763486 H 1.593361 V 5.775933 c 0,-2.190871 1.7925311,-3.9834019 3.983403,-3.9834019 h 36.846472 c 2.190872,0 3.983403,1.7925309 3.983403,3.9834019 z" />
   <path fill="#1A1829" d="M 5.975104,38.639004 V 8.763486 H 1.3941908 v 29.875518 c 0,2.190871 1.7925312,3.983403 3.9834022,3.983403 h 4.580913 c -2.190871,0 -3.983402,-1.792532 -3.983402,-3.983403 z" />
   <path fill="#00b871" d="M 9.958506,1.7925311 H 5.377593 c -2.190871,0 -3.9834022,1.7925309 -3.9834022,3.9834019 V 8.763486 H 5.975104 V 5.775933 c 0,-2.190871 1.792531,-3.9834019 3.983402,-3.9834019 z" />
   <path fill="#fafbfc" d="m 22.506224,15.53527 h 2.987552 v 16.53112 h -2.987552 z" />
   <path fill="#fafbfc" d="m 28.481328,22.307054 -4.580913,-4.580912 -4.580913,4.580912 -2.190871,-2.190872 5.576763,-5.576763 c 0.59751,-0.597511 1.593361,-0.597511 2.190871,0 l 5.576764,5.576763 z" />
   <path fill="#fafbfc" d="M 30.473029,38.041494 H 17.526971 c -1.991701,0 -3.585063,-1.593361 -3.585063,-3.585062 v -4.580914 h 2.987553 v 4.580914 c 0,0.199169 0.19917,0.59751 0.59751,0.59751 h 12.946058 c 0.19917,0 0.59751,-0.19917 0.59751,-0.59751 v -4.580914 h 2.987553 v 4.580914 c 0,1.991701 -1.593362,3.585062 -3.585063,3.585062 z" />
   <path fill="#fafbfc" d="M 42.423236,44.016597 H 5.576764 C 2.5892117,44.016597 0,41.626556 0,38.439834 V 5.576764 C 0,2.5892117 2.3900415,0 5.576764,0 H 42.423236 C 45.410789,0 48,2.3900415 48,5.576764 v 32.86307 c 0,2.987552 -2.390042,5.576763 -5.576764,5.576763 z M 5.576764,3.186722 c -1.394192,0 -2.5892122,1.195021 -2.5892122,2.589211 v 32.863071 c 0,1.394191 1.1950202,2.589211 2.5892122,2.589211 h 36.846472 c 1.394192,0 2.589212,-1.19502 2.589212,-2.589211 V 5.775933 c 0,-1.39419 -1.19502,-2.589211 -2.589212,-2.589211 z" />
   <path fill="#fafbfc" d="m 1.593361,7.170125 h 44.813278 v 2.987551 H 1.593361 Z" />
</svg>
