<svg id="line" enable-background="new 0 0 36 36" height="512" viewBox="0 0 36 36" width="512"
    xmlns="http://www.w3.org/2000/svg">
    <path d="m27.623 31.833c-6.917 0-11.667 3.583-15 3.583s-10.333-1.916-10.333-17.249 9.417-17.584 13.083-17.584c17.167 0 24.5 31.25 12.25 31.25z" fill="#efefef"/>
    <path d="m6.5 8c-.827 0-1.5-.673-1.5-1.5s.673-1.5 1.5-1.5 1.5.673 1.5 1.5-.673 1.5-1.5 1.5zm0-2c-.276 0-.5.224-.5.5s.224.5.5.5.5-.224.5-.5-.224-.5-.5-.5z" fill="#a4afc1"/>
    <path d="m16 26.25c-4.556 0-8.25-3.694-8.25-8.25v-3.75h16.5v3.75c0 4.556-3.694 8.25-8.25 8.25z" fill="#2fdf84"/>
    <path d="m23.25 29.25h-14.5c-1.105 0-2-.895-2-2v-1h18.5v1c0 1.105-.895 2-2 2z" fill="#f3f3f1"/>
    <path d="m10 18v-3.75h-2.25v3.75c0 4.556 3.694 8.25 8.25 8.25.383 0 .756-.035 1.125-.086-4.023-.55-7.125-3.99-7.125-8.164z" fill="#00b871"/>
    <path d="m9 27.25v-1h-2.25v1c0 1.105.895 2 2 2h2.25c-1.105 0-2-.895-2-2z" fill="#d5dbe1"/>
    <path d="m26.25 23h-3.041v-1.5h3.041c1.241 0 2.25-1.009 2.25-2.25s-1.009-2.25-2.25-2.25h-1.75v-1.5h1.75c2.068 0 3.75 1.682 3.75 3.75s-1.682 3.75-3.75 3.75z"/>
    <path d="m13.682 12.308-.983-1.133.566-.492c.168-.146.25-.329.232-.517-.019-.203-.155-.392-.373-.518-.643-.372-1.049-.982-1.115-1.674-.064-.673.206-1.326.742-1.792l.566-.492.983 1.133-.566.492c-.168.146-.25.329-.232.517.019.203.155.392.373.518.643.372 1.049.982 1.115 1.674.064.673-.206 1.326-.742 1.792z"/>
    <path d="m18.682 12.308-.983-1.133.566-.492c.168-.146.25-.329.232-.517-.019-.203-.155-.392-.373-.518-.643-.372-1.049-.982-1.115-1.674-.064-.673.206-1.326.742-1.792l.566-.492.983 1.133-.566.492c-.168.146-.25.329-.232.517.019.203.155.392.373.518.643.372 1.049.982 1.115 1.674.064.673-.206 1.326-.742 1.792z"/>
    <path d="m16 27c-4.962 0-9-4.038-9-9v-3.75c0-.414.336-.75.75-.75h16.5c.414 0 .75.336.75.75v3.75c0 4.962-4.038 9-9 9zm-7.5-12v3c0 4.136 3.364 7.5 7.5 7.5s7.5-3.364 7.5-7.5v-3z"/>
    <path d="m23.25 30h-14.5c-1.517 0-2.75-1.233-2.75-2.75v-1c0-.414.336-.75.75-.75h18.5c.414 0 .75.336.75.75v1c0 1.517-1.233 2.75-2.75 2.75zm-15.75-3v.25c0 .689.561 1.25 1.25 1.25h14.5c.689 0 1.25-.561 1.25-1.25v-.25z"/>
    <path d="m2 28.5h32v1.5h-32z"/>
</svg>