<?xml version="1.0" encoding="UTF-8" standalone="no"?>
<svg xmlns:svg="http://www.w3.org/2000/svg"
   xmlns="http://www.w3.org/2000/svg" version="1.1" width="52" viewBox="0 0 3.65625 2.7913277" height="39.698883" enable-background="new 0 0 36 36" id="line">
   <path style="fill:#2b2d42;fill-opacity:1;stroke-width:0.114258" id="path2192" fill="#2fdf84" d="m 1.5996094,2.3628608 c -0.5205586,0 -0.942627,-0.4220684 -0.942627,-0.942627 V 0.991767 h 1.8852539 v 0.4284668 c 0,0.5205586 -0.4220683,0.942627 -0.9426269,0.942627 z" />
   <path style="fill:#2fdf84;fill-opacity:1;stroke-width:0.114258" id="path2194" fill="#f3f3f1" d="M 2.4279785,2.7056342 H 0.7712402 c -0.1262548,0 -0.2285156,-0.1022607 -0.2285156,-0.2285156 V 2.3628608 h 2.1137695 v 0.1142578 c 0,0.1262549 -0.1022607,0.2285156 -0.2285156,0.2285156 z" />
   <path style="fill:#1a1829;fill-opacity:1;stroke-width:0.114258" id="path2196" fill="#00b871" d="M 0.9140625,1.4202338 V 0.991767 H 0.6569824 v 0.4284668 c 0,0.5205586 0.4220684,0.942627 0.942627,0.942627 0.043761,0 0.086379,-0.004 0.12854,-0.00983 C 1.2684902,2.2901928 0.9140625,1.8971459 0.9140625,1.4202338 Z" />
   <path style="fill:#00b871;fill-opacity:1;stroke-width:0.114258" id="path2198" fill="#d5dbe1" d="M 0.7998047,2.4771186 V 2.3628608 H 0.5427246 v 0.1142578 c 0,0.1262549 0.1022608,0.2285156 0.2285156,0.2285156 h 0.2570801 c -0.1262549,0 -0.2285156,-0.1022607 -0.2285156,-0.2285156 z" />
   <path style="fill:#fafbfc;fill-opacity:1;stroke-width:0.114258" id="path2200" d="M 2.770752,1.9915229 H 2.4232939 V 1.8201362 H 2.770752 c 0.1417939,0 0.25708,-0.1152862 0.25708,-0.2570801 0,-0.141794 -0.1152861,-0.2570801 -0.25708,-0.2570801 H 2.5708008 V 1.1345893 H 2.770752 c 0.2362851,0 0.4284667,0.1921816 0.4284667,0.4284668 0,0.2362851 -0.1921816,0.4284668 -0.4284667,0.4284668 z" />
   <path style="fill:#16db86;fill-opacity:1;stroke-width:0.114258" id="path2202" d="m 0.9535588,0.7698783 -0.1123154,-0.1294541 0.06467,-0.056215 c 0.019195,-0.016682 0.028564,-0.037591 0.026508,-0.059071 -0.00217,-0.023194 -0.01771,-0.044789 -0.042618,-0.059185 C 0.8163352,0.4234487 0.7699465,0.3537514 0.7624055,0.274685 0.7550955,0.197789 0.7859425,0.1231791 0.8471845,0.069935 l 0.06467,-0.056215 0.1123154,0.1294541 -0.06467,0.056215 c -0.019195,0.016682 -0.028564,0.037591 -0.026508,0.059071 0.00217,0.023194 0.01771,0.044789 0.042618,0.059185 0.073468,0.042504 0.1198564,0.1122012 0.1273974,0.1912676 0.00731,0.076896 -0.023537,0.1515059 -0.084779,0.20475 z" />
   <path style="fill:#16db86;fill-opacity:1;stroke-width:0.114258" id="path2204" d="M 1.6724095,0.7698783 1.5600941,0.6404242 1.624764,0.5842094 C 1.643959,0.5675274 1.653329,0.5466184 1.651272,0.5251384 1.649102,0.5019444 1.633562,0.4803494 1.608654,0.4659534 1.5351859,0.4234487 1.4887972,0.3537514 1.4812562,0.274685 1.4739462,0.197789 1.5047932,0.1231791 1.5660352,0.069935 l 0.06467,-0.056215 0.1123155,0.1294541 -0.06467,0.056215 c -0.019195,0.016682 -0.028564,0.037591 -0.026508,0.059071 0.00217,0.023194 0.01771,0.044789 0.042618,0.059185 0.073468,0.042504 0.1198564,0.1122012 0.1273975,0.1912676 0.00731,0.076896 -0.023537,0.1515059 -0.084779,0.20475 z" />
   <path style="fill:#fafbfc;fill-opacity:1;stroke-width:0.114258" id="path2206" d="m 1.5996094,2.4485541 c -0.5669473,0 -1.0283203,-0.461373 -1.0283203,-1.0283203 V 0.991767 c 0,-0.047303 0.038391,-0.085693 0.085693,-0.085693 H 2.542236 c 0.047303,0 0.085693,0.038391 0.085693,0.085693 v 0.4284668 c 0,0.5669473 -0.4613731,1.0283203 -1.0283196,1.0283203 z M 0.7426758,1.0774604 v 0.3427734 c 0,0.4725703 0.3843633,0.8569336 0.8569336,0.8569336 0.4725703,0 0.8569336,-0.3843633 0.8569336,-0.8569336 V 1.0774604 Z" />
   <path style="fill:#fafbfc;fill-opacity:1;stroke-width:0.114258" id="path2208" d="M 2.4279785,2.7913276 H 0.7712402 c -0.1733291,0 -0.3142089,-0.1408799 -0.3142089,-0.314209 V 2.3628608 c 0,-0.047303 0.038391,-0.085693 0.085693,-0.085693 h 2.1137695 c 0.047303,0 0.085693,0.038391 0.085693,0.085693 v 0.1142578 c 0,0.1733291 -0.1408799,0.314209 -0.3142083,0.314209 z M 0.628418,2.4485541 v 0.028564 c 0,0.078724 0.064099,0.1428222 0.1428222,0.1428222 h 1.6567383 c 0.078724,0 0.1428223,-0.064099 0.1428223,-0.1428222 v -0.028564 z" />
   <path style="fill:#fafbfc;fill-opacity:1;stroke-width:0.114258" id="path2210" d="M 0,2.6199408 H 3.65625 V 2.7913276 H 0 Z" />
   <path style="fill:#16db86;fill-opacity:1;stroke-width:0.114258" d="m 2.3377751,0.7561587 -0.1123155,-0.1294541 0.06467,-0.056215 c 0.019195,-0.016682 0.028564,-0.037591 0.026508,-0.059071 -0.00217,-0.023194 -0.01771,-0.044789 -0.042618,-0.059186 C 2.2005516,0.4097286 2.1541632,0.3400315 2.1466221,0.260965 2.1393121,0.184069 2.1701591,0.1094592 2.2314011,0.056215 L 2.2960711,0 l 0.1123154,0.1294541 -0.06467,0.056215 c -0.019195,0.016682 -0.028564,0.037591 -0.026508,0.059071 0.00217,0.023194 0.01771,0.044789 0.042618,0.059186 0.073468,0.042504 0.1198565,0.1122012 0.1273975,0.1912675 0.00731,0.076896 -0.023537,0.1515059 -0.084779,0.2047501 z" id="path2204-4" />
</svg>
