<?xml version="1.0" encoding="UTF-8"?>
<svg width="53px" height="49px" viewBox="0 0 53 49" version="1.1" xmlns="http://www.w3.org/2000/svg" xmlns:xlink="http://www.w3.org/1999/xlink">
    <title>iconEMail</title>
    <g id="Page-1" stroke="none" stroke-width="1" fill="none" fill-rule="evenodd">
        <g id="Artboard" transform="translate(-985.000000, -53.000000)" fill-rule="nonzero">
            <g id="iconEMail" transform="translate(985.000000, 53.000000)">
                <path d="M46.4666667,47.0059038 L4.53333333,47.0059038 C2.02866667,47.0059038 0,45.0053156 0,42.5353156 L0,9.00590379 L51,9.00590379 L51,42.5353156 C51,45.0053156 48.9713333,47.0059038 46.4666667,47.0059038 Z" id="Path-Copy-10" fill="#2B2D42"></path>
                <path d="M52,9.00590379 L1,9.00590379 L1,5.57733236 C1,3.05161808 3.02866667,1.00590379 5.53333333,1.00590379 L47.4666667,1.00590379 C49.9713333,1.00590379 52,3.05161808 52,5.57733236 L52,9.00590379 Z" id="Path-Copy-11" fill="#0DD680"></path>
                <path d="M11,1.00590379 L6.23529412,1.00590379 C3.89529412,1.00590379 2,3.05161808 2,5.57733236 L2,9.00590379 L6.76470588,9.00590379 L6.76470588,5.57733236 C6.76470588,3.05161808 8.66,1.00590379 11,1.00590379 Z" id="Path-Copy-12" fill="#0BB36B"></path>
                <path d="M6.76470588,42.5353156 L6.76470588,9.00590379 L2,9.00590379 L2,42.5353156 C2,45.0053156 3.89529412,47.0059038 6.23529412,47.0059038 L11,47.0059038 C8.66,47.0059038 6.76470588,45.0053156 6.76470588,42.5353156 Z" id="Path-Copy-15" fill="#1A1829"></path>
                <path d="M46.9270833,1.5 L6.07291667,1.5 C4.81307487,1.5 3.67202693,2.01783735 2.84537204,2.85158191 C2.01409709,3.68998614 1.5,4.84786931 1.5,6.125 L1.5,42.875 C1.5,44.1521307 2.01409709,45.3100139 2.84537204,46.1484181 C3.67202693,46.9821627 4.81307487,47.5 6.07291667,47.5 L46.9270833,47.5 C48.1869251,47.5 49.3279731,46.9821627 50.154628,46.1484181 C50.9859029,45.3100139 51.5,44.1521307 51.5,42.875 L51.5,6.125 C51.5,4.84786931 50.9859029,3.68998614 50.154628,2.85158191 C49.3279731,2.01783735 48.1869251,1.5 46.9270833,1.5 Z" id="Path-Copy-16" stroke="#FAFBFC" stroke-width="3"></path>
                <polygon id="Path-Copy-17" fill="#FAFBFC" points="1 8.00590379 52 8.00590379 52 10.0059038 1 10.0059038"></polygon>
                <path d="M25.5,33 C22.4676667,33 20,30.5323333 20,27.5 C20,24.4676667 22.4676667,22 25.5,22 C28.5323333,22 31,24.4676667 31,27.5 C31,30.5323333 28.5323333,33 25.5,33 Z M25.5,24.75 C23.9838333,24.75 22.75,25.9838333 22.75,27.5 C22.75,29.0161667 23.9838333,30.25 25.5,30.25 C27.0161667,30.25 28.25,29.0161667 28.25,27.5 C28.25,25.9838333 27.0161667,24.75 25.5,24.75 Z" id="Shape-Copy" fill="#FAFBFC"></path>
                <path d="M28.6675,39 L26,39 C19.9335,39 15,34.0665 15,28 C15,21.9335 19.9335,17 26,17 C32.0665,17 37,21.9335 37,28 L37,31.333 C37,33.5385 35.2051667,35.3333333 32.9996667,35.3333333 C30.7941667,35.3333333 28.9993333,33.5385 28.9993333,31.333 L28.9993333,23.875 L31.7493333,23.875 L31.7493333,31.333 C31.7493333,32.0223333 32.3103333,32.5833333 32.9996667,32.5833333 C33.689,32.5833333 34.25,32.0223333 34.25,31.333 L34.25,28 C34.25,23.4515 30.5485,19.75 26,19.75 C21.4515,19.75 17.75,23.4515 17.75,28 C17.75,32.5485 21.4515,36.25 26,36.25 L28.6675,36.25 L28.6675,39 Z" id="Path-Copy-13" fill="#FAFBFC"></path>
            </g>
        </g>
    </g>
</svg>