<?xml version="1.0" encoding="UTF-8" standalone="no"?>
<svg xmlns:svg="http://www.w3.org/2000/svg"
  xmlns="http://www.w3.org/2000/svg"
  xmlns:xlink="http://www.w3.org/1999/xlink"
  xmlns:sodipodi="http://sodipodi.sourceforge.net/DTD/sodipodi-0.dtd"
  xmlns:inkscape="http://www.inkscape.org/namespaces/inkscape" inkscape:version="1.0 (4035a4f, 2020-05-01)" sodipodi:docname="find.svg" id="svg895" version="1.1" width="160" viewBox="0 0 11.25 10.451863" height="148.64871" enable-background="new 0 0 36 36">
  <defs id="defs899">
    <linearGradient id="linearGradient3013" inkscape:collect="always">
      <stop id="stop3009" offset="0" style="stop-color:#2fbf84;stop-opacity:1;" />
      <stop id="stop3011" offset="1" style="stop-color:#2fbf84;stop-opacity:0;" />
    </linearGradient>
    <linearGradient gradientUnits="userSpaceOnUse" y2="8.1666374" x2="10.943137" y1="8.1666374" x1="7.0716877" id="linearGradient3007" xlink:href="#linearGradient3013" inkscape:collect="always" />
    <linearGradient gradientUnits="userSpaceOnUse" y2="8.1666377" x2="5.6453643" y1="8.1666377" x1="1.7739151" id="linearGradient3015" xlink:href="#linearGradient3013" inkscape:collect="always" />
  </defs>
  <path style="fill:url(#linearGradient3015);fill-opacity:1;stroke-width:0.407521" id="path835" fill="#2fdf84" d="m 5.6453643,8.1666383 c 0,1.067705 -0.8639445,1.9357237 -1.9357246,1.9357237 -1.0677049,0 -1.9357246,-0.8680187 -1.9357246,-1.9357237 0,-0.240438 0.044827,-0.468649 0.1263315,-0.6805603 0.273039,-0.7335378 0.9821255,-1.2551646 1.8093931,-1.2551646 1.0717801,0 1.9357246,0.8680196 1.9357246,1.9357249 z" />
  <path style="fill:#2b2d42;fill-opacity:1;stroke-width:0.407521" id="path837" fill="#f3f3f1" d="m 5.942447,3.7597063 v 4.482731 c 0,-1.0677054 -0.8639444,-1.9357246 -1.9357245,-1.9357246 -0.8272676,0 -1.5363541,0.5216268 -1.8093931,1.2551646 L 3.7418338,3.4581407 c 0.00815,-0.032602 0.020376,-0.065203 0.032602,-0.09373 C 3.933369,2.9405889 4.34089,2.6390234 4.8217647,2.6390234 c 0.6194319,0 1.1206826,0.5012508 1.1206823,1.1206829 z" />
  <path style="fill:#2b2d42;fill-opacity:1;stroke-width:0.407521" id="path839" fill="#f3f3f1" d="m 7.1348534,3.6839074 v 4.4827309 c 0,-1.0677053 0.8639444,-1.9357249 1.9357244,-1.9357249 0.827268,0 1.5363542,0.5216268 1.8093932,1.2551646 L 9.3354668,3.3823418 c -0.0082,-0.032602 -0.02038,-0.065203 -0.0326,-0.09373 C 9.1439338,2.86479 8.7364128,2.5632245 8.2555378,2.5632245 c -0.619432,0 -1.1206824,0.5012508 -1.1206824,1.1206827 z" />
  <g transform="matrix(0.40752096,0,0,0.40752096,-0.97562894,-1.0025837)" id="g849" fill="#d5dbe1">
    <path style="fill:#232536;fill-opacity:1" id="path841" d="m 13.747,17.75 c -0.389,0 -0.761,0.06 -1.123,0.149 2.08,0.508 3.623,2.37 3.623,4.601 V 18.476 C 15.52,18.023 14.668,17.75 13.747,17.75 Z" />
    <path style="fill:#232536;fill-opacity:1" id="path843" d="m 13.097,10.76 c 0.02,-0.08 0.05,-0.16 0.08,-0.23 C 13.434,9.844 13.959,9.295 14.623,8.996 14.279,8.841 13.899,8.75 13.497,8.75 c -1.18,0 -2.18,0.74 -2.57,1.78 -0.03,0.07 -0.06,0.15 -0.08,0.23 l -3.79,10.07 c 0.546,-1.468 1.81,-2.577 3.357,-2.941 z" />
    <path style="fill:#232536;fill-opacity:1" id="path845" d="m 22.152,11.5 c 0,-1.117 0.668,-2.074 1.624,-2.504 C 23.433,8.842 23.054,8.75 22.652,8.75 c -1.52,0 -2.75,1.23 -2.75,2.75 v 11 c 0,-1.702 0.902,-3.185 2.25,-4.024 z" />
    <path id="path847" d="m 26.902,17.75 c -0.39,0 -0.764,0.06 -1.127,0.149 1.529,0.374 2.775,1.476 3.317,2.931 L 27.985,17.889 C 27.635,17.807 27.276,17.75 26.902,17.75 Z" />
  </g>
  <path style="fill:none;fill-opacity:0.931174;stroke-width:0.407521" id="path851" fill="#f3f3f1" d="M 5.6453643,5.8233924 H 7.0716876 V 7.6572363 H 5.6453643 Z" />
  <path style="fill:#232536;fill-opacity:1;stroke-width:0.407521" id="path853" fill="#d5dbe1" d="M 5.6465868,5.5177517 H 6.563509 V 7.351596 H 5.6465868 Z" />
  <path style="stroke-width:0.407521" id="path855" d="m 7.0716876,8.4722783 c -0.1687136,0 -0.3056407,-0.136927 -0.3056407,-0.30564 v -0.509402 c 0,-0.1687132 0.1369271,-0.3056403 0.3056407,-0.3056403 0.1687137,0 0.3056408,0.1369271 0.3056408,0.3056403 v 0.509402 c 0,0.168713 -0.1369271,0.30564 -0.3056408,0.30564 z" />
  <path style="fill:url(#linearGradient3007);fill-opacity:1.0;stroke-width:0.407521" id="path857" fill="#2fdf84" d="m 10.943137,8.1666383 c 0,1.067705 -0.863944,1.9357237 -1.9357252,1.9357237 -1.067705,0 -1.9357242,-0.8680187 -1.9357242,-1.9357237 0,-1.0677053 0.8680192,-1.9357249 1.9357242,-1.9357249 0.831343,0 1.5363542,0.5216268 1.8134692,1.2551646 0.0815,0.2119113 0.122256,0.4401223 0.122256,0.6805603 z" />
  <path style="stroke-width:0.407521" id="path859" fill="#00b871" d="m 2.6908373,8.1666383 c 0,-0.240438 0.044827,-0.468649 0.1263315,-0.6805603 C 3.0380451,6.893135 3.5458163,6.4436393 4.1689158,6.291634 4.0209857,6.2553646 3.8689804,6.2309134 3.7096397,6.2309134 c -0.8272676,0 -1.5363541,0.5216268 -1.8093931,1.2551646 -0.081504,0.2119113 -0.1263315,0.4401223 -0.1263315,0.6805603 0,1.067705 0.8680197,1.9357237 1.9357246,1.9357237 0.1589332,0 0.311346,-0.02445 0.4592761,-0.06072 C 3.3224948,9.8350293 2.6908373,9.0758173 2.6908373,8.1666383 Z" />
  <path style="stroke-width:0.407521" id="path861" fill="#00b871" d="m 7.9886098,8.1666383 c 0,-0.9091796 0.631658,-1.6683912 1.478079,-1.8750043 -0.147523,-0.035862 -0.299936,-0.060721 -0.459277,-0.060721 -1.067705,0 -1.9357242,0.8680196 -1.9357242,1.9357253 0,1.067705 0.8680192,1.9357237 1.9357242,1.9357237 0.158934,0 0.311346,-0.02445 0.459277,-0.06072 C 8.6202678,9.8350293 7.9886098,9.0758173 7.9886098,8.1666383 Z" />
  <g transform="matrix(0.40752096,0,0,0.40752096,-0.86598204,-1.3753832)" id="g873" fill="#a4afc1">
    <path id="path863" d="m 7.875,6.875 h 2 v 1 h -2 z" />
    <path id="path865" d="m 2.125,6.875 h 2 v 1 h -2 z" />
    <path id="path867" d="m 5.625,3.375 h 1 v 2 h -1 z" />
    <path id="path869" d="m 5.625,9.125 h 1 v 2 h -1 z" />
  </g>
  <path style="fill:#a4afc1;fill-opacity:1;stroke-width:0.407521" id="path875" d="m 3.7108622,10.451862 c -1.2356035,0 -2.2413653,-1.0053547 -2.2413653,-2.2413657 0,-0.271001 0.048087,-0.536297 0.1430399,-0.7889603 0.3268318,-0.8688347 1.1704002,-1.4524047 2.0983254,-1.4524047 1.2356036,0 2.2413653,1.0053542 2.2413653,2.241365 0,1.236011 -1.0057617,2.2413657 -2.2413653,2.2413657 z m 0,-3.8714493 c -0.6748547,0 -1.2885812,0.4246369 -1.526166,1.0562946 -0.068871,0.183384 -0.1039178,0.376549 -0.1039178,0.573789 0,0.898992 0.7310926,1.630084 1.6300838,1.630084 0.8989913,0 1.6300839,-0.731092 1.6300839,-1.630084 0,-0.8989909 -0.7310926,-1.6300836 -1.6300839,-1.6300836 z" />
  <path style="fill:#a4afc1;fill-opacity:1;stroke-width:0.407521" id="path877" d="M 5.3409461,3.6839074 H 5.9522275 V 8.1666383 H 5.3409461 Z" />
  <path style="fill:#a4afc1;fill-opacity:1;stroke-width:0.407521" id="path879" d="M 1.612377,7.3767222 3.1902982,3.1808863 3.7624577,3.3960574 2.1845365,7.5918933 Z" />
  <path style="fill:#a4afc1;fill-opacity:1;stroke-width:0.407521" id="path881" d="M 5.9522275,3.6839074 H 5.3409461 c 0,-0.4494957 -0.3655463,-0.815042 -0.8150419,-0.815042 -0.3370199,0 -0.6426606,0.2119109 -0.7612492,0.5269246 C 3.75406,3.421871 3.746317,3.44021 3.741834,3.458141 L 3.1497059,3.3057279 c 0.012226,-0.046865 0.029342,-0.09373 0.046457,-0.135297 C 3.3999233,2.6288356 3.9358134,2.257584 4.5259038,2.257584 c 0.7865154,0 1.4263233,0.6398079 1.4263237,1.4263234 z" />
  <path style="fill:#a4afc1;fill-opacity:1;stroke-width:0.407521" id="path883" d="M 7.3785509,3.6839074 H 6.7672695 c 0,-0.7865155 0.6398079,-1.4263234 1.4263233,-1.4263234 0.59009,0 1.12598,0.3712516 1.333409,0.9234425 l 0.03505,0.1006577 -0.577049,0.2009078 -0.0326,-0.09373 c -0.116149,-0.3080857 -0.42179,-0.5199966 -0.75881,-0.5199966 -0.449496,0 -0.8150419,0.3655463 -0.8150419,0.815042 z" />
  <path style="fill:#a4afc1;fill-opacity:1;stroke-width:0.407521" id="path885" d="M 6.7672695,3.6839074 H 7.3785509 V 8.1666383 H 6.7672695 Z" />
  <path style="fill:#a4afc1;fill-opacity:1;stroke-width:0.407521" id="path887" d="M 8.9567398,3.3972604 9.5288988,3.1820893 11.10682,7.3779252 10.534661,7.5930963 Z" />
  <path style="fill:#a4afc1;fill-opacity:1;stroke-width:0.407521" id="path889" d="m 9.0086348,10.408003 c -1.235604,0 -2.2413653,-1.0053537 -2.2413653,-2.2413647 0,-1.2360114 1.0057613,-2.2413656 2.2413653,-2.2413656 0.927925,0 1.7714942,0.58357 2.0983252,1.4524047 0.09495,0.2526629 0.14304,0.5179589 0.14304,0.7889609 0,1.236011 -1.005761,2.2413647 -2.2413652,2.2413647 z m 0,-3.8714489 c -0.898991,0 -1.6300839,0.7310926 -1.6300839,1.6300842 0,0.898991 0.7310929,1.630084 1.6300839,1.630084 0.898991,0 1.6300842,-0.731093 1.6300842,-1.630084 0,-0.19724 -0.03505,-0.390405 -0.103918,-0.57379 C 10.296809,6.961191 9.6834898,6.5365541 9.0086348,6.5365541 Z" />
  <path style="fill:#a4afc1;fill-opacity:1;stroke-width:0.407521" id="path891" d="M 5.6465868,7.351596 H 7.0729102 V 7.9628773 H 5.6465868 Z" />
  <path style="fill:#a4afc1;fill-opacity:1;stroke-width:0.407521" id="path893" d="M 5.6453643,5.212111 H 7.0716876 V 5.8233924 H 5.6453643 Z" />
</svg>
