<?xml version="1.0" encoding="UTF-8" standalone="no"?>
<svg 
   xmlns="http://www.w3.org/2000/svg"
   enable-background="new 0 0 36 36" height="36.465" viewBox="0 0 3.375 2.5639453" width="48">
   <path  d="m 1.4765625,2.1684375 c -0.4805156,0 -0.8701172,-0.3896016 -0.8701172,-0.8701172 V 0.9028125 h 1.7402344 v 0.3955078 c 0,0.4805156 -0.3896016,0.8701172 -0.8701172,0.8701172 z" fill="#2fdf84" id="path855" />
   <path  d="M 2.2412109,2.4848438 H 0.7119141 c -0.116543,0 -0.2109375,-0.094395 -0.2109375,-0.2109375 V 2.1684375 h 1.9511718 v 0.1054688 c 0,0.1165429 -0.094394,0.2109375 -0.2109375,0.2109375 z" opacity="0" id="path857" />
   <path  d="M 0.84375,1.2983203 V 0.9028125 H 0.6064453 v 0.3955078 c 0,0.4805156 0.3896016,0.8701172 0.8701172,0.8701172 0.040395,0 0.079734,-0.00369 0.1186523,-0.00907 C 1.1709141,2.1013594 0.84375,1.7385469 0.84375,1.2983203 Z" fill="#00b871" id="path859" />
   <path  d="M 0.7382813,2.2739063 V 2.1684375 H 0.5009766 v 0.1054688 c 0,0.1165429 0.094394,0.2109375 0.2109375,0.2109375 h 0.2373047 c -0.116543,0 -0.2109375,-0.094395 -0.2109375,-0.2109375 z" fill="#d5dbe1" id="path861" />
   <path d="M 2.5576172,1.8256641 H 2.2368867 V 1.6674609 h 0.3207305 c 0.1308867,0 0.2373047,-0.1064179 0.2373047,-0.2373046 0,-0.1308868 -0.106418,-0.2373047 -0.2373047,-0.2373047 H 2.3730469 V 1.0346484 h 0.1845703 c 0.2181094,0 0.3955078,0.1773985 0.3955078,0.3955079 0,0.2181093 -0.1773984,0.3955078 -0.3955078,0.3955078 z" id="path863" style="fill:#fafbfc;fill-opacity:1;stroke-width:0.105469" />
   <path d="M 1.2320859,0.6979922 1.1284102,0.5784961 1.1881055,0.5266055 c 0.017719,-0.015398 0.026367,-0.034699 0.024469,-0.054527 -0.002,-0.02141 -0.016348,-0.041344 -0.03934,-0.054633 C 1.105418,0.3782109 1.0625977,0.313875 1.0556367,0.2408906 c -0.00675,-0.07098 0.021727,-0.1398515 0.078258,-0.189 L 1.1935898,0 1.2972656,0.1194961 1.2375703,0.1713867 c -0.017719,0.015398 -0.026367,0.034699 -0.024469,0.054527 0.002,0.02141 0.016348,0.041344 0.03934,0.054633 0.067816,0.039234 0.1106367,0.1035703 0.1175977,0.1765547 0.00675,0.07098 -0.021727,0.1398515 -0.078258,0.189 z" id="path865" style="fill:#fafbfc;fill-opacity:1;stroke-width:0.105469" />
   <path d="M 1.7594297,0.6979922 1.6557539,0.5784961 1.7154492,0.5266055 c 0.017719,-0.015398 0.026367,-0.034699 0.024469,-0.054527 -0.002,-0.02141 -0.016348,-0.041344 -0.03934,-0.054633 C 1.6327617,0.3782109 1.5899414,0.313875 1.5829805,0.2408906 c -0.00675,-0.07098 0.021726,-0.1398515 0.078258,-0.189 L 1.7209336,0 1.8246094,0.1194961 1.7649141,0.1713867 c -0.017719,0.015398 -0.026367,0.034699 -0.024469,0.054527 0.002,0.02141 0.016348,0.041344 0.03934,0.054633 0.067816,0.039234 0.1106367,0.1035703 0.1175976,0.1765547 0.00675,0.07098 -0.021726,0.1398515 -0.078258,0.189 z" id="path867" style="fill:#fafbfc;fill-opacity:1;stroke-width:0.105469" />
   <path d="m 1.4765625,2.2475391 c -0.5233359,0 -0.9492187,-0.4258828 -0.9492187,-0.9492188 V 0.9028125 c 0,-0.043664 0.035438,-0.079102 0.079101,-0.079102 h 1.7402344 c 0.043664,0 0.079102,0.035437 0.079102,0.079102 v 0.3955078 c 0,0.523336 -0.4258828,0.9492188 -0.9492187,0.9492188 z M 0.6855469,0.9819141 v 0.3164062 c 0,0.4362188 0.3547969,0.7910156 0.7910156,0.7910156 0.4362188,0 0.7910156,-0.3547968 0.7910156,-0.7910156 V 0.9819141 Z" id="path869" style="fill:#fafbfc;fill-opacity:1;stroke-width:0.105469" />
   <path d="M 2.2412109,2.5639453 H 0.7119141 c -0.1599961,0 -0.2900391,-0.130043 -0.2900391,-0.290039 V 2.1684375 c 0,-0.043664 0.035438,-0.079102 0.079102,-0.079102 h 1.9511718 c 0.043664,0 0.079102,0.035437 0.079102,0.079102 v 0.1054688 c 0,0.159996 -0.130043,0.290039 -0.2900399,0.290039 z M 0.5800781,2.2475391 v 0.026367 c 0,0.072668 0.059168,0.1318359 0.131836,0.1318359 h 1.5292968 c 0.072668,0 0.131836,-0.059168 0.131836,-0.1318359 v -0.026367 z" id="path871" style="fill:#fafbfc;fill-opacity:1;stroke-width:0.105469" />
   <path d="M 0,2.4057422 H 3.375 V 2.5639453 H 0 Z"  fill="#fafbfc"  />
</svg>