<?xml version="1.0" encoding="UTF-8" standalone="no"?>
<svg
   xmlns:dc="http://purl.org/dc/elements/1.1/"
   xmlns:cc="http://creativecommons.org/ns#"
   xmlns:rdf="http://www.w3.org/1999/02/22-rdf-syntax-ns#"
   xmlns:svg="http://www.w3.org/2000/svg"
   xmlns="http://www.w3.org/2000/svg"
   xmlns:sodipodi="http://sodipodi.sourceforge.net/DTD/sodipodi-0.dtd"
   xmlns:inkscape="http://www.inkscape.org/namespaces/inkscape"
   inkscape:version="1.0 (4035a4f, 2020-05-01)"
   sodipodi:docname="iconHeartEmpty.svg"
   id="svg880"
   version="1.1"
   width="53px"
   viewBox="0 0 23.992499 20.999999"
   height="55px"
   enable-background="new 0 0 36 36">
  </metadata>
  <sodipodi:namedview
     inkscape:current-layer="svg880"
     inkscape:window-maximized="0"
     inkscape:window-y="23"
     inkscape:window-x="0"
     inkscape:cy="127.59487"
     inkscape:cx="189.16674"
     inkscape:zoom="0.92393445"
     showgrid="false"
     id="namedview882"
     inkscape:window-height="940"
     inkscape:window-width="1402"
     inkscape:pageshadow="2"
     inkscape:pageopacity="0"
     guidetolerance="10"
     gridtolerance="10"
     objecttolerance="10"
     borderopacity="1"
     bordercolor="#666666"
     pagecolor="#ffffff" />
  <g
     transform="translate(-6.00375,-8)"
     style="fill:none;fill-opacity:0.303644"
     id="color">
    <g
       style="fill:none;fill-opacity:0.303644"
       id="g859">
      <path
         style="fill:none;fill-opacity:0.303644"
         id="path857"
         fill="#f3f3f1"
         d="m 18,12.048 -1.599,-1.62 c -2.208,-2.237 -5.787,-2.237 -7.995,0 -2.208,2.237 -2.208,5.864 0,8.101 L 18,28.25 27.594,18.529 c 2.208,-2.237 2.208,-5.864 0,-8.101 -2.208,-2.237 -5.787,-2.237 -7.995,0 z" />
    </g>
  </g>
  <g
     transform="translate(-6.00375,-8)"
     id="shadow">
    <g
       id="g870">
      <g
         id="g864">
        <path
           id="path862"
           fill="#d5dbe1"
           d="m 10.656,18.529 c -2.208,-2.237 -2.208,-5.864 0,-8.101 0.816,-0.827 1.82,-1.344 2.873,-1.559 -1.795,-0.368 -3.731,0.149 -5.123,1.559 -2.208,2.237 -2.208,5.864 0,8.101 L 18,28.25 19.125,27.11 Z" />
      </g>
      <g
         id="g868">
        <path
           id="path866"
           fill="#d5dbe1"
           d="m 20.25,12.048 1.599,-1.62 c 0.816,-0.827 1.82,-1.344 2.873,-1.559 -1.795,-0.368 -3.731,0.149 -5.123,1.559 l -0.474,0.48 z" />
      </g>
    </g>
  </g>
  <g
     transform="translate(-6.00375,-8)"
     style="fill:#16db86;fill-opacity:1"
     id="_x31_.5">
    <g
       style="fill:#16db86;fill-opacity:1"
       id="g877">
      <g
         style="fill:#16db86;fill-opacity:1"
         id="g875">
        <path
           style="fill:#16db86;fill-opacity:1"
           id="path873"
           d="m 18,29 c -0.201,0 -0.393,-0.08 -0.534,-0.224 L 7.872,19.054 C 5.381,16.532 5.381,12.425 7.872,9.901 9.082,8.675 10.691,8 12.403,8 c 1.712,0 3.321,0.675 4.531,1.901 L 18,10.98 19.065,9.9 C 20.275,8.675 21.884,8 23.596,8 c 1.712,0 3.322,0.675 4.532,1.901 2.491,2.524 2.491,6.631 0,9.154 l -9.594,9.721 C 18.393,28.92 18.201,29 18,29 Z M 12.403,9.5 c -1.308,0 -2.538,0.517 -3.464,1.454 -1.917,1.943 -1.917,5.104 0,7.047 L 18,27.183 27.061,18.002 c 1.917,-1.943 1.917,-5.104 0,-7.048 C 26.134,10.017 24.904,9.5 23.596,9.5 c -1.308,0 -2.538,0.517 -3.463,1.454 l -1.599,1.621 c -0.281,0.285 -0.786,0.285 -1.067,0 l -1.599,-1.62 C 14.941,10.017 13.711,9.5 12.403,9.5 c 10e-4,0 10e-4,0 0,0 z" />
      </g>
    </g>
  </g>
</svg>
