<?xml version="1.0" encoding="UTF-8" standalone="no"?>
<svg xmlns:dc="http://purl.org/dc/elements/1.1/"
   xmlns:cc="http://creativecommons.org/ns#"
   xmlns:rdf="http://www.w3.org/1999/02/22-rdf-syntax-ns#"
   xmlns:svg="http://www.w3.org/2000/svg"
   xmlns="http://www.w3.org/2000/svg"
   xmlns:sodipodi="http://sodipodi.sourceforge.net/DTD/sodipodi-0.dtd"
   xmlns:inkscape="http://www.inkscape.org/namespaces/inkscape" sodipodi:docname="iconApproved.svg" width="40" viewBox="0 0 2.8125 2.8128809" height="40" enable-background="new 0 0 36 36">

   <ellipse ry="0.6" rx="0.6" cy="2" cx="2.1" style="fill: #16db86; stroke-width: 0; fill-opacity: 1" />
   <g transform="matrix(0.1,0,0,0.1,-0.7,-0.7)" style="fill: #16db86; fill-opacity: 1">
      <g style="fill: #f9f9f9; fill-opacity: 1">
         <g style="fill: #f9f9f9; fill-opacity: 1">
            <path style="fill: #f9f9f9; fill-opacity: 1" d="M 22.9 26 c -0.2 0 -0.4 -0.1 -0.5 -0.2 l -1.6 -1.8 l 1.1 -1 l 1.1 1.1 l 2.3 -2.8 l 1.2 0.9 l -2.9 3.5 c -0.1 0.2 -0.3 0.3 -0.6 0.3 c 0 0 0 0 0 0 z" />
         </g>
      </g>
      <g style="fill: #16db86; fill-opacity: 1">
         <g style="fill: #16db86; fill-opacity: 1">
            <path style="fill: #16db86; fill-opacity: 1" d="M 23.5 30 C 19.9 30 17 27.1 17 23.5 C 17 19.9 19.9 17 23.5 17 c 3.6 0 6.5 2.9 6.5 6.5 c 0 3.6 -2.9 6.5 -6.5 6.5 z m 0 -11.5 c -2.8 0 -5 2.2 -5 5 c 0 2.8 2.2 5 5 5 c 2.8 0 5 -2.2 5 -5 c 0 -2.8 -2.2 -5 -5 -5 z" />
         </g>
      </g>
      <g style="fill: #16db86; fill-opacity: 1">
         <g style="fill: #16db86; fill-opacity: 1">
            <path style="fill: #16db86; fill-opacity: 1" d="M 14.2 22.8 L 7.8 16.3 C 5.4 14 5.4 10.1 7.8 7.8 C 8.9 6.6 10.4 6 12 6 c 1.6 0 3.1 0.6 4.3 1.8 L 17.3 8.7 L 18.2 7.8 C 19.4 6.6 20.9 6 22.5 6 c 1.6 0 3.1 0.6 4.3 1.8 c 2.1 2.1 2.4 5.5 0.5 7.9 L 26.1 14.8 c 1.4 -1.8 1.2 -4.4 -0.4 -6 c -0.9 -0.9 -2 -1.3 -3.2 -1.3 c -1.2 0 -2.3 0.5 -3.2 1.3 l -1.5 1.5 c -0.1 0.1 -0.3 0.2 -0.5 0.2 c -0.2 0 -0.4 -0.1 -0.5 -0.2 L 15.2 8.8 C 14.4 8 13.2 7.5 12 7.5 c -1.2 0 -2.3 0.5 -3.2 1.3 c -1.8 1.8 -1.8 4.6 0 6.4 l 6.5 6.5 z" />
         </g>
      </g>
   </g>
</svg>
