<?xml version="1.0" encoding="UTF-8" standalone="no"?>
<svg
   xmlns:dc="http://purl.org/dc/elements/1.1/"
   xmlns:cc="http://creativecommons.org/ns#"
   xmlns:rdf="http://www.w3.org/1999/02/22-rdf-syntax-ns#"
   xmlns:svg="http://www.w3.org/2000/svg"
   xmlns="http://www.w3.org/2000/svg"
   xmlns:sodipodi="http://sodipodi.sourceforge.net/DTD/sodipodi-0.dtd"
   xmlns:inkscape="http://www.inkscape.org/namespaces/inkscape"
   sodipodi:docname="iconPencilEdit.svg"
   width="30pt"
   viewBox="0 -1 30.039119 29.849182"
   height="29.849182pt">
  
  <path
     style="fill:#16db86;fill-opacity:1;stroke-width:0.0752003"
     id="path5136"
     d="m 27.868456,17.592157 c -0.415364,0 -0.752002,0.33664 -0.752002,0.752004 v 6.676961 c -0.0015,1.245504 -1.010504,2.254833 -2.256008,2.256008 H 3.7600134 C 2.514509,27.275955 1.5054741,26.266626 1.5040054,25.021122 V 5.4246962 C 1.5054741,4.1794854 2.514509,3.1701567 3.7600134,3.1686881 h 6.6769616 c 0.415364,0 0.752003,-0.3366388 0.752003,-0.7520028 0,-0.4150702 -0.336639,-0.7520027 -0.752003,-0.7520027 H 3.7600134 C 1.6843686,1.6670326 0.00235001,3.3490511 0,5.4246962 V 25.021416 c 0.00235001,2.075645 1.6843686,3.757664 3.7600134,3.760013 H 24.860446 c 2.075645,-0.0023 3.757663,-1.684368 3.760013,-3.760013 v -6.677255 c 0,-0.415364 -0.336639,-0.752004 -0.752003,-0.752004 z m 0,0" />
  <path
     style="fill:#16db86;fill-opacity:1;stroke-width:0.0752003"
     id="path5138"
     d="m 28.322596,-0.27025553 c -1.321587,-1.32158597 -3.464207,-1.32158597 -4.785793,0 L 10.120605,13.145942 c -0.09194,0.09194 -0.1583318,0.20592 -0.1929945,0.331058 l -1.7642687,6.369404 c -0.072557,0.261144 0.00118,0.540796 0.1927006,0.732615 0.1918195,0.191525 0.4714705,0.265257 0.7326151,0.192994 l 6.3694045,-1.764562 c 0.125137,-0.03466 0.239113,-0.101051 0.331057,-0.192995 L 29.205024,5.3979648 c 1.319529,-1.3224672 1.319529,-3.4633249 0,-4.78579216 z M 11.759148,13.634744 22.739269,2.65433 26.280438,6.1954989 15.300024,17.175913 Z m -0.707352,1.419405 2.829116,2.82941 -3.9133512,1.084235 z M 28.141644,4.334586 27.344111,5.1321201 23.802648,1.5906574 24.600475,0.79312324 c 0.734084,-0.73408385 1.924364,-0.73408385 2.658448,0 l 0.882721,0.88242816 c 0.732909,0.7349652 0.732909,1.9243632 0,2.6590346 z m 0,0" />
</svg>
