<?xml version="1.0" encoding="UTF-8" standalone="no"?>
<svg xmlns:dc="http://purl.org/dc/elements/1.1/"
   xmlns:cc="http://creativecommons.org/ns#"
   xmlns:rdf="http://www.w3.org/1999/02/22-rdf-syntax-ns#"
   xmlns:svg="http://www.w3.org/2000/svg"
   xmlns="http://www.w3.org/2000/svg"
   xmlns:sodipodi="http://sodipodi.sourceforge.net/DTD/sodipodi-0.dtd"
   xmlns:inkscape="http://www.inkscape.org/namespaces/inkscape" enable-background="new 0 0 36 36" height="40.005409" width="39.999992" viewBox="0 0 2.8124995 2.8128803" sodipodi:docname="iconPlusSign.svg">

   <g id="BG" transform="matrix(0.11720337,0,0,0.11720337,-0.70360112,-0.70322022)" />
   <g id="color" transform="matrix(0.11720337,0,0,0.11720337,-0.70360112,-0.70322022)">
      <g id="g859" style="fill:none">
         <path d="M 17.267,9.849 15.783,8.346 c -2.048,-2.076 -5.37,-2.076 -7.418,0 -2.048,2.076 -2.048,5.441 0,7.516 l 8.902,9.02 8.902,-9.02 c 2.048,-2.076 2.048,-5.441 0,-7.516 -2.048,-2.076 -5.37,-2.076 -7.418,0 z" fill="#f3f3f1" id="path857" style="fill:none" />
      </g>
      <g style="fill:none" id="g863">
         <circle style="fill:none" cx="23.5" cy="23.5" fill="#2fdf84" r="5.75" id="circle861" />
      </g>
   </g>
   <g style="fill:#2b2d42;fill-opacity:1" id="shadow" transform="matrix(0.11720337,0,0,0.11720337,-0.70360112,-0.70322022)">
      <g style="fill:#2b2d42;fill-opacity:1" id="g874">
         <g style="fill:#2b2d42;fill-opacity:1" id="g868">
            <path style="fill:#2b2d42;fill-opacity:1" d="M 19.517,9.849 21.001,8.346 C 21.737,7.601 22.639,7.134 23.585,6.924 21.897,6.549 20.064,7.016 18.751,8.346 l -0.359,0.363 z" fill="#d5dbe1" id="path866" />
         </g>
         <g style="fill:#2b2d42;fill-opacity:1" id="g872">
            <path style="fill:#2b2d42;fill-opacity:1" d="m 10.615,15.862 c -2.049,-2.076 -2.049,-5.441 0,-7.516 0.736,-0.745 1.638,-1.212 2.584,-1.422 -1.688,-0.375 -3.521,0.092 -4.834,1.422 -2.049,2.076 -2.049,5.441 0,7.516 l 8.902,9.02 1.125,-1.14 z" fill="#d5dbe1" id="path870" />
         </g>
      </g>
      <g style="fill:#2b2d42;fill-opacity:1" id="g878">
         <path style="fill:#2b2d42;fill-opacity:1" d="m 20,23.5 c 0,-2.79 1.988,-5.115 4.625,-5.638 -0.364,-0.072 -0.74,-0.112 -1.125,-0.112 -3.176,0 -5.75,2.574 -5.75,5.75 0,3.176 2.574,5.75 5.75,5.75 0.385,0 0.761,-0.039 1.125,-0.112 C 21.988,28.615 20,26.29 20,23.5 Z" fill="#00b871" id="path876" />
      </g>
   </g>
   <g id="_x31_.5" style="fill:#edf2f4;fill-opacity:1" transform="matrix(0.02344067,0,0,0.02344067,-0.1407202,-0.14064401)">
      <g transform="matrix(4.9999999,0,0,4.9999999,-24.013,-24)" id="g885" style="fill:#16db86;fill-opacity:1">
         <g id="g883" style="fill:#16db86;fill-opacity:1">
            <path d="m 22.75,20.75 h 1.5 v 5.5 h -1.5 z" id="path881" style="fill:#16db86;fill-opacity:1" />
         </g>
      </g>
      <g transform="matrix(4.9999999,0,0,4.9999999,-24.013,-24)" id="g891" style="fill:#16db86;fill-opacity:1">
         <g id="g889" style="fill:#16db86;fill-opacity:1">
            <path d="m 20.75,22.75 h 5.5 v 1.5 h -5.5 z" id="path887" style="fill:#16db86;fill-opacity:1" />
         </g>
      </g>
      <g transform="matrix(4.9999999,0,0,4.9999999,-24.013,-24)" id="g897" style="fill:#16db86;fill-opacity:1">
         <g id="g895" style="fill:#16db86;fill-opacity:1">
            <path d="M 23.5,30 C 19.916,30 17,27.084 17,23.5 17,19.916 19.916,17 23.5,17 c 3.584,0 6.5,2.916 6.5,6.5 0,3.584 -2.916,6.5 -6.5,6.5 z m 0,-11.5 c -2.757,0 -5,2.243 -5,5 0,2.757 2.243,5 5,5 2.757,0 5,-2.243 5,-5 0,-2.757 -2.243,-5 -5,-5 z" id="path893" style="fill:#16db86;fill-opacity:1" />
         </g>
      </g>
      <g transform="matrix(3.75,0,0,3.75,-16.508937,-16.5)" id="g903" style="fill:#16db86;fill-opacity:1">
         <g transform="matrix(1.3333333,0,0,1.3333333,-2.0010833,-1.9999999)" id="g901" style="fill:#16db86;fill-opacity:1">
            <path d="M 14.225,22.779 7.765,16.305 C 5.416,13.951 5.416,10.122 7.765,7.768 8.903,6.628 10.416,6 12.026,6 c 1.61,0 3.124,0.628 4.263,1.77 L 17.25,8.733 18.212,7.769 C 19.35,6.628 20.864,6 22.474,6 c 1.61,0 3.124,0.628 4.262,1.77 2.13,2.134 2.355,5.546 0.525,7.938 L 26.07,14.796 c 1.376,-1.797 1.206,-4.362 -0.395,-5.966 -0.855,-0.857 -1.992,-1.329 -3.2,-1.329 -1.208,0 -2.345,0.472 -3.2,1.328 l -1.493,1.496 c -0.141,0.141 -0.332,0.22 -0.531,0.22 -0.199,0 -0.39,-0.079 -0.531,-0.22 L 15.228,8.83 C 14.372,7.972 13.235,7.5 12.026,7.5 c -1.209,0 -2.345,0.472 -3.2,1.328 -1.766,1.77 -1.766,4.649 0,6.418 l 6.46,6.475 z" id="path899" style="fill:#16db86;fill-opacity:1" />
         </g>
      </g>
   </g>
</svg>
