<?xml version="1.0" encoding="UTF-8" standalone="no"?>
<svg
   xmlns:dc="http://purl.org/dc/elements/1.1/"
   xmlns:cc="http://creativecommons.org/ns#"
   xmlns:rdf="http://www.w3.org/1999/02/22-rdf-syntax-ns#"
   xmlns:svg="http://www.w3.org/2000/svg"
   xmlns="http://www.w3.org/2000/svg"
   xmlns:sodipodi="http://sodipodi.sourceforge.net/DTD/sodipodi-0.dtd"
   xmlns:inkscape="http://www.inkscape.org/namespaces/inkscape"
   sodipodi:docname="iconApproved.svg"
   width="40"
   viewBox="0 0 2.8125 2.8128809"
   height="40.005417"
   enable-background="new 0 0 36 36">
  
  <ellipse
     ry="0.61807692"
     rx="0.6338442"
     cy="2.0402851"
     cx="2.0556707"
    
     style="fill:#16db86;fill-opacity:1;stroke-width:0.00824086" />
  <g
     transform="matrix(0.11720337,0,0,0.11720337,-0.70360113,-0.70322022)"
     style="fill:#16db86;fill-opacity:1"
     >
    <g
       style="fill:#f9f9f9;fill-opacity:1"
       >
      <g
         style="fill:#f9f9f9;fill-opacity:1"
         >
        <path
           style="fill:#f9f9f9;fill-opacity:1"
           
           d="m 22.886,26 c -0.208,0 -0.406,-0.086 -0.548,-0.237 l -1.636,-1.75 1.096,-1.025 1.051,1.124 2.321,-2.836 1.161,0.949 -2.864,3.5 c -0.137,0.168 -0.34,0.268 -0.556,0.275 -0.008,0 -0.016,0 -0.025,0 z" />
      </g>
    </g>
    <g
       style="fill:#16db86;fill-opacity:1"
       >
      <g
         style="fill:#16db86;fill-opacity:1"
         >
        <path
           style="fill:#16db86;fill-opacity:1"
           
           d="M 23.5,30 C 19.916,30 17,27.084 17,23.5 17,19.916 19.916,17 23.5,17 c 3.584,0 6.5,2.916 6.5,6.5 0,3.584 -2.916,6.5 -6.5,6.5 z m 0,-11.5 c -2.757,0 -5,2.243 -5,5 0,2.757 2.243,5 5,5 2.757,0 5,-2.243 5,-5 0,-2.757 -2.243,-5 -5,-5 z" />
      </g>
    </g>
    <g
       style="fill:#16db86;fill-opacity:1"
       >
      <g
         style="fill:#16db86;fill-opacity:1"
         >
        <path
           style="fill:#16db86;fill-opacity:1"
           
           d="M 14.225,22.779 7.765,16.305 C 5.416,13.951 5.416,10.122 7.765,7.768 8.903,6.628 10.416,6 12.026,6 c 1.61,0 3.124,0.628 4.263,1.77 L 17.25,8.733 18.212,7.769 C 19.35,6.628 20.864,6 22.474,6 c 1.61,0 3.124,0.628 4.262,1.77 2.13,2.134 2.355,5.546 0.525,7.938 L 26.07,14.796 c 1.376,-1.797 1.206,-4.362 -0.395,-5.966 -0.855,-0.857 -1.992,-1.329 -3.2,-1.329 -1.208,0 -2.345,0.472 -3.2,1.328 l -1.493,1.496 c -0.141,0.141 -0.332,0.22 -0.531,0.22 -0.199,0 -0.39,-0.079 -0.531,-0.22 L 15.228,8.83 C 14.372,7.972 13.235,7.5 12.026,7.5 c -1.209,0 -2.345,0.472 -3.2,1.328 -1.766,1.77 -1.766,4.649 0,6.418 l 6.46,6.475 z" />
      </g>
    </g>
  </g>
</svg>
