<?xml version="1.0" encoding="UTF-8" standalone="no"?>
<svg
   xmlns:dc="http://purl.org/dc/elements/1.1/"
   xmlns:cc="http://creativecommons.org/ns#"
   xmlns:rdf="http://www.w3.org/1999/02/22-rdf-syntax-ns#"
   xmlns:svg="http://www.w3.org/2000/svg"
   xmlns="http://www.w3.org/2000/svg"
   xmlns:sodipodi="http://sodipodi.sourceforge.net/DTD/sodipodi-0.dtd"
   xmlns:inkscape="http://www.inkscape.org/namespaces/inkscape"
   inkscape:version="1.0 (4035a4f, 2020-05-01)"
   sodipodi:docname="iconHeartFull.svg"
   id="svg1864"
   version="1.1"
   height="36"
   width="36"
   viewBox="0 0 2.8125 2.5624999"
   enable-background="new 0 0 36 36">
  <sodipodi:namedview
     inkscape:current-layer="svg1864"
     inkscape:window-maximized="0"
     inkscape:window-y="23"
     inkscape:window-x="0"
     inkscape:cy="89.845542"
     inkscape:cx="69.309424"
     inkscape:zoom="1.3066406"
     showgrid="false"
     id="namedview1866"
     inkscape:window-height="935"
     inkscape:window-width="1532"
     inkscape:pageshadow="2"
     inkscape:pageopacity="0"
     guidetolerance="10"
     gridtolerance="10"
     objecttolerance="10"
     borderopacity="1"
     bordercolor="#666666"
     pagecolor="#ffffff" />
  <g
     transform="matrix(0.125,0,0,0.125,-0.84375,-0.96875)"
     id="color">
    <g
       id="g1828">
      <path
         id="path1826"
         fill="#2fdf84"
         d="m 29.25,13.607 c 0,6.345 -10.536,14.33 -10.536,14.33 -0.176,0.195 -0.43,0.312 -0.714,0.312 -0.284,0 -0.538,-0.117 -0.714,-0.312 0,0 -10.536,-7.985 -10.536,-14.33 0,-3.231 2.632,-5.857 5.87,-5.857 2.407,0 4.48,1.445 5.38,3.514 0.9,-2.07 2.974,-3.514 5.38,-3.514 3.238,0 5.87,2.626 5.87,5.857 z" />
    </g>
    <g
       style="fill:none;fill-opacity:1"
       id="g1834">
      <g
         style="fill:none;fill-opacity:1"
         id="g1832">
        <path
           style="fill:none;fill-opacity:1"
           id="path1830"
           fill="#00b871"
           d="M 9,13.607 C 9,10.769 11.03,8.4 13.718,7.864 13.361,7.797 12.996,7.75 12.62,7.75 c -3.238,0 -5.87,2.626 -5.87,5.857 0,6.345 10.536,14.331 10.536,14.331 0.176,0.195 0.43,0.312 0.714,0.312 0.284,0 0.538,-0.117 0.714,-0.312 0,0 0.151,-0.115 0.411,-0.322 C 17.188,26.069 9,19.202 9,13.607 Z" />
      </g>
    </g>
  </g>
</svg>
