<?xml version="1.0" encoding="UTF-8" standalone="no"?>
<svg
   xmlns:osb="http://www.openswatchbook.org/uri/2009/osb"
   xmlns:dc="http://purl.org/dc/elements/1.1/"
   xmlns:cc="http://creativecommons.org/ns#"
   xmlns:rdf="http://www.w3.org/1999/02/22-rdf-syntax-ns#"
   xmlns:svg="http://www.w3.org/2000/svg"
   xmlns="http://www.w3.org/2000/svg"
   xmlns:sodipodi="http://sodipodi.sourceforge.net/DTD/sodipodi-0.dtd"
   xmlns:inkscape="http://www.inkscape.org/namespaces/inkscape"
   inkscape:version="1.0 (4035a4f, 2020-05-01)"
   sodipodi:docname="iconBookmark.svg"
   id="svg2619"
   version="1.1"
   height="40.005409"
   width="39.999992"
    viewBox="0 0 2.671875 3.3505938"
   enable-background="new 0 0 36 36">
    <linearGradient
       osb:paint="solid"
       id="linearGradient5132">
      <stop
         id="stop5130"
         offset="0"
         style="stop-color:#ffd5d5;stop-opacity:1;" />
    </linearGradient>
  </defs>
  <sodipodi:namedview
     inkscape:current-layer="g2610"
     inkscape:window-maximized="0"
     inkscape:window-y="23"
     inkscape:window-x="0"
     inkscape:cy="71.635139"
     inkscape:cx="46.909529"
     inkscape:zoom="1.3066406"
     showgrid="false"
     id="namedview2621"
     inkscape:window-height="786"
     inkscape:window-width="1101"
     inkscape:pageshadow="2"
     inkscape:pageopacity="0"
     guidetolerance="10"
     gridtolerance="10"
     objecttolerance="10"
     borderopacity="1"
     bordercolor="#666666"
     pagecolor="#ffffff" />
  <g
     transform="matrix(0.16804815,0,0,0.17152916,-1.3962672,-1.2361447)"
     id="color">
    <g
       id="g2578">
      <path
         style="fill:none"
         id="path2576"
         fill="#f3f3f1"
         d="m 24.72,29.069 -6.16,-4.383 c -0.336,-0.239 -0.784,-0.239 -1.119,0 l -6.16,4.383 C 10.638,29.526 9.751,29.063 9.751,28.27 V 8.707 C 9.751,7.626 10.62,6.75 11.692,6.75 H 24.31 c 1.072,0 1.941,0.876 1.941,1.957 V 28.27 c -0.001,0.793 -0.888,1.257 -1.531,0.799 z" />
    </g>
    <g
       inkscape:transform-center-y="7.1311323"
       inkscape:transform-center-x="2.2934965"
       transform="matrix(0.75375018,0.01863119,-0.01863119,0.75375018,3.2709029,4.8409632)"
       id="g2582">
      <path
         style="stroke-width:0.961187"
         sodipodi:nodetypes="ccscccscc"
         id="path2580"
         fill="#2fdf84"
         d="m 18.04602,11.700028 -0.764068,-0.707017 c -1.054945,-0.976744 -2.772034,-0.971434 -3.833905,0.01185 -1.061872,0.98329 -1.067487,2.571994 -0.01254,3.548739 l 4.770128,5.778819 4.525201,-6.295066 c 0.541327,-0.970416 0.772286,-2.30796 -0.282657,-3.284705 -1.054946,-0.9767434 -2.571202,-0.748568 -3.633074,0.234723 z" />
    </g>
  </g>
  <g
     transform="matrix(0.22446516,0,0,0.1995466,-2.5053463,-1.8499919)"
     style="fill:#16db86;fill-opacity:1"
     id="_x31_.5">
    <g
       transform="matrix(0.74729151,0,0,0.78770773,3.2881392,4.8678366)"
       style="fill:#16db86;fill-opacity:1"
       id="g2610">
      <g
         transform="matrix(0.90993545,0,0,0.8340738,2.3463154,1.9641671)"
         style="fill:#16db86;fill-opacity:1"
         id="g2608">
        <path
           style="fill:#16db86;fill-opacity:1;fill-rule:nonzero"
           id="path2606"
           d="m 25.279,29.999 c -0.349,0 -0.696,-0.107 -0.994,-0.318 l -6.16,-4.383 c -0.075,-0.053 -0.176,-0.053 -0.25,0 l -6.16,4.383 C 11.19,30.054 10.507,30.102 9.934,29.808 9.358,29.51 9,28.921 9,28.271 V 8.706 C 9,7.214 10.208,6 11.691,6 H 24.308 C 25.792,6 27,7.214 27,8.706 V 28.27 c 0,0.65 -0.358,1.239 -0.934,1.537 -0.249,0.129 -0.519,0.192 -0.787,0.192 z m -0.125,-1.541 c 0.089,0.064 0.171,0.044 0.224,0.017 0.045,-0.023 0.122,-0.082 0.122,-0.204 V 8.706 C 25.5,8.041 24.965,7.5 24.309,7.5 H 11.691 C 11.034,7.5 10.5,8.041 10.5,8.706 V 28.27 c 0,0.122 0.077,0.181 0.122,0.204 0.053,0.027 0.135,0.048 0.224,-0.017 l 6.16,-4.383 c 0.595,-0.423 1.394,-0.422 1.988,0 z" />
      </g>
    </g>
    <g
       transform="translate(-0.21524664,1.5481346)"
       style="fill:#16db86;fill-opacity:1"
       id="g2616" />
  </g>
</svg>
