<?xml version="1.0" ?><!DOCTYPE svg  PUBLIC '-//W3C//DTD SVG 1.1//EN'  'http://www.w3.org/Graphics/SVG/1.1/DTD/svg11.dtd'><svg enable-background="new 0 0 512 512" height="512px" id="starship" version="1.1" viewBox="0 0 512 512" width="512px" xml:space="preserve" xmlns="http://www.w3.org/2000/svg" xmlns:xlink="http://www.w3.org/1999/xlink"><path d="M470.023,353.127c-5.742-5.741-12.449-9.92-19.596-12.566V194.875c0-5.216-4.268-9.485-9.484-9.485  s-9.486,4.269-9.486,9.485v142.278c-5.502,0-11,0.842-16.299,2.496v-98.533c0-5.217-4.27-9.485-9.486-9.485  c-2.758,0-5.242,1.2-6.979,3.095v-63.682c0-7.108-5.816-12.924-12.924-12.924c-0.359,0-0.715,0.025-1.066,0.055v-37.109  c0-5.217-4.27-9.485-9.486-9.485s-9.484,4.269-9.484,9.485v240.848c-6.881,5.009-12.104,11.963-15.006,19.898  c-0.072-0.74-0.188-1.484-0.33-2.229V192.385c0-7.108-5.816-12.924-12.924-12.924s-12.924,5.815-12.924,12.924v168.704  c-0.643,0.089-1.287,0.2-1.932,0.346c-5.502,1.243-10.096,4.354-13.27,8.511c-0.053-0.382-0.094-0.763-0.156-1.146  c-4.131-25.458-28.119-42.746-53.577-38.615c-18.157,2.946-32.151,15.996-37.19,32.473c-5.03-10.191-15.521-17.203-27.655-17.203  c-5.616,0-10.879,1.505-15.413,4.13V232.815c0-9.129-7.47-16.599-16.599-16.599c-9.13,0-16.599,7.47-16.599,16.599v133.894  c-1.577,0.23-3.117,0.574-4.607,1.032c-2.174-3.507-4.767-6.827-7.811-9.871c-0.946-0.946-1.928-1.836-2.924-2.698v-165.04  c0-5.217-4.269-9.485-9.485-9.485s-9.485,4.269-9.485,9.485v154.379c-4.653-1.49-9.463-2.35-14.299-2.559v-105.58  c0-5.217-4.269-9.485-9.485-9.485s-9.485,4.269-9.485,9.485v108.115c-8.033,2.56-15.594,7.011-21.966,13.383  c-21.299,21.3-21.299,55.832,0,77.131c21.299,21.3,55.832,21.3,77.131,0c2.674-2.674,5.011-5.557,7.014-8.596  c3.103,1.05,6.423,1.628,9.881,1.628c0.046,0,0.091-0.005,0.138-0.006c3.028,3.172,7.281,5.164,11.984,5.164  c1.737,0,3.413-0.274,4.99-0.775c20.67,6.297,50.687,10.26,84.095,10.26c37.3,0,70.37-4.939,90.929-12.553  c4.063,3.549,9.377,5.704,15.195,5.704c4.824,0,9.301-1.478,13.006-4.004c9.119,6.147,20.592,8.794,32.229,6.467  c0.959-0.192,1.9-0.425,2.83-0.678c21.113,13.558,49.523,11.114,67.992-7.354C491.322,408.959,491.322,374.427,470.023,353.127z" fill="#5AA096"/><ellipse cx="261.316" cy="445.641" fill="#2F485E" rx="161.248" ry="23.12"/><path d="M470.023,353.127c-5.742-5.741-12.449-9.92-19.596-12.566V194.875c0-5.216-4.268-9.485-9.484-9.485  s-9.486,4.269-9.486,9.485v142.278c-5.502,0-11,0.842-16.299,2.496v-98.533c0-5.217-4.27-9.485-9.486-9.485  c-5.215,0-9.484,4.269-9.484,9.485V350.11c-1.127,0.958-2.232,1.953-3.295,3.017c-0.215,0.214-0.412,0.438-0.621,0.653  c-2.494-0.083-5.023,0.044-7.568,0.415V121.064c0-5.217-4.27-9.485-9.486-9.485s-9.484,4.269-9.484,9.485v240.848  c-6.881,5.009-12.104,11.963-15.006,19.898c-0.094-0.97-0.242-1.943-0.461-2.92c-2.814-12.455-15.193-20.271-27.648-17.456  c-5.502,1.243-10.096,4.354-13.27,8.511c-0.053-0.382-0.094-0.763-0.156-1.146c-4.131-25.458-28.119-42.746-53.577-38.615  c-18.157,2.946-32.151,15.996-37.19,32.473c-5.03-10.191-15.521-17.203-27.655-17.203c-14.783,0-27.13,10.408-30.127,24.295  c-4.204-2.148-8.961-3.369-14.007-3.369c-3.162,0-6.212,0.479-9.084,1.362c-2.174-3.507-4.767-6.827-7.811-9.871  c-0.946-0.946-1.928-1.836-2.924-2.698v-165.04c0-5.217-4.269-9.485-9.485-9.485s-9.485,4.269-9.485,9.485v154.379  c-4.653-1.49-9.463-2.35-14.299-2.559v-105.58c0-5.217-4.269-9.485-9.485-9.485s-9.485,4.269-9.485,9.485v108.115  c-8.033,2.56-15.594,7.011-21.966,13.383c-21.299,21.3-21.299,55.832,0,77.131c21.299,21.3,55.832,21.3,77.131,0  c2.674-2.674,5.011-5.557,7.014-8.596c3.103,1.05,6.423,1.628,9.881,1.628c1.493,0,2.958-0.112,4.395-0.317  c19.747,8.964,55.713,14.96,96.813,14.96c37.3,0,70.37-4.939,90.929-12.553c4.063,3.549,9.377,5.704,15.195,5.704  c4.824,0,9.301-1.478,13.006-4.004c9.119,6.147,20.592,8.794,32.229,6.467c0.959-0.192,1.9-0.425,2.83-0.678  c21.113,13.558,49.523,11.114,67.992-7.354C491.322,408.959,491.322,374.427,470.023,353.127z" fill="#466C6F"/><polygon fill="#FF7143" points="279.375,306.554 243.26,306.554 234.326,407.803 288.307,407.803 "/><polygon fill="#FFD800" points="252.254,306.554 244.857,407.803 277.775,407.803 270.379,306.554 "/><rect fill="#52C9D5" height="16.64" width="42.683" x="239.976" y="289.914"/><rect fill="#52C9D5" height="16.64" width="42.683" x="239.976" y="289.914"/><polygon fill="#DDDDDD" points="240.101,318.129 206.822,318.129 212.664,277.477 230.696,248.678 240.101,248.678 "/><polygon fill="#C6C6C6" points="282.533,318.129 315.811,318.129 309.969,277.477 291.938,248.678 282.533,248.678 "/><path d="M261.361,30.2v-0.003c-0.016,0-0.029,0.001-0.045,0.001s-0.029-0.001-0.045-0.001V30.2  c-23.332,0.09-42.231,74.63-42.231,135.282c0,36.209,8.134,100.243,20.256,124.432c0,0,20.469,0,21.975,0c0.053,0,0.086,0,0.09,0  c1.506,0,21.975,0,21.975,0c12.123-24.189,20.258-88.223,20.258-124.432C303.594,104.83,284.693,30.29,261.361,30.2z" fill="#F4F4F4"/><circle cx="261.317" cy="174.222" fill="#52C9D5" r="25.506"/><circle cx="261.316" cy="174.222" fill="#FFFFFF" r="17.57"/><rect fill="#52C9D5" height="16.64" width="42.683" x="239.976" y="289.914"/><path d="M261.316,30.199c-0.016,0-0.029-0.001-0.045-0.001V30.2c-17.46,0.067-32.437,41.827-38.87,88.258h77.829  c-6.432-46.432-21.408-88.191-38.869-88.258v-0.003C261.346,30.197,261.332,30.199,261.316,30.199z" fill="#52C9D5"/><rect fill="#49BAC0" height="16.64" width="21.107" x="261.551" y="289.914"/><path d="M261.551,30.21v259.704c2.533,0,21.785,0,21.785,0c12.123-24.189,20.258-88.223,20.258-124.432  C303.594,104.994,284.795,30.7,261.551,30.21z" fill="#E0E0E0"/><path d="M261.551,148.723v50.999c13.977-0.126,25.271-11.492,25.271-25.5  C286.822,160.214,275.527,148.849,261.551,148.723z" fill="#49BAC0"/><path d="M261.551,156.663v35.117c9.594-0.126,17.336-7.934,17.336-17.559S271.145,156.79,261.551,156.663z" fill="#F4F4F4"/><path d="M261.551,118.458h38.68c-6.41-46.265-21.301-87.885-38.68-88.251V118.458z" fill="#49BAC0"/><circle cx="25.076" cy="450.976" fill="#466C6F" r="9.485"/><circle cx="158.312" cy="326.781" fill="#466C6F" r="18.97"/><circle cx="370.102" cy="466.39" fill="#466C6F" r="9.485"/><circle cx="200.134" cy="390.561" fill="#5AA096" r="12.814"/><circle cx="266.986" cy="412.156" fill="#5AA096" r="6.828"/><circle cx="72.994" cy="409.854" fill="#66B2B2" r="9.485"/><circle cx="459.606" cy="409.232" fill="#66B2B2" r="9.486"/><circle cx="320.383" cy="405.124" fill="#5AA096" r="16.006"/><path d="M445.982,424.892c-2.477,0-4.869,0.353-7.139,0.997c0.01-0.332,0.025-0.662,0.025-0.997  c0-18.99-15.395-34.384-34.385-34.384c-18.988,0-34.383,15.394-34.383,34.384c0,18.989,15.395,34.384,34.383,34.384  c5.699,0,11.068-1.395,15.801-3.848c2.113,12.283,12.811,21.633,25.697,21.633c14.406,0,26.084-11.679,26.084-26.085  S460.389,424.892,445.982,424.892z" fill="#5AA096"/><circle cx="211.224" cy="462.832" fill="#5AA096" r="18.971"/><path d="M164.339,414.839c-7.408-7.408-19.419-7.408-26.828,0c-1.363,1.364-2.471,2.885-3.333,4.503  c-7.359-6.02-17.16-8.981-27.282-7.339c-18.745,3.042-31.474,20.704-28.432,39.448c3.042,18.744,20.703,31.474,39.448,28.432  c16.619-2.697,28.5-16.889,28.863-33.135c6.126,1.368,12.797-0.313,17.564-5.081C171.748,434.259,171.748,422.248,164.339,414.839z" fill="#5AA096"/><polygon fill="#FFD326" points="170.606,118.445 175.799,128.966 187.409,130.653 179.008,138.842 180.991,150.406 170.606,144.946   160.221,150.406 162.205,138.842 153.803,130.653 165.414,128.966 "/><polygon fill="#FFD326" points="479.605,248.445 484.799,258.966 496.408,260.652 488.008,268.842 489.99,280.406 479.605,274.946   469.221,280.406 471.205,268.842 462.803,260.652 474.414,258.966 "/><polygon fill="#FFD326" points="34.606,279.445 39.799,289.966 51.409,291.652 43.008,299.842 44.991,311.406 34.606,305.946   24.221,311.406 26.205,299.842 17.803,291.652 29.414,289.966 "/></svg>