<svg width="326" height="66" viewBox="0 0 326 66" fill="none" xmlns="http://www.w3.org/2000/svg">
<path d="M70.9611 21L37 40.2752L3.03886 21L37 1.72476L70.9611 21Z" stroke="#A1AFC7" stroke-width="3"/>
<path fill-rule="evenodd" clip-rule="evenodd" d="M0 45L37 66L74 45V42L37 63L0 42L0 45Z" fill="#A1AFC7"/>
<path fill-rule="evenodd" clip-rule="evenodd" d="M0 33L37 54L74 33V30L37 51L0 30L0 33Z" fill="#A1AFC7"/>
<path fill-rule="evenodd" clip-rule="evenodd" d="M308.433 35.4521V47H302.524V8.91406H308.433V30.6914H310.898L317.563 20.584H324.546L315.83 32.5957L325.84 47H318.955L311.094 35.4521H308.433ZM241.172 47.2808C240.472 47.4354 239.748 47.5127 238.999 47.5127C236.818 47.5127 235.109 46.8739 233.872 45.5962C232.635 44.3185 232.017 42.3125 232.017 39.5781V24.9785H227.988V20.584H232.017V14.1631H237.925V20.584H242.661V24.9785H237.925V39.5781C237.925 40.6686 238.161 41.4458 238.633 41.9097C239.105 42.3735 239.731 42.6055 240.513 42.6055C240.838 42.6055 241.156 42.577 241.465 42.52C241.774 42.4631 242.067 42.3857 242.344 42.2881L242.979 46.6338C242.474 46.9105 241.872 47.1261 241.172 47.2808ZM166.807 46.6094C165.163 47.2116 163.258 47.5127 161.094 47.5127C157.35 47.5127 154.368 46.2879 152.146 43.8384C149.924 41.3888 148.813 38.2435 148.813 34.4023V33.4258C148.813 29.5846 149.916 26.3986 152.122 23.8677C154.327 21.3368 157.09 20.0794 160.41 20.0957C163.975 20.0957 166.705 21.174 168.601 23.3306C170.497 25.4871 171.445 28.3802 171.445 32.0098V35.501H154.966L154.917 35.623C155.015 37.7227 155.629 39.4398 156.76 40.7744C157.891 42.1091 159.458 42.7764 161.46 42.7764C163.055 42.7764 164.422 42.5811 165.562 42.1904C166.701 41.7998 167.799 41.2383 168.857 40.5059L170.762 44.3877C169.769 45.2666 168.451 46.0072 166.807 46.6094ZM104.16 47.5127C107.92 47.5127 110.874 46.2676 113.022 43.7773C115.187 41.2708 116.27 38.0319 116.27 34.0605V33.5479C116.27 29.609 115.187 26.3864 113.022 23.8799C110.874 21.3571 107.904 20.0957 104.111 20.0957C100.384 20.0957 97.43 21.3571 95.249 23.8799C93.1006 26.4027 92.0264 29.6253 92.0264 33.5479V34.0605C92.0264 38.0156 93.1006 41.2464 95.249 43.7529C97.4137 46.2594 100.384 47.5127 104.16 47.5127ZM104.16 42.7764C102.028 42.7764 100.465 41.9707 99.4727 40.3594C98.4635 38.7318 97.959 36.6322 97.959 34.0605V33.5479C97.959 31.0413 98.4635 28.9661 99.4727 27.3223C100.498 25.6784 102.044 24.8564 104.111 24.8564C106.211 24.8564 107.773 25.6784 108.799 27.3223C109.84 28.9499 110.361 31.0251 110.361 33.5479V34.0605C110.361 36.6322 109.84 38.7318 108.799 40.3594C107.773 41.9707 106.227 42.7764 104.16 42.7764ZM127.378 44.3389V57.1562H121.445V20.584H126.45L127.036 23.9043C127.882 22.6673 128.904 21.7233 130.1 21.0723C131.296 20.4212 132.684 20.0957 134.263 20.0957C137.518 20.0957 140.053 21.3856 141.868 23.9653C143.682 26.5451 144.59 29.9427 144.59 34.1582V34.6709C144.59 38.512 143.687 41.6126 141.88 43.9727C140.073 46.3327 137.559 47.5127 134.336 47.5127C132.839 47.5127 131.512 47.2441 130.356 46.707C129.201 46.1699 128.208 45.3805 127.378 44.3389ZM132.651 42.7764C131.382 42.7764 130.316 42.5282 129.453 42.0317C128.59 41.5353 127.899 40.8232 127.378 39.8955V27.957C127.899 27.013 128.59 26.2765 129.453 25.7476C130.316 25.2186 131.366 24.9541 132.603 24.9541C134.621 24.9541 136.139 25.8127 137.156 27.5298C138.173 29.2469 138.682 31.4564 138.682 34.1582V34.6709C138.682 37.096 138.181 39.0532 137.18 40.5425C136.179 42.0317 134.67 42.7764 132.651 42.7764ZM165.562 31.1553H155.088L155.039 31.0332C155.267 29.2428 155.853 27.7658 156.797 26.6021C157.741 25.4383 158.945 24.8564 160.41 24.8564C162.135 24.8564 163.425 25.3854 164.28 26.4434C165.134 27.5013 165.562 28.8685 165.562 30.5449V31.1553ZM182.114 27.835V47H176.182V20.584H181.602L181.943 24.3926C182.806 23.0417 183.892 21.9878 185.203 21.231C186.513 20.4741 187.99 20.0957 189.634 20.0957C192.384 20.0957 194.529 20.9299 196.067 22.5981C197.605 24.2664 198.374 26.8665 198.374 30.3984V47H192.441V30.4473C192.441 28.4616 192.03 27.0496 191.208 26.2114C190.387 25.3732 189.137 24.9541 187.461 24.9541C186.305 24.9541 185.272 25.2104 184.36 25.7231C183.449 26.2358 182.7 26.9398 182.114 27.835ZM214.536 47.5127C217.743 47.5127 220.326 46.7721 222.288 45.291C224.249 43.8099 225.229 41.8812 225.229 39.5049C225.229 37.3564 224.428 35.6597 222.825 34.4146C221.222 33.1694 218.76 32.2051 215.439 31.5215C213.275 31.0983 211.838 30.6141 211.13 30.0688C210.422 29.5236 210.068 28.7871 210.068 27.8594C210.068 26.9316 210.443 26.1463 211.191 25.5034C211.94 24.8605 213.031 24.5391 214.463 24.5391C215.911 24.5391 217.051 24.9297 217.881 25.7109C218.711 26.4922 219.126 27.4281 219.126 28.5186H224.814L224.863 28.3721C224.945 26.0283 224.037 24.063 222.141 22.4761C220.245 20.8892 217.686 20.0957 214.463 20.0957C211.403 20.0957 208.937 20.877 207.065 22.4395C205.194 24.002 204.258 25.89 204.258 28.1035C204.258 30.2194 205.068 31.8918 206.687 33.1206C208.306 34.3494 210.695 35.2975 213.853 35.9648C215.985 36.4206 217.441 36.9495 218.223 37.5518C219.004 38.154 219.395 38.9108 219.395 39.8223C219.395 40.8151 218.979 41.6045 218.149 42.1904C217.319 42.7764 216.139 43.0693 214.609 43.0693C213.112 43.0693 211.842 42.7194 210.801 42.0195C209.759 41.3197 209.206 40.2048 209.141 38.6748H203.623L203.574 38.8213C203.477 41.0999 204.421 43.1182 206.406 44.876C208.392 46.6338 211.102 47.5127 214.536 47.5127ZM258.97 47.5127C262.729 47.5127 265.684 46.2676 267.832 43.7773C269.997 41.2708 271.079 38.0319 271.079 34.0605V33.5479C271.079 29.609 269.997 26.3864 267.832 23.8799C265.684 21.3571 262.713 20.0957 258.921 20.0957C255.194 20.0957 252.24 21.3571 250.059 23.8799C247.91 26.4027 246.836 29.6253 246.836 33.5479V34.0605C246.836 38.0156 247.91 41.2464 250.059 43.7529C252.223 46.2594 255.194 47.5127 258.97 47.5127ZM254.282 40.3594C255.275 41.9707 256.838 42.7764 258.97 42.7764C261.037 42.7764 262.583 41.9707 263.608 40.3594C264.65 38.7318 265.171 36.6322 265.171 34.0605V33.5479C265.171 31.0251 264.65 28.9499 263.608 27.3223C262.583 25.6784 261.021 24.8564 258.921 24.8564C256.854 24.8564 255.308 25.6784 254.282 27.3223C253.273 28.9661 252.769 31.0413 252.769 33.5479V34.0605C252.769 36.6322 253.273 38.7318 254.282 40.3594ZM287.168 47.5127C290.114 47.5127 292.633 46.6175 294.724 44.8271C296.816 43.0368 297.821 40.9046 297.739 38.4307L297.69 38.2842H292.319C292.319 39.57 291.823 40.6401 290.83 41.4946C289.837 42.3491 288.617 42.7764 287.168 42.7764C284.938 42.7764 283.359 41.9748 282.432 40.3716C281.504 38.7684 281.04 36.7217 281.04 34.2314V33.377C281.04 30.9355 281.504 28.9051 282.432 27.2856C283.359 25.6662 284.938 24.8564 287.168 24.8564C288.698 24.8564 289.939 25.361 290.891 26.3701C291.843 27.3792 292.319 28.6081 292.319 30.0566H297.715L297.764 29.9102C297.829 27.0618 296.873 24.714 294.895 22.8667C292.917 21.0194 290.342 20.0957 287.168 20.0957C283.278 20.0957 280.295 21.353 278.22 23.8677C276.145 26.3823 275.107 29.5521 275.107 33.377V34.2314C275.107 38.0726 276.145 41.2464 278.22 43.7529C280.295 46.2594 283.278 47.5127 287.168 47.5127Z" fill="#A1AFC7"/>
</svg>
