<?xml version="1.0" encoding="UTF-8"?>
<svg width="53px" height="55px" viewBox="0 0 53 55" version="1.1" xmlns="http://www.w3.org/2000/svg" xmlns:xlink="http://www.w3.org/1999/xlink">
    <title>iconMessenger</title>
    <g id="Page-1" stroke="none" stroke-width="1" fill="none" fill-rule="evenodd">
        <g id="Artboard" transform="translate(-908.000000, -53.000000)" fill-rule="nonzero">
            <g id="iconMessenger" transform="translate(908.000000, 53.000000)">
                <path d="M13,10.96 L13,4.24 C13,3.008 14.0028571,2 15.2285714,2 L49.7714286,2 C50.9971429,2 52,3.008 52,4.24 L52,27.76 C52,28.992 50.9971429,30 49.7714286,30 L45.3142857,30 L13,10.96 Z" id="Path" fill="#0DD680"></path>
                <path d="M1,13.3243243 C1,12.0412973 2.01087179,11 3.25641026,11 L42.7435897,11 C43.9891282,11 45,12.0412973 45,13.3243243 L45,42.3783784 C45,43.6614054 43.9891282,44.7027027 42.7435897,44.7027027 L29.7692308,44.7027027 L21.3076923,54 L21.3076923,44.7027027 L3.25641026,44.7027027 C2.01087179,44.7027027 1,43.6614054 1,42.3783784 L1,13.3243243 Z" id="Path" fill="#2B2D42"></path>
                <path d="M7.53846154,40.9310345 L7.53846154,15.0689655 C7.53846154,13.9268966 8.64123077,13 10,13 L4.46153846,13 C3.10276923,13 2,13.9268966 2,15.0689655 L2,40.9310345 C2,42.0731034 3.10276923,43 4.46153846,43 L10,43 C8.64123077,43 7.53846154,42.0731034 7.53846154,40.9310345 Z" id="Path" fill="#1A1829"></path>
                <path d="M17.5384615,5.21184566 C17.5384615,3.99533055 18.6461538,3 20,3 L14.4615385,3 C13.1076923,3 12,3.99533055 12,5.21184566 L12,11.8473826 L17.5384615,12 L17.5384615,5.21184566 Z" id="Path" fill="#0BB36B"></path>
                <path d="M21.8214286,55 C21.6132857,55 21.4029048,54.9609 21.2059524,54.8781 C20.563619,54.6182 20.1428571,53.9834 20.1428571,53.275 L20.1428571,45.8 L3.91666667,45.8 C1.75690476,45.8 0,43.9945 0,41.775 L0,13.025 C0,10.8055 1.75690476,9 3.91666667,9 L43.0833333,9 C45.2430952,9 47,10.8055 47,13.025 L47,41.775 C47,43.9945 45.2430952,45.8 43.0833333,45.8 L30.9416667,45.8 L23.0456667,54.4549 C22.7211429,54.8091 22.2757619,55 21.8214286,55 L21.8214286,55 Z M3.91666667,12.45 C3.60780952,12.45 3.35714286,12.7076 3.35714286,13.025 L3.35714286,41.775 C3.35714286,42.0924 3.60780952,42.35 3.91666667,42.35 L21.8214286,42.35 C22.748,42.35 23.5,43.1228 23.5,44.075 L23.5,48.9142 L28.9900476,42.8951 C29.3078571,42.5478 29.751,42.35 30.2142857,42.35 L43.0833333,42.35 C43.3921905,42.35 43.6428571,42.0924 43.6428571,41.775 L43.6428571,13.025 C43.6428571,12.7076 43.3921905,12.45 43.0833333,12.45 L3.91666667,12.45 Z" id="Shape" fill="#FAFBFC"></path>
                <path d="M49.0394737,31 L44.5131579,31 L44.5131579,27.6785714 L49.0394737,27.6785714 C49.3472632,27.6785714 49.6052632,27.4261429 49.6052632,27.125 L49.6052632,3.875 C49.6052632,3.57385714 49.3472632,3.32142857 49.0394737,3.32142857 L13.9605263,3.32142857 C13.6527368,3.32142857 13.3947368,3.57385714 13.3947368,3.875 L13.3947368,10.5178571 L10,10.5178571 L10,3.875 C10,1.73821429 11.7765789,0 13.9605263,0 L49.0394737,0 C51.2234211,0 53,1.73821429 53,3.875 L53,27.125 C53,29.2617857 51.2234211,31 49.0394737,31 Z" id="Path" fill="#FAFBFC"></path>
            </g>
        </g>
    </g>
</svg>