<?xml version="1.0" encoding="UTF-8"?>
<svg width="53px" height="54px" viewBox="0 0 53 54" version="1.1" xmlns="http://www.w3.org/2000/svg" xmlns:xlink="http://www.w3.org/1999/xlink">
    <title>iconNavigation</title>
    <g id="Page-1" stroke="none" stroke-width="1" fill="none" fill-rule="evenodd">
        <g id="Artboard" transform="translate(-1144.000000, -48.000000)" fill-rule="nonzero">
            <g id="iconNavigation" transform="translate(1144.000000, 48.000000)">
                <path d="M9.98978857,8 C7.7041007,8 5.79566229,9.77721519 5.57375084,12.1012658 L2.02316774,47.9873418 C1.75687401,50.6759494 3.82065043,53 6.43920547,53 L26.5221911,53 L46.5607945,53 C49.1793496,53 51.243126,50.6759494 50.9768323,47.9873418 L47.4262492,12.1012658 C47.2043377,9.77721519 45.2958993,8 43.0102114,8 L9.98978857,8 Z" id="Path" fill="#2B2D42"></path>
                <path d="M36,11.7502826 C36,19.7779324 26.5,28 26.5,28 C26.5,28 17,19.780193 17,11.7502826 C17,6.36535953 21.2537647,2 26.5,2 C31.7462353,2 36,6.36535953 36,11.7502826 Z" id="Path" fill="#0DD680"></path>
                <circle id="Oval" fill="#F3F3F1" cx="26" cy="12" r="3"></circle>
                <path d="M22.0232558,11.7502826 C22.0232558,7.26510738 24.988093,3.52821494 29,2.39109643 C28.1940465,2.16050778 27.3635349,2 26.4883721,2 C21.2485581,2 17,6.36535953 17,11.7502826 C17,19.7779324 26.4883721,28 26.4883721,28 C26.4883721,28 27.5733953,27.052778 29,25.5087384 C26.1892093,22.4681332 22.0232558,17.0741675 22.0232558,11.7502826 Z" id="Path" fill="#0BB36B"></path>
                <path d="M6.02282233,48.2130231 L9.57811043,12.9218838 C10.0375401,7.77454202 9.80031593,7 7.54471428,10.3778965 C5.28911263,13.755793 4.80069204,11.7011243 4.57848654,13.9218838 L1.02319844,48.2130231 C0.756551832,50.782137 2.82306304,53.0028965 5.44508801,53.0028965 L10.4447119,53.0028965 C7.82268693,53.0028965 5.75617572,50.782137 6.02282233,48.2130231 Z" id="Path" fill="#1A1829"></path>
                <path d="M29.6315789,11.5 C29.6315789,10.968 29.776,10.478 30,10.0272 C29.4105263,8.8372 28.1578947,8 26.6842105,8 C24.6505263,8 23,9.568 23,11.5 C23,13.432 24.6505263,15 26.6842105,15 C28.1578947,15 29.4105263,14.1628 30,12.9728 C29.776,12.522 29.6315789,12.032 29.6315789,11.5 Z" id="Path" fill="#2B2D42"></path>
                <path d="M26.5,29 C26.0998,29 25.6996,28.8661538 25.3799,28.5984615 C24.9544,28.246 15,19.8873077 15,11.2943846 C15,5.06607692 20.1589,0 26.5,0 C32.8411,0 38,5.06607692 38,11.2943846 C38,19.8895385 28.0456,28.2482308 27.6201,28.5984615 C27.3004,28.8661538 26.9002,29 26.5,29 L26.5,29 Z M26.5,2.73966866 C21.8128571,2.73966866 18,6.5037107 18,11.1322105 C18,16.9784885 23.916,23.2063528 26.5,25.6513313 C29.084,23.2087083 35,16.9784885 35,11.1322105 C35,6.5037107 31.1871429,2.73966866 26.5,2.73966866 Z" id="Shape" fill="#FAFBFC"></path>
                <path d="M26.5,16 C24.01825,16 22,13.98175 22,11.5 C22,9.01825 24.01825,7 26.5,7 C28.98175,7 31,9.01825 31,11.5 C31,13.98175 28.98175,16 26.5,16 Z M26.5,9 C25.125,9 24,10.12 24,11.5 C24,12.88 25.125,14 26.5,14 C27.875,14 29,12.88 29,11.5 C29,10.12 27.875,9 26.5,9 Z" id="Shape" fill="#FAFBFC"></path>
                <path d="M46.8191074,54 L6.18097723,54 C4.4367743,54 2.76224958,53.2679059 1.59120612,51.9917176 C0.422410336,50.7177412 -0.144006079,49.0102588 0.0313132873,47.3049882 L3.62985568,12.4719059 C3.93778841,9.35552941 6.58106502,7 9.77727193,7 L9.77727193,10.3176471 C8.32526795,10.3176471 7.12275691,11.3837176 6.98340049,12.8014588 L3.3848581,47.6456 C3.30394147,48.4285647 3.5556821,49.1827765 4.09287862,49.7688941 C4.63457051,50.3572235 5.37630629,50.6823529 6.18097723,50.6823529 L46.8191074,50.6823529 C47.6237783,50.6823529 48.3655141,50.3572235 48.907206,49.7688941 C49.4444025,49.1827765 49.6983908,48.4285647 49.6152265,47.6433882 L46.0166841,12.8058824 C45.87508,11.3859294 44.6748167,10.3176471 43.2228127,10.3176471 L43.2228127,7 C46.4190196,7 49.0622962,9.35552941 49.3702289,12.4785412 L52.9687713,47.3049882 C53.1440907,49.0124706 52.5754266,50.7199529 51.4088785,51.9939294 C50.237835,53.2679059 48.5633103,54 46.8191074,54 Z" id="Path" fill="#FAFBFC"></path>
                <polygon id="Path" fill="#FAFBFC" transform="translate(11.112914, 31.407175) rotate(-0.057296) translate(-11.112914, -31.407175) " points="3.62045169 29.715608 18.6054055 29.7154811 18.6053771 33.0987426 3.62042327 33.0988696"></polygon>
                <path d="M20.7709497,54 L18,52.0447832 L32.5429877,30.7615055 C32.8578684,30.2995712 33.3751723,30.022868 33.9262135,30.022868 L48.9955017,30 L49,33.4302049 L34.8101284,33.4530729 L20.7709497,54 Z" id="Path" fill="#FAFBFC"></path>
            </g>
        </g>
    </g>
</svg>