<?xml version="1.0" encoding="UTF-8"?>
<svg width="52px" height="48px" viewBox="0 0 52 48" version="1.1" xmlns="http://www.w3.org/2000/svg" xmlns:xlink="http://www.w3.org/1999/xlink">
    <title>Group</title>
    <defs>
        <path d="M8,0.3 C3.754,0.3 0.3,3.754 0.3,8 C0.3,12.246 3.754,15.7 8,15.7 C12.246,15.7 15.7,12.246 15.7,8 C15.7,3.754 12.246,0.3 8,0.3 Z" id="path-1"></path>
    </defs>
    <g id="Page-1" stroke="none" stroke-width="1" fill="none" fill-rule="evenodd">
        <g id="Group" transform="translate(1.000000, 1.000000)">
            <path d="M43.8222222,44 L5.17777778,44 C2.86955555,44 1,42.0520588 1,39.6470588 L1,7 L48,7 L48,39.6470588 C48,42.0520588 46.1304445,44 43.8222222,44 Z" id="Path" fill="#2B2D42" fill-rule="nonzero"></path>
            <path d="M49,8 L0,8 L0,4.57142857 C0,2.04571429 1.94911111,0 4.35555556,0 L44.6444444,0 C47.0508889,0 49,2.04571429 49,4.57142857 L49,8 Z" id="Path" fill="#0DD680" fill-rule="nonzero"></path>
            <path d="M10,0 L5.23529412,0 C2.89529412,0 1,2.04571429 1,4.57142857 L1,8 L5.76470588,8 L5.76470588,4.57142857 C5.76470588,2.04571429 7.66,0 10,0 Z" id="Path" fill="#0BB36B" fill-rule="nonzero"></path>
            <path d="M5.76470588,39.6470588 L5.76470588,7 L1,7 L1,39.6470588 C1,42.0520588 2.89529412,44 5.23529412,44 L10,44 C7.66,44 5.76470588,42.0520588 5.76470588,39.6470588 Z" id="Path" fill="#1A1829" fill-rule="nonzero"></path>
            <path d="M44.65625,1 L5.34375,1 C4.1465738,1 3.06209976,1.49020374 2.27650044,2.28000412 C1.48801112,3.07270996 1,4.16737869 1,5.375 L1,40.625 C1,41.8326213 1.48801112,42.92729 2.27650044,43.7199959 C3.06209976,44.5097963 4.1465738,45 5.34375,45 L44.65625,45 C45.8534262,45 46.9379002,44.5097963 47.7234996,43.7199959 C48.5119889,42.92729 49,41.8326213 49,40.625 L49,5.375 C49,4.16737869 48.5119889,3.07270996 47.7234996,2.28000412 C46.9379002,1.49020374 45.8534262,1 44.65625,1 Z" id="Path" stroke="#FAFBFC" stroke-width="3"></path>
            <polygon id="Path" fill="#FAFBFC" fill-rule="nonzero" points="0 7 49 7 49 9 0 9"></polygon>
            <path d="M31.9951951,16.5 C28.5495951,16.5 25.4245412,17.9060851 23.1613091,20.1782924 C20.9002236,22.4483445 19.5,25.5825304 19.5,29.0387981 C19.5,32.4950657 20.9002236,35.6292516 23.1613091,37.8993037 C25.4245412,40.171511 28.5495951,41.5775961 31.9951951,41.5775961 C34.5726698,41.5775961 36.9706411,40.7907001 38.962809,39.4431746 L45.68104,46.1137518 L50.1290268,41.6978075 L43.1220854,34.7412943 C43.9964802,33.0296402 44.4903902,31.0910596 44.4903902,29.0387981 C44.4903902,25.5825304 43.0901666,22.4483445 40.8290811,20.1782924 C38.565849,17.9060851 35.4407951,16.5 31.9951951,16.5 Z" id="Combined-Shape" stroke="#2B2D42" stroke-width="3" fill="#FAFBFC" fill-rule="nonzero" stroke-linejoin="round"></path>
            <g id="Oval-+-Path-Mask" transform="translate(24.000000, 21.000000)">
                <mask id="mask-2" fill="white">
                    <use xlink:href="#path-1"></use>
                </mask>
                <use id="Mask" fill="#FAFBFC" fill-rule="nonzero" xlink:href="#path-1"></use>
                <ellipse id="Oval" fill="#0DD680" fill-rule="nonzero" mask="url(#mask-2)" cx="8.5" cy="8" rx="9.5" ry="9"></ellipse>
                <path d="M4.0232558,8 C4.0232558,3.86 6.988093,0.4082353 11,-0.64 C10.1940465,-0.8496471 9.3635349,-1 8.4883721,-1 C3.2485581,-1 -1,3.0298824 -1,8 C-1,12.9701176 3.2485581,17 8.4883721,17 C9.3635349,17 10.1940465,16.8517647 11,16.64 C6.988093,15.5917647 4.0232558,12.14 4.0232558,8 Z" id="Path" fill="#0BB36B" fill-rule="nonzero" mask="url(#mask-2)"></path>
            </g>
        </g>
    </g>
</svg>