<?xml version="1.0" encoding="UTF-8" standalone="no"?>
<svg
   xmlns:dc="http://purl.org/dc/elements/1.1/"
   xmlns:cc="http://creativecommons.org/ns#"
   xmlns:rdf="http://www.w3.org/1999/02/22-rdf-syntax-ns#"
   xmlns:svg="http://www.w3.org/2000/svg"
   xmlns="http://www.w3.org/2000/svg"
   xmlns:sodipodi="http://sodipodi.sourceforge.net/DTD/sodipodi-0.dtd"
   xmlns:inkscape="http://www.inkscape.org/namespaces/inkscape"
   inkscape:version="1.0 (4035a4f, 2020-05-01)"
   height="33.00005"
   width="33"
   sodipodi:docname="search.svg"
   xml:space="preserve"
   viewBox="0 0 33 33.00005"
   y="0px"
   x="0px"
   id="Layer_1"
   version="1.1">
   
         <defs
   id="defs867" /><sodipodi:namedview
  
   
   showgrid="false"
   id="namedview865"
   
   guidetolerance="10"
   gridtolerance="10"
   objecttolerance="10"
   borderopacity="1"
   bordercolor="#666666"
   pagecolor="#ffffff" />
<path
   style="fill:#7485a3;fill-opacity:1;stroke-width:0.1"
   d="M 32.560649,30.439446 22.332934,20.211731 c 1.670602,-2.125604 2.668204,-4.804008 2.668204,-7.711112 C 25.001138,5.6077085 19.393429,0 12.500519,0 5.6077085,0 0,5.6077085 0,12.500519 c 0,6.89281 5.6077085,12.500519 12.500519,12.500519 2.907004,0 5.585508,-0.997502 7.711112,-2.668104 l 10.227815,10.227715 c 0.292801,0.293001 0.676701,0.439401 1.060602,0.439401 0.3839,0 0.767801,-0.1464 1.060601,-0.439401 0.585801,-0.585701 0.585801,-1.535502 0,-2.121203 z M 3.0000045,12.500519 c 0,-5.238608 4.2619065,-9.5005145 9.5005145,-9.5005145 5.238608,0 9.500614,4.2619065 9.500614,9.5005145 0,5.238608 -4.262006,9.500514 -9.500614,9.500514 -5.238608,0 -9.5005145,-4.261906 -9.5005145,-9.500514 z"
   id="XMLID_22_" />
<g
   id="g834">
</g>
<g
   id="g836">
</g>
<g
   id="g838">
</g>
<g
   id="g840">
</g>
<g
   id="g842">
</g>
<g
   id="g844">
</g>
<g
   id="g846">
</g>
<g
   id="g848">
</g>
<g
   id="g850">
</g>
<g
   id="g852">
</g>
<g
   id="g854">
</g>
<g
   id="g856">
</g>
<g
   id="g858">
</g>
<g
   id="g860">
</g>
<g
   id="g862">
</g>
</svg>
