<?xml version="1.0" encoding="UTF-8" standalone="no"?>
<svg xmlns="http://www.w3.org/2000/svg" version="1.1" width="48" viewBox="0 0 48 57.598801" height="57.598801" enable-background="new 0 0 36 36">
  <g transform="matrix(2.4,0,0,2.4,-19.2,-14.4012)" />
  <g transform="matrix(2.4,0,0,2.4,-19.2,-14.4012)">
    <g />
    <g>
      <path style="fill:#aea8d3;fill-opacity:1" fill="#2fdf84" d="m 18,14.857 -0.746,-0.789 c -1.03,-1.09 -2.701,-1.09 -3.731,0 -1.03,1.09 -1.03,2.857 0,3.947 L 18,22.75 22.477,18.014 c 1.03,-1.09 1.03,-2.857 0,-3.947 -1.03,-1.09 -2.701,-1.09 -3.731,0 z" />
    </g>
  </g>
  <g transform="matrix(2.4,0,0,2.4,-19.2,-14.4012)">
    <g>
      <path style="fill:#232536;fill-opacity:1" fill="#d5dbe1" d="m 11,18.175 c 0,-4.821 0,-8.001 0,-8.001 L 19.125,7.167 18,6.75 8.75,10.174 v 8.001 c 0,8.629 9.25,11.075 9.25,11.075 0,0 0.447,-0.124 1.125,-0.39 C 16.668,27.894 11,24.939 11,18.175 Z" />
    </g>
    <g>
      <g>
        <path fill="#00b871" d="m 19.504,14.067 0.746,0.789 0.746,-0.789 c 0.22,-0.233 0.474,-0.406 0.741,-0.539 -0.837,-0.419 -1.833,-0.352 -2.612,0.212 0.133,0.096 0.261,0.203 0.379,0.327 z" />
      </g>
      <g>
        <path fill="#00b871" d="m 15.773,18.014 c -1.03,-1.09 -1.03,-2.857 0,-3.947 0.22,-0.233 0.474,-0.406 0.741,-0.539 -0.979,-0.49 -2.181,-0.317 -2.991,0.539 -1.03,1.09 -1.03,2.857 0,3.947 L 18,22.75 19.125,21.56 Z" />
      </g>
    </g>
  </g>
  <g transform="matrix(2.4,0,0,2.4,-19.2,-14.4012)">
    <g style="fill:#a1afc7;fill-opacity:1">
      <g style="fill:#a1afc7;fill-opacity:1">
        <path style="fill:#a1afc7;fill-opacity:1" d="M 18,30 C 17.936,30 17.871,29.991 17.808,29.975 17.71,29.949 8,27.277 8,18.175 V 10.174 C 8,9.86 8.195,9.579 8.49,9.471 l 9.25,-3.424 c 0.168,-0.062 0.353,-0.062 0.521,0 l 9.25,3.424 C 27.805,9.579 28,9.86 28,10.174 v 8.001 c 0,9.103 -9.71,11.774 -9.808,11.8 C 18.129,29.991 18.064,30 18,30 Z M 9.5,10.696 v 7.479 c 0,7.298 7.232,9.895 8.503,10.294 1.32,-0.402 8.497,-2.93 8.497,-10.294 V 10.696 L 18,7.55 Z" />
      </g>
    </g>
    <g style="fill:#aea8d3;fill-opacity:1">
      <g style="fill:#aea8d3;fill-opacity:1">
        <path style="fill:#cecae4;fill-opacity:1" d="m 18,23.5 c -0.206,0 -0.403,-0.085 -0.545,-0.234 L 12.978,18.53 c -1.298,-1.372 -1.298,-3.605 0,-4.978 1.282,-1.355 3.538,-1.355 4.821,0 L 18,13.765 18.201,13.552 c 1.282,-1.355 3.538,-1.355 4.821,0 1.298,1.372 1.298,3.605 0,4.978 l -4.477,4.736 C 18.403,23.415 18.206,23.5 18,23.5 Z M 15.389,14 c -0.497,0 -0.965,0.207 -1.321,0.583 -0.76,0.804 -0.76,2.111 0,2.915 l 3.932,4.16 3.932,-4.16 c 0.76,-0.804 0.76,-2.111 0,-2.915 -0.71,-0.752 -1.93,-0.752 -2.641,0 l -0.746,0.789 c -0.283,0.299 -0.807,0.299 -1.09,0 L 16.709,14.583 C 16.354,14.207 15.885,14 15.389,14 Z" />
      </g>
    </g>
  </g>
</svg>
