<?xml version="1.0" encoding="UTF-8"?>
<svg width="350px" height="351px" viewBox="0 0 350 351" version="1.1" xmlns="http://www.w3.org/2000/svg" xmlns:xlink="http://www.w3.org/1999/xlink">
    <title>Group</title>
    <g id="Page-1" stroke="none" stroke-width="1" fill="none" fill-rule="evenodd">
        <g id="Group" transform="translate(0.000100, 0.673400)" fill="#EDF2F4">
            <path d="M-3.55271368e-15,0 L33.059,0 L33.059,8.032 L9.546,8.032 L9.546,341.163 L32.974,341.163 C33.197,344.121 33.396,346.751 33.594,349.381 L-3.55271368e-15,349.381 L-3.55271368e-15,0 Z" id="Fill-4"></path>
            <path d="M315.7876,349.3809 C315.9696,346.8389 316.1506,344.2969 316.3576,341.3929 L339.8886,341.3929 L339.8886,8.2309 L316.3696,8.2309 L316.3696,0.1809 L349.3826,0.1809 L349.3826,349.3809 L315.7876,349.3809 Z" id="Fill-7"></path>
            <path d="M186.8702,130.6837 C192.3452,123.4387 198.3552,117.4477 206.2502,114.1837 C222.8602,107.3167 239.2692,108.6477 254.3862,118.1807 C265.5252,125.2037 269.6992,136.8747 269.9112,149.3927 C270.4062,178.4927 270.1522,207.6037 270.1902,236.7107 C270.1912,237.1397 270.0552,237.5687 269.9502,238.1947 L235.8332,238.1947 C235.8332,236.7327 235.8352,235.4197 235.8322,234.1087 C235.7952,210.2627 235.8812,186.4157 235.6182,162.5727 C235.5652,157.7337 234.7012,152.7577 233.3062,148.1167 C231.6922,142.7467 227.4702,139.5587 221.9752,138.1747 C206.5102,134.2807 194.5972,142.4407 192.8282,158.2857 C192.3582,162.4997 192.0972,166.7597 192.0812,170.9997 C192.0072,191.9357 192.0482,212.8717 192.0482,233.8067 L192.0482,238.1107 L157.7202,238.1107 C157.6682,236.9447 157.5612,235.6527 157.5612,234.3607 C157.5512,211.4097 157.5642,188.4587 157.5402,165.5077 C157.5372,162.4907 157.4422,159.4687 157.2462,156.4577 C156.2332,140.8467 146.4742,135.3887 132.4352,138.0817 C122.2482,140.0367 115.3772,148.5657 114.2532,159.5787 C114.0152,161.9107 113.9072,164.2667 113.9052,166.6127 C113.8792,189.1157 113.8892,211.6187 113.8892,234.1207 L113.8892,238.2347 L79.6962,238.2347 L79.6962,113.7267 L111.8752,113.7267 L111.8752,129.4307 C121.9752,117.2597 134.2932,110.0297 150.1662,110.2427 C165.7572,110.4507 179.4732,114.5327 186.8702,130.6837" id="Fill-10"></path>
        </g>
    </g>
</svg>