<?xml version="1.0" encoding="UTF-8"?>
<svg width="128px" height="128px" viewBox="0 0 128 128" version="1.1" xmlns="http://www.w3.org/2000/svg" xmlns:xlink="http://www.w3.org/1999/xlink">
    <title>Artboard</title>
    <defs>
        <path d="M0.447,12.749 C0.003,19.491 -0.423,31.641 5.13,44.577 L5.13,44.577 C10.682,57.51 18.372,61.236 25.828,61.738 L25.828,61.738 C31.521,62.121 34.485,58.513 36.631,55.587 L36.631,55.587 C38.774,52.662 43.688,52.794 44.822,44.76 L44.822,44.76 C45.957,36.727 42.447,28.371 34.405,19.008 L34.405,19.008 C26.362,9.646 3.23,1.941 2.052,0.566 L2.052,0.566 C2.052,0.566 0.891,6.009 0.447,12.749" id="path-1"></path>
        <linearGradient x1="19.6713213%" y1="45.4420323%" x2="78.2206505%" y2="59.0661174%" id="linearGradient-3">
            <stop stop-color="#89C342" offset="0%"></stop>
            <stop stop-color="#74B844" offset="100%"></stop>
        </linearGradient>
        <polygon id="path-4" points="33.819 54.214 35.416 52.429 0.772 0.784"></polygon>
        <linearGradient x1="24.1768166%" y1="43.4670374%" x2="75.4108583%" y2="56.9329633%" id="linearGradient-6">
            <stop stop-color="#74B844" offset="0%"></stop>
            <stop stop-color="#499534" offset="100%"></stop>
        </linearGradient>
        <polygon id="path-7" points="0 0.151247326 128 0.151247326 128 42.729 0 42.729"></polygon>
        <path d="M11.957,40.004 C0.949,57.758 -2.191,71.738 1.8,84.878 L1.8,84.878 C5.791,98.017 13.418,97.426 17.766,101.759 L17.766,101.759 C22.115,106.093 28.014,111.353 37.437,109.23 L37.437,109.23 C49.776,106.448 61.665,98.212 67.579,75.134 L67.579,75.134 C73.493,52.055 69.616,31.846 67.117,20.688 L67.117,20.688 C64.617,9.529 61.253,0.729 61.253,0.729 L61.253,0.729 C59.645,3.337 22.966,22.25 11.957,40.004" id="path-9"></path>
        <linearGradient x1="74.3971756%" y1="41.5339139%" x2="27.5458236%" y2="65.7909271%" id="linearGradient-11">
            <stop stop-color="#C1E970" offset="0%"></stop>
            <stop stop-color="#ACDA54" offset="100%"></stop>
        </linearGradient>
        <polygon id="path-12" points="0.152 96.025 2.762 98.647 44.629 0.627"></polygon>
        <linearGradient x1="66.1522177%" y1="38.5163924%" x2="34.3357739%" y2="62.0173132%" id="linearGradient-14">
            <stop stop-color="#ACDA54" offset="0%"></stop>
            <stop stop-color="#89C342" offset="100%"></stop>
        </linearGradient>
    </defs>
    <g id="Artboard" stroke="none" stroke-width="1" fill="none" fill-rule="evenodd">
        <polygon id="Fill-1" fill="#ECECEC" points="0 128 128 128 128 0 0 0"></polygon>
        <g id="Group-4" transform="translate(12.000000, 61.271000)">
            <mask id="mask-2" fill="white">
                <use xlink:href="#path-1"></use>
            </mask>
            <g id="Clip-3"></g>
            <path d="M0.447,12.749 C0.003,19.491 -0.423,31.641 5.13,44.577 L5.13,44.577 C10.682,57.51 18.372,61.236 25.828,61.738 L25.828,61.738 C31.521,62.121 34.485,58.513 36.631,55.587 L36.631,55.587 C38.774,52.662 43.688,52.794 44.822,44.76 L44.822,44.76 C45.957,36.727 42.447,28.371 34.405,19.008 L34.405,19.008 C26.362,9.646 3.23,1.941 2.052,0.566 L2.052,0.566 C2.052,0.566 0.891,6.009 0.447,12.749" id="Fill-2" fill="url(#linearGradient-3)" mask="url(#mask-2)"></path>
        </g>
        <g id="Group-7" transform="translate(14.000000, 63.271000)">
            <mask id="mask-5" fill="white">
                <use xlink:href="#path-4"></use>
            </mask>
            <g id="Clip-6"></g>
            <polygon id="Fill-5" fill="url(#linearGradient-6)" mask="url(#mask-5)" points="33.819 54.214 35.416 52.429 0.772 0.784"></polygon>
        </g>
        <g id="Group-10" transform="translate(0.000000, 85.271000)">
            <mask id="mask-8" fill="white">
                <use xlink:href="#path-7"></use>
            </mask>
            <g id="Clip-9"></g>
            <path d="M-118,50.5652 C-117.892,49.8032 -117.783,49.0412 -117.674,48.2782 C-108.435,43.3552 -96.925,41.4582 -87.558,36.7052 C-84.748,37.9682 -83.499,36.1452 -80.502,36.3112 C-79.414,37.2932 -81.87,38.6022 -78.934,38.4012 C-72.26,39.2842 -65.764,38.0442 -59.203,37.4802 C-52.285,36.8862 -45.41,37.5482 -38.623,37.1482 C-36.452,37.0192 -33.114,34.0202 -30.457,35.5112 C-29.253,37.6872 -34.376,37.8772 -33.002,40.2812 C-19.418,43.4742 14.564,56.9892 20.376,42.2912 C20.456,43.1842 19.362,44.9592 20.965,44.7082 C32.423,39.5792 51.887,28.5112 55.314,25.6112 C59.083,22.4232 64.104,22.5232 69.026,21.3922 C77.9,19.3522 87.363,17.2702 95.044,12.8022 C99.792,16.0972 109.726,17.7392 115.038,16.5852 C120.583,15.3802 129.183,6.1802 133.785,2.9242 C135.593,1.6452 138.246,-0.8378 140.187,0.5712 C138.881,1.4682 140.421,4.0902 138.816,3.6422 C137.978,2.0392 136.31,3.8872 135.091,3.5782 C130.458,7.3792 125.64,10.9392 120.917,14.6242 C118.714,15.9742 123.046,17.3782 120.46,17.8252 C108.257,20.2492 89.673,14.1722 81.98,22.6052 C69.792,26.7742 58.261,27.8342 46.246,34.3122 C39.344,38.0342 30.896,44.8052 23.71,48.3652 C22.493,48.9692 20.707,49.1822 19.268,50.0652 C17.515,51.1412 17.087,52.4922 15.61,52.8122 C11.929,53.6042 4.323,51.6822 -0.463,50.9872 C-16.432,48.6652 -33.483,42.1562 -48.552,41.3322 C-54.511,41.0062 -61.546,41.9502 -68.283,42.2522 C-82.602,42.8972 -91.558,43.2382 -103.04,47.0972 C-107.734,48.6762 -114.956,52.8622 -118,50.5652" id="Fill-8" fill="#6F6F6E" mask="url(#mask-8)"></path>
        </g>
        <g id="Group-13" transform="translate(42.000000, 10.271000)">
            <mask id="mask-10" fill="white">
                <use xlink:href="#path-9"></use>
            </mask>
            <g id="Clip-12"></g>
            <path d="M11.957,40.004 C0.949,57.758 -2.191,71.738 1.8,84.878 L1.8,84.878 C5.791,98.017 13.418,97.426 17.766,101.759 L17.766,101.759 C22.115,106.093 28.014,111.353 37.437,109.23 L37.437,109.23 C49.776,106.448 61.665,98.212 67.579,75.134 L67.579,75.134 C73.493,52.055 69.616,31.846 67.117,20.688 L67.117,20.688 C64.617,9.529 61.253,0.729 61.253,0.729 L61.253,0.729 C59.645,3.337 22.966,22.25 11.957,40.004" id="Fill-11" fill="url(#linearGradient-11)" mask="url(#mask-10)"></path>
        </g>
        <g id="Group-16" transform="translate(58.000000, 14.271000)">
            <mask id="mask-13" fill="white">
                <use xlink:href="#path-12"></use>
            </mask>
            <g id="Clip-15"></g>
            <polygon id="Fill-14" fill="url(#linearGradient-14)" mask="url(#mask-13)" points="0.152 96.025 2.762 98.647 44.629 0.627"></polygon>
        </g>
    </g>
</svg>