<?xml version="1.0" encoding="UTF-8"?>
<svg width="361px" height="361px" viewBox="0 0 361 361" version="1.1" xmlns="http://www.w3.org/2000/svg" xmlns:xlink="http://www.w3.org/1999/xlink">
    <title>Group 36</title>
    <g id="Page-1" stroke="none" stroke-width="1" fill="none" fill-rule="evenodd">
        <g id="Group-36">
            <path d="M94.56465,75.144341 C83.38265,90.2950155 75.27715,107.036371 70.14065,125.26097 C69.91165,126.072604 69.63865,126.870999 69.38615,127.675505 C67.07265,136.90848 65.47115,146.267732 64.60665,155.755298 C64.51565,156.759402 64.57315,157.777255 64.56165,158.788488 C64.18715,161.660268 63.81265,164.531029 63.43765,167.40179 C63.26565,167.864636 63.06765,168.319843 62.92515,168.792363 C56.03565,191.689205 27.64565,199.018353 10.80065,182.311622 C6.57865,178.124119 4.09615,172.994632 2.09365,167.514319 C1.81365,165.265268 1.53365,163.016725 1.25415,160.766655 C2.27565,143.877638 6.48165,127.742717 12.54315,112.078279 C23.77115,83.0621023 41.44415,58.8800882 65.40915,39.4650246 C66.05565,38.9415868 66.75565,38.4863792 67.43165,38.0001115 C75.47415,31.2911454 84.26715,25.7532951 93.43565,20.8178057 C98.30815,18.1945063 103.18315,15.5584773 108.43565,13.7641242 L108.539776,14.1248877 C108.507369,14.0043674 108.472654,13.8840672 108.4355,13.7639715 C118.2475,9.34937401 128.5075,6.38848771 138.9665,4.10939449 C147.973,2.14650254 157.0845,0.932106356 166.288,0.45856822 C166.84,0.430054096 167.473,0.598592938 167.8775,0.000305508475 L191.35385,0.000101836158 C194.03635,0.969072881 196.87135,0.702262147 199.62985,0.979256497 C220.46085,3.0679161 240.37985,8.53244435 259.38085,17.4639846 C259.75785,17.6416887 260.40885,17.6462713 260.40885,18.3463949 C259.84385,18.233866 259.26535,18.1600347 258.71035,18.0026979 C247.82785,14.9257184 236.74235,12.9170001 225.48035,12.3126025 C213.02935,11.6440482 200.63885,12.5987621 188.37285,15.009224 C180.55285,16.5459316 172.95435,18.9024203 165.37835,21.3469973 L165.3785,21.347201 C164.9295,21.5681855 164.4955,21.8273585 164.0305,22.003535 C148.7885,27.782737 134.811,35.8527434 122.1295,46.2064256 C117.861,49.6917681 113.8145,53.4597059 109.6655,57.0972935 C104.05365,62.6103467 99.22965,68.8243891 94.56465,75.144341 Z" id="Combined-Shape" fill="#F6DE23"></path>
            <path d="M329.2026,278.731421 C326.5086,282.874625 327.8191,286.638489 329.9196,290.597879 C337.7441,305.34681 345.4041,320.187393 353.1186,334.997935 C355.1836,338.961907 357.2731,342.914168 359.2636,346.917348 C362.5016,353.428752 358.7671,359.727318 351.5766,359.755832 C335.8461,359.817952 320.1151,359.772635 304.3846,359.784346 C303.0561,359.785365 301.7286,359.891274 300.4001,359.935573 C293.3986,360.170815 290.8096,358.405485 288.2616,353.179762 C283.0486,342.488493 277.8561,331.786531 272.6181,321.108501 C266.3021,308.23081 259.9466,295.373995 253.6126,282.505469 C250.9386,277.071491 251.5421,273.636048 255.9751,269.678695 C275.5206,252.228051 288.2626,230.59856 293.3241,204.660891 C300.5046,167.862904 292.4686,134.60016 269.4256,105.254543 C262.0501,95.8616854 253.2431,87.9892412 243.4071,81.319482 C242.8141,80.9172292 241.9916,80.7318874 241.7881,79.8632249 C242.6831,79.7186176 243.5021,79.950804 244.2776,80.390227 C245.0571,80.8607101 245.7966,81.4259008 246.6216,81.7864008 C255.8151,85.8074015 264.3701,90.9598019 272.5511,96.7950138 C284.1826,105.092115 294.4656,114.889262 303.3541,126.129938 C312.8196,138.101796 320.4991,151.191307 326.3076,165.432584 C333.8371,183.892934 337.3961,203.166954 338.1656,223.037735 C338.3871,228.773656 337.7016,234.490229 337.2626,240.210366 C336.5901,248.976423 334.9506,257.541862 332.8426,266.054346 C331.8721,269.974529 330.1206,273.674237 329.7261,277.746665 C329.7261,277.746665 329.7356,277.732917 329.7351,277.732917 C329.2976,277.921823 329.2071,278.30269 329.2026,278.731421" id="Fill-5" fill="#4BA2E9"></path>
            <path d="M208.22115,296.156962 C211.22815,296.199733 213.23015,297.932985 214.48315,300.456485 C221.12365,313.824008 227.74015,327.20477 234.23015,340.648161 C236.95015,346.283265 234.91265,351.181075 229.04615,353.142949 C221.68715,355.604329 214.05765,356.973516 206.39415,357.972528 C194.17415,359.565755 181.89215,360.728215 169.56515,360.132473 C121.43965,357.804499 79.61615,340.594697 46.29365,304.488687 C22.22515,278.410484 7.75765,247.348419 2.46965,211.918601 C-0.06735,194.922146 -0.71585,177.875283 1.25415,160.766808 C1.53365,163.016878 1.81415,165.26542 2.09365,167.514472 C2.31015,172.24578 3.08365,176.90122 4.01315,181.528146 C11.19265,217.269073 28.76315,246.75726 56.05915,270.190778 C71.94315,283.827149 90.03815,293.489873 109.97065,299.558799 C125.20865,304.197945 140.82315,306.130795 156.66215,306.038124 C163.94865,305.995862 171.25015,305.415906 178.47215,304.18216 C188.63515,302.446363 198.62565,300.065434 208.22115,296.156962" id="Fill-7" fill="#AF27CB"></path>
            <path d="M244.27775,80.3900743 C243.50175,79.9511605 242.68325,79.718974 241.78825,79.8630722 L241.81175,79.8814027 C241.60875,79.3309782 241.12925,79.3686576 240.68425,79.3325058 C233.05775,75.3995934 225.51325,71.3215644 217.38325,68.4655694 C161.88275,48.9654726 100.78875,74.5105637 74.81125,128.170581 C70.23675,137.619958 66.91275,147.515378 64.92425,157.865496 C64.86275,158.185261 64.68475,158.482114 64.56125,158.788641 C64.57325,157.776898 64.51575,156.759046 64.60675,155.755451 C65.47125,146.267376 67.07275,136.908633 69.38625,127.675658 C69.63875,126.871152 69.91175,126.072756 70.14075,125.261122 C75.27725,107.036523 83.38275,90.2951682 94.56475,75.1444938 C99.22925,68.8245418 104.05375,62.6104994 109.66625,57.0981082 C113.81425,53.4595023 117.86075,49.6915644 122.12925,46.2067311 C134.81075,35.8525397 148.78825,27.7830425 164.03075,22.0038405 C164.49575,21.8271548 164.92975,21.5679818 165.37825,21.3469973 C172.95475,18.9024203 180.55275,16.5459316 188.37275,15.009224 C200.63875,12.5987621 213.02925,11.6440482 225.48025,12.3126025 C236.74225,12.9170001 247.82825,14.9257184 258.71025,18.0026979 C259.26575,18.1600347 259.84375,18.233866 260.40875,18.3463949 C264.80725,19.9747551 269.07825,21.8526138 272.70625,24.9688003 C272.90475,25.1179903 273.10275,25.2676894 273.30075,25.4173886 L273.28475,25.3995672 C273.51525,25.7427551 273.70625,26.122604 273.98075,26.424039 C280.65525,33.7486047 283.79975,42.2432678 282.85775,52.3499973 C281.65975,65.2154684 272.33825,76.5819112 260.07975,79.9262106 C254.80925,81.3646463 249.56775,81.0647388 244.27775,80.3900743" id="Fill-11" fill="#87C866"></path>
            <path d="M244.27775,80.3900743 C249.56775,81.0647388 254.80925,81.3646463 260.07975,79.9262106 C272.33825,76.5819112 281.65975,65.2154684 282.85775,52.3499973 C283.79975,42.2432678 280.65525,33.7486047 273.98075,26.424039 C273.70625,26.122604 273.51525,25.7427551 273.28475,25.3995672 C274.30875,25.1704359 275.01575,25.8557932 275.77825,26.3278038 C288.35225,34.1126689 299.87125,43.2631569 310.07525,54.0761202 C332.50825,77.848753 347.34625,105.759498 354.28825,138.025266 C357.54375,153.160665 358.94825,168.465622 358.56025,183.903474 C357.76375,215.59285 349.54325,245.17218 333.47675,272.401641 C332.37275,274.272372 330.98275,275.968962 329.72575,277.747021 C330.12075,273.674593 331.87175,269.974377 332.84275,266.054194 C334.95075,257.542218 336.59025,248.976779 337.26275,240.210213 C337.70175,234.490076 338.38725,228.774013 338.16525,223.037582 C337.39575,203.166802 333.83675,183.892781 326.30775,165.432941 C320.49875,151.191154 312.81975,138.101644 303.35375,126.129785 C294.46575,114.88911 284.18275,105.091962 272.55125,96.7953702 C264.37025,90.9596492 255.81475,85.8077579 246.62125,81.7867572 C245.79625,81.425748 245.05725,80.8605573 244.27775,80.3900743" id="Fill-13" fill="#65CDE6"></path>
            <path d="M2.0937,167.514217 C4.0962,172.995039 6.5787,178.124017 10.8007,182.31152 C27.6457,199.018251 56.0357,191.689612 62.9252,168.792261 C63.0677,168.319741 63.2657,167.864534 63.4377,167.401688 C63.0447,173.403912 62.6392,179.414282 62.9777,185.426688 C65.1437,223.952835 81.5102,254.756236 112.1737,277.333821 C133.5847,293.099586 157.8777,299.904787 184.2442,299.046308 C191.0717,298.824815 197.8187,297.790159 204.5092,296.40366 C205.7472,296.147033 206.9687,295.997843 208.2217,296.156707 C198.6252,300.065179 188.6352,302.446109 178.4722,304.181906 C171.2497,305.415651 163.9487,305.996117 156.6622,306.038379 C140.8232,306.130541 125.2082,304.19769 109.9707,299.558544 C90.0382,293.489618 71.9432,283.827404 56.0592,270.191033 C28.7632,246.757515 11.1927,217.269327 4.0132,181.527891 C3.0832,176.900965 2.3102,172.245525 2.0937,167.514217" id="Fill-21" fill="#FE3C4A"></path>
            <path d="M240.6845,79.3324549 C241.1295,79.3686067 241.609,79.3309273 241.812,79.8813518 C241.31,79.9668941 240.9525,79.7448913 240.6845,79.3324549" id="Fill-30" fill="#4BA2E9"></path>
            <path d="M329.2026,278.731421 C329.2071,278.30269 329.2976,277.921823 329.7351,277.732917 C329.7296,278.161138 329.6526,278.549643 329.2026,278.731421" id="Fill-32" fill="#65CDE6"></path>
            <path d="M273.3007,25.4174395 C273.1027,25.2677403 272.9047,25.1180412 272.7067,24.9688512 C273.0492,24.9189515 273.2922,25.0065306 273.3007,25.4174395" id="Fill-34" fill="#65CDE6"></path>
        </g>
    </g>
</svg>