<?xml version="1.0" encoding="UTF-8"?>
<svg width="137px" height="137px" viewBox="0 0 137 137" version="1.1" xmlns="http://www.w3.org/2000/svg" xmlns:xlink="http://www.w3.org/1999/xlink">
    <title>Group 8</title>
    <defs>
        <polygon id="path-1" points="0 0.429969231 136.937701 0.429969231 136.937701 68.6822742 0 68.6822742"></polygon>
    </defs>
    <g id="Page-1" stroke="none" stroke-width="1" fill="none" fill-rule="evenodd">
        <g id="Group-8">
            <g id="Group-3" transform="translate(0.000000, 67.699799)">
                <mask id="mask-2" fill="white">
                    <use xlink:href="#path-1"></use>
                </mask>
                <g id="Clip-2"></g>
                <path d="M0,0.945768562 L0,0.491373913 C19.1708361,0.495012709 38.341214,0.499106355 57.5120502,0.502290301 L57.5120502,25.8092067 C58.362,25.1974341 58.7743746,24.9036013 59.1844582,24.6056749 C70.2796254,16.5475612 81.3747926,8.48853779 92.4699599,0.429969231 C107.292535,0.445888963 122.11511,0.461808696 136.937701,0.477728428 C136.941809,1.38651773 136.109729,1.68262475 135.605716,2.18432375 C113.311371,24.360511 91.0005318,46.5203237 68.6924415,68.6824107 L68.2342475,68.6824107 C68.0848763,67.9510127 67.4365318,67.608511 66.9696321,67.1445645 C45.1738027,45.4878154 23.3674348,23.8406181 1.55144482,2.20342742 C1.08362876,1.73902609 0.730819398,1.10314649 0,0.945768562" id="Fill-1" fill="#374881" mask="url(#mask-2)"></path>
            </g>
            <path d="M57.5120502,68.2022716 C38.341214,68.1986328 19.1708361,68.1945391 0,68.1913552 L0,67.7365057 C0.827956522,67.5868602 1.22062876,66.8745659 1.74251171,66.3569472 C23.4540334,44.8234622 45.1559331,23.2795157 66.8472943,1.72510769 C67.3664281,1.20930836 68.0931237,0.827234783 68.2342475,0.000318394649 L68.6924415,0.000318394649 C69.1350569,0.511569231 69.5465151,1.05420468 70.0253278,1.52906756 C87.3496421,18.7305659 104.661585,35.9443452 122.021639,53.1103652 C126.97609,58.0095492 131.742224,63.1006796 136.968843,67.7260441 C136.958304,67.8765993 136.948224,68.0266997 136.937686,68.1772548 C122.11511,68.1613351 107.292535,68.1458702 92.4695017,68.1304054 C92.2926388,67.3767197 91.6044314,67.1156361 91.0665117,66.7221913 C80.6490134,59.1061913 70.2305987,51.4915559 59.7975217,43.8969338 C59.2215719,43.4780174 58.7436756,42.7907398 57.5120502,42.898994 L57.5120502,68.2022716 Z" id="Fill-4" fill="#9255B0"></path>
            <path d="M57.5120502,68.2022716 L57.5120502,42.898994 C58.7436756,42.7907398 59.2215719,43.4780174 59.7975217,43.8969338 C70.2305987,51.4915559 80.6490134,59.1061913 91.0665117,66.7221913 C91.6044314,67.1156361 92.2926388,67.3767197 92.4695017,68.1304054 C81.3747926,76.1885191 70.2796254,84.2470876 59.1844582,92.3052013 C58.7743746,92.6031278 58.362,92.8974154 57.5120502,93.509188 L57.5120502,68.2022716 Z" id="Fill-6" fill="#FDFDFD"></path>
        </g>
    </g>
</svg>