<?xml version="1.0" encoding="UTF-8"?>
<svg width="80px" height="80px" viewBox="0 0 80 80" version="1.1" xmlns="http://www.w3.org/2000/svg" xmlns:xlink="http://www.w3.org/1999/xlink">
    <title>Group</title>
    <g id="Page-1" stroke="none" stroke-width="1" fill="none" fill-rule="evenodd">
        <g id="Group">
            <path d="M44.5090119,0.265114827 C48.6824773,0.760692384 52.7014872,1.83765608 56.519573,3.63409172 C66.8511901,8.49534585 74.0192429,16.276996 77.70954,27.0690752 C81.1033353,36.9943558 80.5375268,46.8332996 76.2980548,56.4443888 C76.1842594,56.7018145 76.0778568,56.9632006 75.9682858,57.2227386 C75.0745565,58.9199003 74.1842594,60.6189102 73.0853816,62.196732 C66.3740944,71.8321115 57.2635994,77.7201643 45.6263717,79.4379201 C37.1120532,80.6945478 29.0671042,79.2872751 21.5592274,75.3695219 C16.267549,76.6196527 9.15521654,78.3002303 9.15521654,78.3002303 C4.11125614,79.2174581 0.442345249,77.7721775 1.4728403,71.3856429 C1.92011858,69.4870872 3.5253994,62.6821719 4.51333014,58.4891573 C3.70190864,56.9401262 3.01196627,55.3304824 2.37726274,53.7006264 C1.91521654,52.5146198 1.50412743,51.2850488 1.2628073,50.0187782 C0.443797394,46.6138937 -0.0494039258,43.1680851 0.00392940754,39.6594383 C0.16155317,29.3426066 3.73145416,20.3797023 10.6727083,12.7448508 C14.0023452,9.08227654 17.8927743,6.18405872 22.3363386,4.02326664 C26.2439294,2.12333265 30.3574608,0.925708886 34.66954,0.356203936 C37.9519162,-0.077591444 41.2313882,-0.123796064 44.5090119,0.265114827 Z" id="Combined-Shape" fill="#357DF9"></path>
            <path d="M66.5526027,52.6796099 C65.8928007,53.9329432 65.235375,55.1875967 64.4237578,56.3527452 C59.4679822,63.4674647 52.7405895,67.8154515 44.1475862,69.0838343 C37.2269261,70.1053525 30.726332,68.7435043 24.7123386,65.1493128 C24.3796654,64.950501 24.0918766,64.9061445 23.7222396,64.9935373 C19.9949789,65.8748574 16.2642858,66.740864 12.5351769,67.6132072 C12.4100284,67.6422501 12.2893684,67.6895109 12.1227677,67.6382897 C12.6386753,65.4690488 13.1588073,63.2998079 13.6702264,61.1281907 C14.0847479,59.3684548 14.4871241,57.6058145 14.9003254,55.8458145 C14.9452099,55.6551874 14.8865961,55.5028442 14.7899624,55.3520851 C13.7262,53.6945274 12.9219756,51.9039003 12.2112165,50.0789498 C11.8700944,49.2031742 11.5667281,48.2954515 11.3882462,47.3602699 C10.7836258,44.8459465 10.4192693,42.30126 10.4588733,39.710633 C10.5750449,32.0924152 13.2113485,25.4738013 18.3368931,19.8360455 C20.795507,17.1318871 23.6683783,14.9914251 26.9494344,13.3959135 C29.8349789,11.9928772 32.8726027,11.1086528 36.0567611,10.6880587 C38.4805235,10.3677947 40.9021736,10.3337353 43.3225037,10.620996 C46.4039558,10.9866726 49.3718766,11.7821841 52.1911505,13.1086528 C59.8204575,16.6983558 65.1133948,22.4446264 67.8384113,30.4134713 C70.3445499,37.7425802 69.9265961,45.0080587 66.796035,52.1048244 C66.7120746,52.2951874 66.6336588,52.4879267 66.5526027,52.6796099" id="Fill-6" fill="#FEFEFE"></path>
            <path d="M20.3946357,13.4014317 C20.3571439,13.5487584 20.2415004,13.6189894 20.1419624,13.6926528 C18.7185961,14.7455901 17.4000482,15.9191874 16.1828865,17.2018277 C15.3306093,18.1000455 14.5189921,19.0386594 13.7913353,20.0419597 C13.5629525,20.3569432 13.4114014,20.4184614 13.0845367,20.1589234 C12.3793221,19.5986594 11.6455928,19.0727188 10.9047347,18.5599795 C10.7162198,18.4292864 10.7228205,18.3833458 10.8382,18.2032798 C11.2329195,17.5875703 11.7057908,17.0312666 12.1789261,16.4834119 C13.0037446,15.5286924 13.8121934,14.5515307 14.7568799,13.7100785 C15.8750317,12.714435 16.9570119,11.6736429 18.2045367,10.8290224 C18.3645367,10.7207716 18.4363518,10.695161 18.5438106,10.8424878 C19.138134,11.6570092 19.7319294,12.4717947 20.3251967,13.2871082 C20.3523915,13.3243359 20.3735136,13.3663161 20.3946357,13.4014317" id="Fill-8" fill="#FEFEFE"></path>
            <path d="M47.8640746,7.78791351 C48.1061868,6.80177489 48.3398502,5.86474519 48.5645367,4.92560328 C48.627375,4.662897 48.7799822,4.71702242 48.9671769,4.76454717 C52.167969,5.58170889 55.2034806,6.80520724 58.0560218,8.47253397 C58.7113353,8.85590031 58.6920614,8.87174189 58.287837,9.52203892 C57.8910053,10.1609828 57.5031505,10.8054713 57.127969,11.4570884 C56.9714014,11.7292996 56.8623585,11.8053392 56.5415664,11.6089036 C55.0714674,10.7088376 53.5195202,9.95715443 51.9147677,9.33642836 C50.6949657,8.86461318 49.4308073,8.50712143 48.1838106,8.1058013 C47.9929195,8.04428314 47.778002,8.03108182 47.8640746,7.78791351" id="Fill-10" fill="#FEFEFE"></path>
            <path d="M8.93863568,21.1891808 C8.98563238,21.2224482 9.04662248,21.2723492 9.11342116,21.3119531 C9.91262908,21.7848244 10.7070845,22.2661445 11.5157974,22.7218541 C11.781672,22.8715571 11.7800878,22.9890488 11.6324971,23.2380257 C10.0726291,25.870633 8.90906472,28.671161 8.14866868,31.6351214 C8.06021984,31.9796759 7.92239805,32.0295769 7.6108469,31.9450884 C6.80345416,31.7264746 5.9928931,31.5152534 5.17546736,31.3391478 C4.81744756,31.2620521 4.71210102,31.1654185 4.81454327,30.771227 C5.51896571,28.0644284 6.48160598,25.4598079 7.80147396,22.9914251 C8.0858304,22.4599399 8.39262908,21.941128 8.68543436,21.4143954 C8.74035185,21.3156495 8.77678749,21.2060785 8.93863568,21.1891808" id="Fill-12" fill="#FEFEFE"></path>
            <path d="M32.009474,7.74265938 C32.0503981,8.03414453 31.8933023,8.05447456 31.7531043,8.09117423 C29.5820152,8.66015113 27.4758766,9.40866598 25.4647875,10.4082699 C24.6914542,10.7924284 23.9336984,11.2106462 23.1870317,11.6444416 C22.9565367,11.7783029 22.859375,11.7365868 22.7424113,11.5346066 C22.2808931,10.738831 21.8349525,9.93196631 21.3348865,9.16074519 C21.140299,8.8608112 21.22954,8.75071219 21.4777248,8.61473859 C24.160233,7.14226334 26.9256456,5.86490361 29.8845895,5.04351747 C30.2410251,4.94450757 30.5985169,4.85051417 30.9557446,4.75493661 C31.0769327,4.72246136 31.230332,4.64615773 31.2778568,4.82992011 C31.5352825,5.82609172 31.780299,6.82516763 32.009474,7.74265938" id="Fill-14" fill="#FEFEFE"></path>
            <path d="M73.9245631,52.6803756 C73.1628469,54.6399795 72.2804707,56.5404416 71.1963783,58.3458541 C71.0321538,58.6191214 70.9616588,58.7102105 70.6416588,58.5008376 C69.914266,58.024534 69.1377644,57.6240059 68.3908337,57.1759531 C68.1576984,57.0365472 68.0655532,56.874435 68.2514278,56.5634119 C68.9761802,55.3515307 69.6402066,54.105326 70.1468733,52.7828178 C70.8272693,51.3383293 71.3085895,49.8236099 71.7030449,48.2819597 C71.8081274,47.8713987 71.9546621,47.7805736 72.3620548,47.9017617 C73.1319558,48.1304086 73.914002,48.3289564 74.7026489,48.4789234 C75.1311637,48.5605076 75.1512297,48.7321247 75.05354,49.094369 C74.7264113,50.3059861 74.3316918,51.494897 73.9245631,52.6803756" id="Fill-16" fill="#FEFEFE"></path>
            <path d="M61.4625961,10.7286924 C61.5447083,10.7788574 61.6323651,10.8221577 61.7081406,10.8807716 C63.7976456,12.4942369 65.7530251,14.2476363 67.4504509,16.2819597 C67.9328271,16.8599135 68.3880086,17.4600455 68.8843783,18.025062 C69.1349393,18.3102105 69.1154014,18.4662501 68.7972495,18.6835439 C68.1065565,19.1553591 67.4285367,19.6493525 66.7777116,20.1739729 C66.4611439,20.4295505 66.3212099,20.3434779 66.1068205,20.0591214 C64.34154,17.7203756 62.292167,15.6601775 59.9689987,13.8735109 C59.3670185,13.4104086 59.3894608,13.4265142 59.8578436,12.7991874 C60.3301868,12.1663161 60.7684707,11.5078343 61.2833221,10.9066462 C61.3379756,10.8430158 61.3126291,10.6964812 61.4625961,10.7286924" id="Fill-18" fill="#FEFEFE"></path>
            <path d="M72.0498436,31.9873062 C71.7522858,32.0324548 71.7829129,31.7805736 71.7377644,31.6115967 C71.2268733,29.6979333 70.5673353,27.8383954 69.7295796,26.0422237 C69.2807347,25.0798475 68.794134,24.1372732 68.2423188,23.2308706 C68.0831109,22.9692204 68.1248271,22.8638739 68.3730119,22.7178673 C69.1487215,22.2608376 69.9215268,21.7969432 70.6697776,21.2968772 C70.9163783,21.1323888 71.0159162,21.1598475 71.1505697,21.3908706 C72.8963122,24.3838739 74.2367743,27.5429498 75.0758502,30.9095505 C75.1091175,31.0426198 75.2332099,31.2034119 75.0077314,31.2607056 C74.0263452,31.5091544 73.0417908,31.74493 72.0498436,31.9873062" id="Fill-20" fill="#FEFEFE"></path>
            <path d="M34.521474,4.26118083 C34.4483386,3.94672539 34.741408,3.99557027 34.9193618,3.97101582 C36.1798238,3.79860658 37.4460944,3.67504222 38.7179096,3.64309502 C40.7649063,3.59134585 42.8050383,3.68454717 44.8390977,3.93801252 C45.3029921,3.9958343 45.4141472,4.15002572 45.3161934,4.60916763 C45.1590977,5.34738545 45.0608799,6.10012473 44.9761274,6.85127984 C44.9283386,7.27372209 44.8388337,7.43240196 44.3334872,7.36032275 C41.3695268,6.93840856 38.3992297,6.94659337 35.4323651,7.3658673 C35.2390977,7.39332605 35.0109789,7.51055377 34.9610779,7.16573529 C34.821936,6.21048776 34.6727611,5.2568244 34.521474,4.26118083" id="Fill-22" fill="#FEFEFE"></path>
            <path d="M76.2061736,39.9421577 C76.249738,41.5719927 76.080233,43.1880983 75.909672,44.8055241 C75.8608271,45.2675703 75.7055796,45.3829498 75.2419492,45.2831478 C74.5045235,45.1236759 73.7512561,45.0280983 73.0003651,44.9438739 C72.5755466,44.8963492 72.4232033,44.8023558 72.4944905,44.3001775 C72.9150845,41.3367452 72.9142924,38.3661841 72.4778568,35.4022237 C72.4287479,35.0677023 72.499507,34.9478343 72.8316522,34.9003095 C73.6247875,34.7873062 74.4205631,34.6967452 75.2041934,34.5095505 C75.7467677,34.3799135 75.8378568,34.4823558 75.9035994,35.0312666 C76.0989789,36.6624218 76.2515862,38.2962171 76.2061736,39.9421577" id="Fill-24" fill="#FEFEFE"></path>
            <path d="M3.67291951,39.9015241 C3.6348997,38.2521511 3.7988601,36.6360455 3.97021324,35.0191478 C4.01905812,34.5589498 4.16770499,34.4380257 4.63503172,34.5359795 C5.42077429,34.700732 6.2218304,34.7955175 7.01945416,34.8963756 C7.36268848,34.9399399 7.4548337,35.0516231 7.40150036,35.4196759 C6.96638485,38.4150554 6.96453667,41.4157155 7.40334855,44.410567 C7.45958617,44.7949894 7.33443766,44.8815901 7.00942116,44.9251544 C6.19674789,45.0339333 5.38143436,45.1371676 4.57773799,45.2961115 C4.14579079,45.3816561 4.02143436,45.2448904 3.97707792,44.8393458 C3.79621984,43.190765 3.63067528,41.5427122 3.67291951,39.9015241" id="Fill-26" fill="#FEFEFE"></path>
            <path d="M8.22365218,71.6139729 C8.9948733,71.4362831 9.67843766,71.2791874 10.362002,71.1212996 C11.8622,70.7738409 13.3653023,70.4385274 14.8602198,70.0694185 C15.1862924,69.9891544 15.2734212,70.0802435 15.3365235,70.3735769 C15.5226621,71.2379993 15.7270185,72.0989894 15.9392957,72.9576033 C16.0066225,73.2308706 15.9543452,73.3528508 15.6552033,73.4212336 C13.3975136,73.9358211 11.1511769,74.504798 8.88635845,74.9866462 C6.50774459,75.4927848 4.3878766,73.4426198 4.85625944,71.0481643 C5.3008799,68.775161 5.89414723,66.5312006 6.39870168,64.2692864 C6.48345416,63.8898805 6.66008782,63.8531808 6.97427924,63.9331808 C7.82338815,64.1496825 8.67117693,64.3759531 9.52899871,64.5531148 C9.81335515,64.6117287 9.84187,64.6695505 9.77665548,64.9422897 C9.25520333,67.1268442 8.75540135,69.3166792 8.22365218,71.6139729" id="Fill-28" fill="#FEFEFE"></path>
            <path d="M7.88276769,47.8067386 C8.07656307,47.8075307 8.08131555,47.9986858 8.12567198,48.1639663 C8.49346076,49.5337353 8.92461588,50.8823822 9.46058947,52.1974977 C10.0229657,53.5772996 10.6592693,54.92093 11.4141208,56.2059465 C11.6087083,56.5370356 11.6895004,56.8496429 11.5952429,57.2324812 C11.265474,58.5716231 10.9502264,59.9144614 10.6481802,61.260468 C10.5890383,61.5237023 10.5085103,61.6113591 10.2304905,61.5413921 C9.34204162,61.3169696 8.45016043,61.1041643 7.55405482,60.9135373 C7.27392281,60.8536033 7.22824624,60.7514251 7.29425284,60.4860785 C7.53108452,59.5345274 7.73702512,58.5753194 7.97068848,57.6229762 C8.03167858,57.3734713 8.02138155,57.1627782 7.89438485,56.9322831 C6.52091951,54.4422501 5.60157957,51.770567 4.76514393,49.0658805 C4.66138155,48.7303029 4.70837825,48.5623822 5.11339475,48.481326 C6.02639805,48.2978277 6.92514393,48.0446264 7.88276769,47.8067386" id="Fill-30" fill="#FEFEFE"></path>
            <path d="M22.4390449,71.8357023 C21.6052495,72.0289696 20.6964707,72.2370224 19.7890119,72.4508838 C19.0177908,72.632534 19.0214872,72.6346462 18.8474938,71.873194 C18.6793089,71.1365604 18.5164047,70.3983425 18.3255136,69.6672534 C18.2536984,69.3916099 18.2803651,69.2693657 18.5911241,69.2007188 C20.0192429,68.8838871 21.4428733,68.5475175 22.8641274,68.2021709 C23.0774608,68.1504218 23.2348205,68.2008508 23.4067017,68.3014449 C26.0039294,69.8201247 28.7614212,70.952798 31.6736324,71.7044812 C31.9746225,71.782369 32.0725763,71.8856033 31.989408,72.1958343 C31.7604971,73.0499597 31.5373948,73.9061973 31.3486159,74.7695637 C31.2760086,75.1014449 31.1540284,75.1220389 30.8551505,75.0454713 C28.1013552,74.3384086 25.4753485,73.3060653 22.959705,71.9861973 C22.8189789,71.912534 22.6906621,71.8034911 22.4390449,71.8357023" id="Fill-32" fill="#FEFEFE"></path>
            <path d="M61.5109393,69.0838079 C61.3773419,69.094897 61.3435466,68.9887584 61.2910053,68.9177353 C60.7162198,68.1420257 60.1490911,67.3599795 59.568233,66.5887584 C59.4348997,66.4118607 59.477936,66.3173392 59.6352957,66.1993194 C61.2249987,65.004864 62.6552297,63.6306066 64.0292231,62.2027518 C64.7962198,61.4053921 65.4668469,60.5135109 66.1533155,59.6419597 C66.3162198,59.434963 66.4213023,59.4093525 66.6140416,59.5511346 C67.4008403,60.1296165 68.1865829,60.7094185 68.9797182,61.2789234 C69.2213023,61.4523888 69.0417644,61.5841379 68.9512033,61.705326 C68.1205763,62.8134449 67.2310713,63.8732468 66.2766159,64.8765472 C64.898134,66.3257881 63.4129855,67.6567452 61.8169459,68.8628178 C61.7145037,68.9401775 61.6088931,69.0133128 61.5109393,69.0838079" id="Fill-34" fill="#FEFEFE"></path>
            <path d="M48.8892627,75.0782897 C48.6381736,75.1464086 48.5980416,75.020732 48.5655664,74.8900389 C48.3371835,73.9699069 48.1169855,73.0476627 47.8775136,72.1301709 C47.7903849,71.7969696 47.9926291,71.7647584 48.2265565,71.7037683 C49.9237182,71.2602039 51.5775796,70.690435 53.1831241,69.9820521 C54.3458964,69.4690488 55.4801538,68.8990158 56.5676786,68.241326 C56.8396258,68.0768376 56.9779756,68.0554515 57.1532891,68.3680587 C57.5857644,69.1390158 58.0533552,69.890435 58.5206819,70.641326 C58.6600878,70.8660125 58.7028601,70.9927452 58.4179756,71.1590818 C55.4582396,72.8887188 52.3287347,74.201194 49.0043783,75.0434383 C48.942068,75.0595439 48.8813419,75.080666 48.8892627,75.0782897" id="Fill-36" fill="#FEFEFE"></path>
            <path d="M39.9435466,76.1776957 C38.2965499,76.2239003 36.6630185,76.0572996 35.0289591,75.8788178 C34.6065169,75.8328772 34.4652627,75.6995439 34.5568799,75.2483227 C34.7200482,74.4451544 34.8201142,73.6282567 34.927573,72.8147914 C34.9690251,72.5021841 35.0606423,72.3891808 35.4152297,72.4414581 C38.4288271,72.8850224 41.4469129,72.8847584 44.4610383,72.4427782 C44.807705,72.3915571 44.9114674,72.4881907 44.9531835,72.8087188 C45.0590581,73.6227122 45.1601802,74.4393458 45.3230845,75.2430422 C45.4131175,75.6879267 45.2900812,75.8318211 44.858134,75.8788178 C43.2240746,76.0554515 41.5905433,76.2239003 39.9435466,76.1776957" id="Fill-38" fill="#FEFEFE"></path>
        </g>
    </g>
</svg>