<?xml version="1.0" encoding="UTF-8"?>
<svg width="123px" height="143px" viewBox="0 0 123 143" version="1.1" xmlns="http://www.w3.org/2000/svg" xmlns:xlink="http://www.w3.org/1999/xlink">
    <title>logo_brave</title>
    <defs>
        <linearGradient x1="0.0328758116%" y1="50.0043126%" x2="99.9671242%" y2="50.0043126%" id="linearGradient-1">
            <stop stop-color="#F1562B" offset="0%"></stop>
            <stop stop-color="#F1542B" offset="30%"></stop>
            <stop stop-color="#F04D2A" offset="41%"></stop>
            <stop stop-color="#EF4229" offset="49%"></stop>
            <stop stop-color="#EF4029" offset="50%"></stop>
            <stop stop-color="#E83E28" offset="56%"></stop>
            <stop stop-color="#E13C26" offset="67%"></stop>
            <stop stop-color="#DF3C26" offset="100%"></stop>
        </linearGradient>
    </defs>
    <g id="Page-1" stroke="none" stroke-width="1" fill="none" fill-rule="evenodd">
        <g id="logo_brave" fill-rule="nonzero">
            <path d="M122.63,46.16 L118.23,34.21 L121.29,27.35 C121.683543,26.4642603 121.492924,25.4277689 120.81,24.74 L112.49,16.33 C108.844369,12.630688 103.392507,11.3650773 98.49,13.08 L96.16,13.89 L83.45,0.12 L61.89,-2.84217094e-14 L61.75,-2.84217094e-14 L40.05,0.17 L27.35,14.05 L25.09,13.25 C20.1548851,11.5144831 14.6612516,12.7933417 11,16.53 L2.53,25.1 C1.98588889,25.648301 1.83490685,26.474729 2.15,27.18 L5.34,34.3 L0.96,46.24 L3.79,57.01 L16.7,106.09 C18.1872751,111.743761 21.6089034,116.697514 26.37,120.09 C26.37,120.09 42.04,131.14 57.5,141.18 C60.0179848,143.190257 63.5920152,143.190257 66.11,141.18 C83.48,129.8 97.22,120.05 97.22,120.05 C101.977355,116.655842 105.395304,111.702293 106.88,106.05 L119.72,56.95 L122.63,46.16 Z" id="Path" fill="url(#linearGradient-1)"></path>
            <path d="M65.35,88.45 C64.5269928,88.0815769 63.6780436,87.7740834 62.81,87.53 L61.28,87.53 C60.4119564,87.7740834 59.5630072,88.0815769 58.74,88.45 L54.89,90.05 C53.67,90.56 51.71,91.47 50.54,92.05 L43.46,95.74 C42.9354411,95.9101848 42.5671333,96.3823163 42.5297194,96.9325209 C42.4923055,97.4827255 42.7933085,98.0003702 43.29,98.24 L49.44,102.58 C50.52,103.34 52.22,104.68 53.22,105.58 L54.95,107.07 C55.95,107.93 57.58,109.36 58.57,110.24 L60.21,111.69 C61.255673,112.561132 62.774327,112.561132 63.82,111.69 L65.54,110.19 L69.16,107.03 L70.9,105.51 C71.9,104.64 73.59,103.3 74.67,102.51 L80.82,98.11 C81.3179514,97.8709353 81.6181878,97.3508163 81.5761616,96.8000519 C81.5341354,96.2492876 81.1584589,95.7807442 80.63,95.62 L73.56,92.03 C72.38,91.43 70.42,90.53 69.19,90.03 L65.35,88.45 Z" id="Path" fill="#FFFFFF"></path>
            <path d="M108.95,48.83 L109.15,48.19 C109.161827,47.3338399 109.108338,46.4780247 108.99,45.63 C108.394661,44.1152388 107.629793,42.6727249 106.71,41.33 L102.71,35.46 C101.97,34.36 100.71,32.62 99.86,31.59 L94.5,24.88 C94.0110875,24.2260227 93.4799555,23.6046985 92.91,23.02 L92.8,23.02 C92.8,23.02 91.72,23.21 90.42,23.46 L82.23,25.04 L78.64,25.73 C77.4481527,25.7860012 76.2566262,25.6128734 75.13,25.22 L68.66,23.13 C67.4,22.72 65.32,22.13 64.03,21.85 C62.6704949,21.7055119 61.2995051,21.7055119 59.94,21.85 C58.65,22.15 56.57,22.73 55.31,23.14 L48.84,25.24 C47.7133738,25.6328734 46.5218473,25.8060012 45.33,25.75 L41.74,25.07 L33.54,23.5 C32.24,23.25 31.17,23.05 31.16,23.06 L31.05,23.06 C30.4800445,23.6446985 29.9489125,24.2660227 29.46,24.92 L24.11,31.63 C23.29,32.63 22,34.41 21.26,35.5 L17.26,41.37 C16.5691634,42.3822783 15.9380872,43.434072 15.37,44.52 C15.0273254,45.7308857 14.8457615,46.9816591 14.83,48.24 L15.03,48.88 C15.1262777,49.2911154 15.2498857,49.695347 15.4,50.09 C16.23,51.09 17.65,52.75 18.56,53.72 L32.56,68.6 C33.506531,69.7049766 33.7784241,71.2367688 33.27,72.6 L30.98,78.03 C30.4592831,79.4685936 30.4206738,81.0375351 30.87,82.5 L31.33,83.76 C32.0816109,85.8063971 33.3699766,87.6128722 35.06,88.99 L37.26,90.78 C38.4217621,91.6180141 39.9329534,91.799357 41.26,91.26 L49.08,87.53 C50.5154335,86.8114011 51.8585471,85.9215884 53.08,84.88 L59.34,79.23 C59.8437801,78.7751943 60.1419047,78.1357594 60.1663976,77.4574949 C60.1908905,76.7792305 59.9396636,76.1199578 59.47,75.63 L45.34,66.11 C44.2343195,65.3253976 43.8686933,63.8501382 44.48,62.64 L49.96,52.34 C50.5893996,51.0665719 50.6865373,49.5951158 50.23,48.25 C49.5494857,46.9795356 48.4508028,45.9833022 47.12,45.43 L29.94,38.94 C28.7,38.47 28.77,37.94 30.08,37.86 L40.17,36.86 C41.7522267,36.7593845 43.34054,36.9010175 44.88,37.28 L53.66,39.73 C54.9491578,40.118568 55.7524532,41.4004224 55.54,42.73 L52.09,61.57 C51.8592575,62.6134952 51.8018233,63.6878519 51.92,64.75 C52.06,65.2 53.24,65.75 54.53,66.07 L59.88,67.21 C61.4336545,67.4955573 63.0263455,67.4955573 64.58,67.21 L69.39,66.12 C70.68,65.83 71.85,65.22 72,64.77 C72.1150792,63.7073087 72.0542646,62.6329171 71.82,61.59 L68.35,42.75 C68.1375468,41.4204224 68.9408422,40.138568 70.23,39.75 L79.01,37.29 C80.5494342,36.9108627 82.1377713,36.7692275 83.72,36.87 L93.81,37.81 C95.13,37.93 95.19,38.42 93.96,38.89 L76.79,45.4 C75.4591972,45.9533022 74.3605143,46.9495356 73.68,48.22 C73.2245735,49.5652616 73.3216824,51.0362814 73.95,52.31 L79.44,62.61 C80.0513067,63.8201382 79.6856805,65.2953976 78.58,66.08 L64.46,75.62 C63.9903364,76.1099578 63.7391095,76.7692305 63.7636024,77.4474949 C63.7880953,78.1257594 64.0862199,78.7651943 64.59,79.22 L70.86,84.87 C72.0819914,85.9080878 73.4250823,86.7945278 74.86,87.51 L82.68,91.23 C84.0087364,91.7664887 85.5200492,91.5813529 86.68,90.74 L88.88,88.94 C90.5718429,87.5604629 91.8604042,85.7502588 92.61,83.7 L93.07,82.44 C93.5193262,80.9775351 93.4807169,79.4085936 92.96,77.97 L90.66,72.54 C90.1515759,71.1767688 90.423469,69.6449766 91.37,68.54 L105.37,53.64 C106.28,52.64 107.69,51.04 108.52,50.01 C108.689232,49.6265929 108.832879,49.2323966 108.95,48.83 Z" id="Path" fill="#FFFFFF"></path>
        </g>
    </g>
</svg>