<?xml version="1.0" encoding="UTF-8"?>
<svg width="80px" height="80px" viewBox="0 0 80 80" version="1.1" xmlns="http://www.w3.org/2000/svg" xmlns:xlink="http://www.w3.org/1999/xlink">
    <title>Group</title>
    <g id="Page-1" stroke="none" stroke-width="1" fill="none" fill-rule="evenodd">
        <g id="Group">
            <circle id="Oval" fill="#065085" cx="40" cy="40" r="40"></circle>
            <path d="M55.991311,9 C55.6031786,10.3232247 55.3833641,11.6843568 55,13 C55.8172713,11.8107152 56.0504368,10.4435178 55.991311,9 M30,58.617264 C29.2557073,58.1949742 28.5755065,57.8230917 27.909778,57.4275487 C27.2430158,57.0314912 26.5958946,56.6035435 25.9291324,56.2069717 C25.7570147,56.1051283 25.4489602,55.7800526 25.3833177,56.238862 C25.2070651,57.4676688 25.0297787,58.7052196 25.0003171,59.9437992 C24.9801592,60.8053527 25.9249974,61.2513031 26.7023698,60.8526739 C27.8648103,60.257559 28.9393829,59.5338541 30,58.617264 M55.9980862,20.8940464 C56.0201467,20.1760767 55.8498849,19.4978994 55.570452,18.8458715 C55.1134039,17.7811389 55.1043535,17.7771597 54.1715907,18.5235526 C53.6726842,18.9226141 53.1630303,19.3142857 52.7076792,19.7605297 C51.5554428,20.8889303 51.8580674,22.9831507 53.2682419,23.7619461 C53.9713493,24.1502068 54.6133661,24.0763065 55.1484745,23.4458802 C55.7723904,22.7119935 55.9664096,21.8286008 55.9980862,20.8940464 M42,22 C43.4477698,21.2387887 44.8446131,20.5476309 46.3248416,20.0909041 C48.5588953,19.4014011 50.079977,17.9528932 51.2149122,16.0129075 C51.8607283,14.9074963 52.4354711,13.7711953 52.8557553,12.5637377 C52.9122782,12.4021182 53.1355716,12.2327762 52.8798195,12 C51.1337654,13.4474047 49.0967024,14.3796128 47.0148687,15.2362513 C45.9028785,15.6940813 44.8854662,16.3251145 43.8943567,16.9953114 C43.522201,17.2462905 43.1925773,17.5314689 43.0078985,17.9705444 C42.4756878,19.2370236 42.1925137,20.5581113 42,22 M64.2135869,43 C64.9480277,39.9208933 65.0805299,36.8162792 64.9615483,33.6924045 C64.9004351,32.0708631 64.4915711,30.5430223 63.6743841,29.1250195 C63.2038661,28.3093035 62.6224789,27.5737536 61.7203823,27.1552241 C61.0995148,26.8668344 60.6170986,26.951165 60.3423594,27.6560019 C59.894556,28.8043551 59.8950968,29.9360505 60.290981,31.0989793 C61.634391,35.0474196 63.3104087,38.8959126 64.2135869,43 M59,48.1753206 C53.5078942,43.1143797 47.6091979,39.5910368 40,41.5499695 C40.9814611,41.734919 41.9874849,41.7759581 42.9621521,42.0506464 C46.0298713,42.9146561 48.471504,44.7679815 50.5075916,47.2598752 C51.1263615,48.0166361 51.8104577,48.660129 52.7720596,48.8363236 C54.8949004,49.2259213 56.949802,48.8861176 59,48.1753206 M46.7397008,32.9928425 C46.837965,32.9600412 47.1102973,32.907446 47.3466929,32.7852893 C49.6741508,31.5767306 51.5990062,29.9394927 52.8837405,27.5885434 C53.1965015,27.0156515 52.8141133,26.9800225 52.4918067,26.8539071 C51.095332,26.3098577 50.0593465,25.4049939 49.6151923,23.9227139 C49.4675152,23.4295631 49.3602668,22.9228394 49.2636872,22.4172467 C49.2041671,22.1033721 49.1210637,21.9071298 48.7482212,22.044556 C46.7419469,22.7837166 44.7036664,23.4431361 42.8680911,24.5894854 C42.1229676,25.0554903 41.9258777,25.6922882 42.0230189,26.5247629 C42.3397104,29.2280435 43.9085686,31.1248643 45.9131585,32.7490948 C46.1012642,32.9017906 46.3095843,33.0324303 46.7397008,32.9928425 M27,62.2413438 C28.8731829,63.5519528 30.6470672,64.7607364 32.5094568,65.8440752 C32.6503098,65.9259554 32.8332568,65.9716194 32.9983948,65.9768682 C37.2471903,66.1038875 41.4274481,65.7464487 45.3206033,63.9324861 C50.4420397,61.5464114 53.2752896,57.5321793 53.9736183,52.0666721 C54.0561873,51.4237021 53.9881893,51.0604897 53.1295796,51.0069526 C51.681654,50.9166744 50.3486774,50.3786791 49.3276281,49.333656 C48.9520201,48.9499736 48.6346961,48.9431502 48.1856935,49.0843412 C44.0464503,50.3839278 39.9433648,51.7806161 35.8953253,53.3295176 C35.3982923,53.5195218 35.112269,53.7851077 34.9460517,54.3036827 C34.3103244,56.2829805 33.1861988,57.968874 31.5974202,59.366612 C30.2703799,60.5344554 28.7598529,61.4146682 27,62.2413438 M47.1224851,47.8558265 C47.0038026,47.6944928 46.960945,47.6154722 46.8988564,47.5567555 C46.7494043,47.4140794 46.6005017,47.2670133 46.4340164,47.1468361 C43.6966254,45.1729674 40.6806601,44.1802711 37.2756797,44.5528752 C35.3899459,44.758658 33.5481686,45.1636386 31.7289189,45.6970276 C31.31353,45.8188511 30.8355031,45.9137855 30.5442913,45.4105779 C30.2530795,44.9079191 30.5371483,44.5770204 30.8986905,44.2730106 C34.7789505,41.0172521 39.2256999,39.2464224 44.3202583,39.3797696 C48.7950299,39.497203 52.7785877,41.1659645 56.466538,43.5931041 C57.9962242,44.5995193 59.467668,45.6937351 60.9797716,46.7270392 C61.2215324,46.8922142 61.5132936,47.223113 61.8176924,47.0085501 C62.1001129,46.8088036 61.9731885,46.4071155 61.9616499,46.0866431 C61.9572543,45.9697584 61.923188,45.8539713 61.9017592,45.7376354 C61.1083444,41.4847906 59.7077804,37.4124859 58.1704018,33.3862766 C57.5813847,31.8420824 57.2099523,30.2830718 57.3989653,28.6302242 C57.484131,27.8817235 57.1962159,27.8943449 56.6698368,28.1829896 C55.311581,28.927649 54.137393,29.9126627 52.9780403,30.9245654 C51.3043966,32.385349 49.5313013,33.6985177 47.5098518,34.6648738 C46.3977523,35.1955191 45.415874,35.0709519 44.4372924,34.3866555 C43.5120081,33.7385768 42.6603509,33.0120263 41.9251785,32.155421 C41.6757253,31.86513 41.4141842,31.7142227 41.0103338,31.7619643 C37.9410712,32.1268858 34.9569744,32.8210598 32.1470551,34.1270947 C29.6409852,35.2915511 28.187124,37.2149344 28.0261333,40.0454084 C27.9772317,40.9075012 27.9915176,41.7597165 28.1156947,42.6042491 C28.5261385,45.3946641 29.3904332,47.9957588 31.3684756,50.1155962 C32.0514497,50.848183 32.8624472,51.075916 33.8487211,50.9787865 C36.7460039,50.6945318 39.5377911,49.9301173 42.3350728,49.1887504 C43.9197046,48.7695022 45.4938968,48.3107437 47.1224851,47.8558265 M18.3208111,68.9547195 C19.4259368,67.3009556 20.7106176,65.8040049 22.3727533,64.6345957 C22.9497757,64.2283799 23.9781874,63.8446425 23.9993115,63.4148779 C24.0298859,62.7983291 23.0348281,62.4440275 22.4772622,61.9891086 C21.4766454,61.1707899 21.0563863,60.2422201 21.2720748,58.9550673 C21.4910987,57.6491825 21.4466268,56.3149322 21.2131496,54.9994138 C21.1486654,54.6360139 21.1731249,54.1436312 20.7839962,54.0216059 C20.4076531,53.9033269 20.0991295,54.2983036 19.8117302,54.5359318 C18.6804773,55.4719943 17.8621951,56.6306994 17.2746107,57.9424714 C15.956576,60.8844586 15.7920301,63.9548934 16.191165,67.0868761 C16.3573786,68.7427808 16.6180949,70.381024 17.1973408,72 C17.5720162,70.9847281 17.9461357,69.9699914 18.3208111,68.9547195 M61.7970364,50.0289677 C60.1514451,50.7531589 58.4199636,51.194111 56.650187,51.4896883 C56.2409775,51.5578159 56.0527848,51.6538383 56.015584,52.106592 C55.8799102,53.7454101 55.6594404,55.3756452 55.0510968,56.9238052 C54.8552451,57.4216197 55.2688313,57.5718223 55.5084486,57.8368227 C55.8049614,58.1640499 56.0352785,57.9264078 56.253013,57.7536748 C58.8231553,55.7211112 60.6996108,53.188051 61.9245041,50.1845347 C61.9491223,50.1233807 61.9748347,50.0611539 62,50 C61.9321631,50.0096559 61.8648733,50.0193118 61.7970364,50.0289677 M20.3370351,71.2915671 C19.7541845,72.0180396 19.5470692,72.9156705 19.3030852,73.7730928 C18.8167439,75.4814171 18.4334179,77.2185394 17.9899093,78.939361 C17.9058704,79.2648337 17.9232204,79.6413823 17.5388101,80 C14.8560708,75.2189741 14.0536346,70.0825907 14.0254409,64.7609215 C13.8833881,61.5855249 14.3182217,58.5215171 15.7853786,55.6585525 C16.3508792,54.5555314 17.0877108,53.5834601 17.9812343,52.7254945 C19.3795335,51.3833949 20.9578387,50.9780483 22.7953091,51.7132145 C23.7235325,52.0843295 24.5731389,52.5836775 25.3934672,53.1449685 C26.9826161,54.2322321 28.548451,55.3526407 30.2411575,56.2834166 C30.9085892,56.6501847 31.3239042,56.526842 31.6302396,55.872093 C31.7907268,55.5292328 31.9533828,55.1847424 32.0748326,54.8277548 C32.5562943,53.412845 32.5443662,53.4199087 31.3287838,52.628233 C30.4097776,52.0299935 29.6892116,51.2209302 29.0678658,50.3298196 C26.7624884,47.0218431 25.6732355,43.3286242 25.9904147,39.3207998 C26.3482578,34.8087372 29.129675,32.1392089 33.1418558,30.5455336 C35.1902368,29.7315801 37.3481394,29.3691589 39.5049577,29.0176049 C40.1984143,28.904586 40.4060718,28.7122365 40.2070893,27.9444686 C39.3254939,24.5386872 39.9078023,21.210063 40.9395834,17.9379483 C41.2833297,16.8468811 42.0174503,16.033471 43.0204955,15.4357748 C44.651935,14.4631602 46.3674134,13.6595305 48.0612043,12.8118887 C48.6082705,12.5380352 49.1417822,12.2364703 49.6758359,11.9376223 C52.5402077,10.3352532 54.2058049,7.96946316 54.3093626,4.61204086 C54.5425028,3.08356879 54.3727984,1.52303847 54.6747963,0 L55.5504277,0 C56.3875638,1.54368616 56.8001678,3.24603347 57.3781387,4.88643773 C57.4936244,5.21408389 57.5613977,5.56509454 57.8471301,5.80580309 C57.8335754,5.91773527 57.7804411,6.04325147 57.8124301,6.14051293 C59.0009031,9.77613562 58.1930451,12.9917409 55.7656757,15.8547055 C55.5146434,16.1513801 55.5851276,16.3410128 55.7494102,16.6170398 C57.1412031,18.9551185 57.8015864,21.4366442 57.1281907,24.230602 C57.6351351,24.230602 58.0949093,24.2278852 58.5552258,24.2311454 C62.978384,24.2594001 65.7321497,26.5045642 66.6224201,30.8329711 C67.183041,33.5584656 67.0247225,36.303521 66.7536292,39.0415127 C66.2840956,43.7828733 65.2691223,48.385677 63.0700135,52.6548576 C61.5800848,55.5466203 59.6829739,58.1047598 56.9172801,59.926103 C56.1593032,60.425451 55.4766903,60.5531406 54.8499226,59.770702 C54.4026187,59.2115844 54.1656831,59.3419909 53.8284431,59.9250163 C51.4292674,64.075201 47.8605952,66.7056075 43.2769498,68.0118453 C40.3317922,68.8507933 37.3074754,68.9355575 34.2809898,69.1452945 C32.3567696,69.2789611 30.8196706,68.6687677 29.3525137,67.5700935 C28.4888105,66.9240383 27.5784792,66.3410128 26.6963416,65.7188655 C26.3851265,65.499348 26.1216238,65.4064334 25.7583588,65.668333 C24.6929621,66.4355575 23.5798531,67.1435557 22.6190984,68.0433601 C21.6388251,68.9632689 20.7252407,69.9462073 20.3370351,71.2915671" id="Fill-6" fill="#ECEEEF"></path>
        </g>
    </g>
</svg>