<?xml version="1.0" encoding="UTF-8"?>
<svg width="17px" height="23px" viewBox="0 0 17 23" version="1.1" xmlns="http://www.w3.org/2000/svg" xmlns:xlink="http://www.w3.org/1999/xlink">
    <title>Artboard</title>
    <g id="Artboard" stroke="none" stroke-width="1" fill="none" fill-rule="evenodd">
        <path d="M8.5,0.000691364271 C8.5,0.000691364271 1.45352777,-0.21884858 0,7.16639602 L0,12.1960364 C0,12.1960364 0.0596635605,12.734997 1.66235024,13.8277521 C3.26503691,14.9214962 7.41268304,18 8.5,18 C9.58628827,18 13.7349631,14.9214962 15.3366211,13.8277521 C16.9393078,12.734997 17,12.1960364 17,12.1960364 L17,7.16639602 C15.5464722,-0.21884858 8.5,0.000691364271 8.5,0.000691364271 Z M13.3245189,9.90866748 L3.67548106,9.90866748 L3.67548106,7.16639602 C4.65375772,3.4994856 8.5,3.44806183 8.5,3.44806183 C8.5,3.44806183 12.3452136,3.4994856 13.3245189,7.16639602 L13.3245189,9.90866748 Z" id="Shape" fill="#EDF2F4" fill-rule="nonzero"></path>
        <path d="M8.50051437,19.3669148 C8.50051437,19.3669148 7.4079879,19.260121 6.55310136,18.6664728 C5.69924357,18.0728246 0,14 0,14 L0,22.0618893 C0,22.0618893 0.0483509834,23 1.08018154,23 L15.9198185,23 C16.9526778,23 17,22.0629362 17,22.0629362 L17,14.001047 C17,14.001047 11.3017852,18.0738716 10.4468986,18.6664728 C9.59304085,19.260121 8.50051437,19.3679618 8.50051437,19.3679618 L8.50051437,19.3669148 Z" id="Path" fill="#EDF2F4" fill-rule="nonzero"></path>
    </g>
</svg>