<?xml version="1.0" encoding="UTF-8"?>
<svg width="216px" height="216px" viewBox="0 0 216 216" version="1.1" xmlns="http://www.w3.org/2000/svg" xmlns:xlink="http://www.w3.org/1999/xlink">
    <title>Group</title>
    <g id="Page-1" stroke="none" stroke-width="1" fill="none" fill-rule="evenodd">
        <g id="Group" fill-rule="nonzero">
            <path d="M80.7071211,33.1151931 C77.3786465,34.4617052 74.3705109,35.7315519 71.3160024,36.8803159 C70.4483414,37.2070566 70.3629177,37.7090324 70.3635279,38.4598665 C70.3745109,51.034817 70.3818329,63.6103757 70.3525027,76.1853264 C70.3501041,77.2227433 70.5575618,77.6821271 71.724816,77.6431861 C74.2442058,77.5586105 76.7696974,77.5689541 79.2896974,77.6395355 C80.400816,77.6705662 80.728477,77.2933241 80.7260631,76.2054053 C80.6973584,61.9565937 80.7071211,47.7077822 80.7071211,33.1151931" id="Path" fill="#000000"></path>
            <path d="M139.053969,33.1590019 C136.587053,34.1446999 134.383731,35.2399199 132.055935,35.8988772 C129.52007,36.6162462 128.239935,37.8666224 128.809223,40.5931116 C129.116748,42.065574 128.441901,42.4598532 126.978104,42.4434249 C122.470782,42.3929231 122.459799,42.4568109 122.475663,46.9630326 C122.480545,48.4908644 121.985087,50.453742 122.741697,51.4278793 C123.556274,52.4768566 125.627799,51.8075555 127.133087,51.7497523 C128.597494,51.6943828 128.876952,52.2541619 128.845833,53.5690343 C128.76346,56.9952474 128.787867,60.4251112 128.824477,63.852541 C128.918443,72.6934003 133.608816,77.4040631 142.481291,77.6091124 C147.610985,77.7277611 147.610985,77.7277611 147.610985,72.5467625 L147.610985,71.7070936 C147.610985,68.1689245 147.610985,68.1689245 144.013426,68.1019944 C140.619663,68.0393239 139.149765,66.6483944 139.077765,63.2398265 C139.006985,59.8829773 139.101562,56.5230859 139.028952,53.1662367 C139.004545,52.0241657 139.412138,51.7308902 140.485426,51.7722651 C142.376341,51.8458883 144.273969,51.7497523 146.166714,51.8093809 C147.181426,51.841629 147.689087,51.6511824 147.637833,50.4598265 C147.542647,48.2249693 147.545087,45.9809854 147.637833,43.7455197 C147.686036,42.5778936 147.221087,42.277925 146.185019,42.3990076 C145.770104,42.4470756 145.344206,42.4160444 144.923189,42.4050922 C143.044477,42.3564157 140.516545,43.0190239 139.45546,42.0631402 C138.216816,40.9478412 139.164409,38.3825926 139.063121,36.4495294 C139.009426,35.4236734 139.053969,34.3929497 139.053969,33.1590019" id="Path" fill="#000000"></path>
            <path d="M118.388138,42.4081345 C115.318375,43.6329555 112.49085,44.8188353 109.615731,45.8769394 C108.510714,46.2833877 108.181833,46.8656797 108.200138,48.0199199 C108.270308,52.6374889 108.297155,57.2574917 108.20807,61.8744521 C108.120816,66.4007528 103.981426,69.3694074 99.776138,68.0441913 C97.0193923,67.1759256 95.3164092,64.7013368 95.3029855,61.4059414 C95.2779685,55.2708844 95.2956635,49.1352188 95.2956635,42.7610387 C92.025155,44.0844295 89.0078668,45.3481916 85.9527482,46.5133839 C85.1790533,46.8084849 85.0917991,47.2605673 85.0942397,47.9341276 C85.1174262,52.9721394 84.9343753,58.0192781 85.1729516,63.0463375 C85.5750533,71.5050866 93.0636635,78.2412974 101.76285,78.2455621 C110.468748,78.2504243 118.050104,71.466754 118.341155,63.0554644 C118.57546,56.2778783 118.388138,49.4869061 118.388138,42.4081345" id="Path" fill="#000000"></path>
            <path d="M168.423867,78.2383655 C178.596613,78.2625936 186.732002,70.2206372 186.804613,60.0685563 C186.876613,50.0101779 178.676545,41.7126698 168.609358,41.6579669 C158.42624,41.6031478 150.07363,49.8696246 150.086414,59.9900655 C150.099867,70.081909 158.271257,78.2139173 168.423867,78.2383655" id="Path" fill="#000000"></path>
            <path d="M38.568816,45.5532411 C38.3711211,45.1200208 38.0855618,44.706271 37.9915957,44.2529716 C37.6346465,42.5353017 36.761494,42.5054873 35.3550533,43.1930421 C33.6642736,44.0199332 31.8911211,44.6989695 30.1082058,45.3104674 C29.1337652,45.6451179 28.8329516,46.1574375 28.8640702,47.1473946 C28.9317991,49.3147132 28.884816,51.4850741 28.884816,53.654218 C28.884816,64.0813204 28.9214262,74.5084233 28.8465611,84.9349172 C28.8353923,86.5363717 29.2875279,86.9848035 30.8550533,86.8880593 C33.0919346,86.7505485 35.3471211,86.7779286 37.5882736,86.8825831 C38.8696296,86.9422119 39.2845448,86.5947838 39.2473245,85.2695677 C39.1509177,81.8914222 39.2149855,78.5084095 39.2149855,74.9434686 C46.9952567,80.5157042 56.6707143,78.4919813 61.7418329,72.6964426 C67.6427821,65.9535382 67.9063753,54.9039857 62.2177652,47.9116148 C56.3790533,40.7348818 48.3913245,39.9286782 38.568816,45.5532411" id="Path" fill="#000000"></path>
            <path d="M116.281223,92.8886479 C114.857697,92.8065063 113.434172,92.7340999 112.021019,93.0109473 C110.379663,93.0657081 108.738918,93.1198607 107.098172,93.1746216 C106.495324,92.8472729 105.907731,92.9866088 105.323799,93.233642 C103.927731,93.3608093 102.531053,93.4879765 101.134375,93.6151438 C96.9351889,92.9373242 92.7317313,93.2865779 88.5282736,93.5567317 C82.1074601,93.4119195 75.8190533,94.1116436 69.6996635,96.198646 C37.9958668,107.010901 29.4638668,147.010159 54.1983075,169.297885 C64.3911889,178.48313 76.6879346,181.66231 90.1696296,181.022823 C94.0802058,181.479165 98.008477,181.321575 101.931257,181.35504 C105.753358,181.395807 109.57546,181.437181 113.397562,181.478556 C117.590036,182.088229 121.807528,181.774265 126.015867,181.817466 C130.080206,181.972622 134.139663,182.04442 138.181426,181.418928 C156.69763,178.554928 171.42224,164.116886 175.097291,145.202437 C178.597223,127.189112 169.781494,108.16149 153.636409,98.7413815 C144.716952,93.5372612 135.082985,91.9619701 124.920613,92.8783037 C122.040613,92.881955 119.160613,92.8849967 116.281223,92.8886479" id="Path" fill="#000000"></path>
            <path d="M0.0457651277,0.0395503891 C71.2885448,0.0395503891 142.531935,0.0456349444 213.775324,0 C215.354443,0 215.710173,0.354730355 215.710173,1.92941327 C215.664409,72.9738982 215.669901,144.018992 215.669901,215.063476 C144.56868,215.063476 73.4662397,215.055566 2.3644092,215.108505 C0.459460043,215.108505 0,214.650335 0,212.750737 C0.0536973311,141.847414 0.0457651277,70.9434818 0.0457651277,0.0395503891" id="Path" fill="#000000"></path>
            <path d="M164.141575,121.704919 C161.035813,121.704919 158.236965,121.777325 155.44483,121.672671 C154.156762,121.624603 153.654592,122.104674 153.220762,123.267433 C150.634253,130.19044 147.961711,137.081199 145.278185,143.967699 C145.082321,144.470892 145.164694,145.247889 144.282389,145.446246 C141.47744,138.142345 138.642592,130.874344 135.921847,123.565576 C135.419677,122.216022 134.773508,121.812007 133.352423,121.839996 C128.30388,121.938566 123.251067,121.827827 118.201914,121.910577 C116.78083,121.934307 116.235338,121.626428 116.31466,120.09738 C116.447677,117.523613 116.35066,114.938285 116.35066,112.151559 C114.049101,113.059983 111.961101,114.037771 109.777914,114.701596 C107.526389,115.386108 106.537304,116.500191 106.786863,119.008244 C107.070592,121.856424 106.852762,121.878329 103.984965,121.878329 C100.228762,121.878329 100.228762,121.878329 100.228762,125.524803 C100.228762,130.204435 100.231202,130.293269 104.980152,130.195308 C106.66483,130.160626 106.897914,130.748394 106.886931,132.219031 C106.84666,137.533282 106.753914,142.859093 107.044965,148.159957 C107.362863,153.962189 111.367406,157.967652 117.110321,158.818881 C118.992084,159.098163 120.877508,159.148056 122.773304,159.141971 C126.857779,159.129193 126.857779,159.13832 126.857779,154.969792 C126.857779,150.410026 126.857779,150.410026 122.193033,150.374127 C121.982524,150.37291 121.772016,150.376561 121.561508,150.369867 C118.14883,150.265214 116.45866,148.738598 116.38544,145.372014 C116.285982,140.757487 116.381779,136.13931 116.330524,131.522958 C116.318931,130.504403 116.650253,130.206868 117.648491,130.224513 C120.663948,130.278666 123.683677,130.318216 126.696084,130.209911 C128.047609,130.161234 128.587609,130.659559 129.078796,131.875862 C131.97405,139.053203 134.969982,146.189778 137.952491,153.331829 C138.756694,155.257591 139.141711,157.897071 140.609169,158.856606 C142.09066,159.824659 144.68388,159.016021 146.776762,159.171786 C148.200287,159.278265 148.835474,158.784199 149.368762,157.470544 C153.041372,148.426461 156.809779,139.42071 160.546457,130.402791 C161.713711,127.58625 162.875474,124.767884 164.141575,121.704919" id="Path" fill="#FDFDFC"></path>
            <path d="M124.922321,92.8787296 C135.082863,91.962396 144.71683,93.5376871 153.636897,98.7418074 C169.781982,108.161307 178.597101,127.189538 175.097779,145.202255 C171.422728,164.116704 156.697508,178.555354 138.181914,181.419354 C134.139541,182.044237 130.080694,181.973048 126.015745,181.817284 C125.757033,181.721148 125.505643,181.573901 125.238389,181.536177 C102.933643,178.423318 86.9118126,160.633295 86.2772363,138.264036 C85.764694,120.185606 96.5549313,103.434825 113.292491,96.2477481 C117.037101,94.6402084 120.988558,93.8035824 124.922321,92.8787296" id="Path" fill="#FDFDFC"></path>
            <path d="M47.7609584,51.6391414 C43.0351957,51.6276352 39.2411618,55.284453 39.2021109,59.8874191 C39.1618397,64.5433206 43.0998736,68.4404786 47.7896363,68.3863261 C52.4495007,68.3321736 56.252077,64.5463629 56.2453828,59.9683437 C56.2380431,55.3532085 52.4665855,51.6507565 47.7609584,51.6391414" id="Path" fill="#FAFAFA"></path>
            <path d="M38.568755,45.5534237 C48.3912635,39.9288607 56.3796024,40.7350643 62.2177041,47.9117973 C67.9063143,54.9041683 67.6427211,65.9537207 61.7423821,72.696625 C56.6706533,78.4921637 46.9951957,80.5152783 39.2149245,74.9436511 C39.2149245,78.5079836 39.1508567,81.8909963 39.2472635,85.2691418 C39.2844838,86.5949662 38.8695685,86.9423943 37.5882126,86.8821572 C35.3470601,86.7781111 33.0918736,86.7507309 30.8549923,86.8882418 C29.288077,86.984986 28.8353313,86.5365547 28.8465006,84.9344913 C28.9213652,74.5079974 28.884755,64.0815028 28.884755,53.6544006 C28.884755,51.4852566 28.9323482,49.3142873 28.8640092,47.1469687 C28.8328906,46.1570116 29.1337041,45.6453004 30.1081448,45.3106499 C31.8910601,44.6985436 33.6642126,44.0201157 35.3549923,43.1932246 C36.7614329,42.5056699 37.6345855,42.5354842 37.9915346,44.2531542 C38.0861109,44.7058451 38.3710601,45.1202033 38.568755,45.5534237" id="Path" fill="#FAFAFA"></path>
            <path d="M107.098172,93.1746216 C108.738918,93.1198607 110.379663,93.0657081 112.020409,93.0109473 C112.051528,93.2093036 112.082647,93.4070516 112.113765,93.6054085 C102.578036,95.0255433 94.3212228,99.1666916 87.5446804,105.893168 C77.7124092,115.652795 73.1208838,127.537148 74.5669855,141.419061 C76.3993245,159.022896 86.016816,170.969312 101.969697,178.174643 C105.626443,179.825991 109.582782,180.397939 113.397562,181.478556 C109.57546,181.437181 105.753358,181.395807 101.931257,181.35504 C101.009291,181.1147 100.099528,180.802562 99.164138,180.646189 C75.7220363,176.722868 59.5946465,154.97545 62.7266465,131.489675 C65.3595279,111.748335 81.308138,96.0209768 101.134375,93.6151438 C102.531053,93.4879765 103.927731,93.3608093 105.323799,93.233642 C105.921155,93.3979253 106.513019,93.3881894 107.098172,93.1746216" id="Fill-11" fill="#FDDD01"></path>
            <path d="M101.134131,93.6152042 C81.3085041,96.0210378 65.359894,111.748396 62.7270126,131.489736 C59.5950126,154.975511 75.7217923,176.722929 99.163894,180.64625 C100.099894,180.802015 101.009657,181.114761 101.931623,181.355838 C98.0082329,181.321636 94.0799618,181.479225 90.1693855,181.022884 C89.9204363,180.909103 89.6806397,180.727783 89.4213177,180.692492 C78.0746058,179.151883 68.4949448,174.242256 60.9727753,165.60097 C51.6750126,154.918924 48.4234194,142.372572 51.2942668,128.709094 C55.071216,110.734101 66.6925041,99.8025889 84.2379279,94.8479351 C85.671216,94.4433122 87.2796228,94.5747391 88.5286397,93.5567927 C92.7314872,93.2866383 96.935555,92.9373852 101.134131,93.6152042" id="Fill-13" fill="#6C01FC"></path>
            <path d="M113.397684,181.478496 C109.582904,180.397879 105.626565,179.82593 101.969819,178.174582 C86.0163279,170.96986 76.3994465,159.022835 74.5664974,141.419 C73.1210058,127.537087 77.7125313,115.652734 87.5448024,105.893107 C94.3213448,99.1666312 102.578158,95.0254828 112.113277,93.6065642 C113.494701,93.3266746 114.948124,93.4550591 116.281345,92.8885869 C119.160735,92.8849363 122.040735,92.881894 124.921345,92.8782433 C120.988192,93.8037039 117.037345,94.6397221 113.292124,96.2478696 C96.5551753,103.434947 85.764938,120.185727 86.2774804,138.264158 C86.9114465,160.632809 102.933277,178.42344 125.238023,181.536299 C125.505277,181.573415 125.756667,181.720661 126.015989,181.817405 C121.80765,181.774205 117.590158,182.088168 113.397684,181.478496" id="Fill-15" fill="#FE5C01"></path>
            <path d="M88.5285177,93.5566713 C87.2801109,94.574617 85.671094,94.4437991 84.2378058,94.848422 C66.6923821,99.8030758 55.071094,110.733979 51.294755,128.708973 C48.4232974,142.37245 51.6748906,154.919411 60.9726533,165.600848 C68.4948228,174.242134 78.075094,179.151761 89.4211957,180.692371 C89.6805177,180.72827 89.9203143,180.908981 90.1692635,181.022762 C76.6881787,181.662249 64.3914329,178.483069 54.1979414,169.297824 C29.4641109,147.010706 37.9961109,107.01084 69.6999075,96.1985849 C75.8192974,94.1115826 82.1077041,93.4118585 88.5285177,93.5566713" id="Fill-17" fill="#FC00D8"></path>
            <path d="M160.074247,60.0218269 C160.095785,64.6302692 163.978904,68.4568458 168.561887,68.3850484 C173.087514,68.3132504 176.85348,64.5390006 176.88826,60.0388637 C176.92426,55.4115593 173.146091,51.6409604 168.472802,51.6397421 C163.779989,51.6379181 160.053074,55.3574068 160.074247,60.0218269" id="Path" fill="#FBFBFB"></path>
            <path d="M168.423989,78.2378844 C158.270769,78.2134304 150.099379,70.0820304 150.086533,59.9901872 C150.073141,49.8697464 158.425752,41.6032695 168.60887,41.6574921 C178.676057,41.7127915 186.876735,50.0102996 186.804735,60.068678 C186.732124,70.2207586 178.596124,78.2627156 168.423989,78.2378844" id="Path" fill="#FBFBFB"></path>
            <path d="M118.388382,42.4083779 C118.388382,49.4865411 118.575704,56.2781217 118.340789,63.0550995 C118.050348,71.4663885 110.468992,78.2500595 101.763094,78.2458043 C93.0639075,78.2415409 85.5746872,71.5047212 85.1731957,63.0459726 C84.9346194,58.018913 85.1170601,52.9717743 85.0944838,47.934371 C85.0914329,47.2602023 85.1792974,46.8087282 85.9529923,46.5136273 C89.0081109,45.348435 92.0253991,44.0846728 95.2959075,42.7606736 C95.2959075,49.1348538 95.2782126,55.2705193 95.3032296,61.4055765 C95.3160431,64.7015803 97.0196363,67.1755601 99.7763821,68.0444347 C103.98167,69.3696508 108.12045,66.4003879 108.207704,61.8746955 C108.297399,57.2577351 108.270552,52.6377322 108.199772,48.0201633 C108.182077,46.8653146 108.510958,46.2830227 109.615975,45.8765744 C112.491094,44.8190786 115.318009,43.6325904 118.388382,42.4083779" id="Fill-21" fill="#FCFCFC"></path>
            <path d="M139.053724,33.1588802 C139.053724,34.392828 139.009792,35.4235517 139.063487,36.4494078 C139.164165,38.382471 138.217182,40.9477195 139.455826,42.0630185 C140.516301,43.0189021 143.044233,42.3569025 144.923555,42.4049705 C145.343962,42.4159227 145.76986,42.4475624 146.185385,42.398886 C147.220843,42.2778033 147.685792,42.5777719 147.637589,43.745398 C147.545453,45.9808637 147.543013,48.2248477 147.638199,50.4597048 C147.688843,51.6510608 147.181792,51.8415074 146.16647,51.8092592 C144.274335,51.750239 142.376708,51.8457665 140.485182,51.7721434 C139.412504,51.7307684 139.004301,52.024044 139.028708,53.166115 C139.101318,56.5229642 139.006741,59.8828557 139.078131,63.2397051 C139.150131,66.6488813 140.619419,68.0398102 144.013182,68.1024814 C147.611352,68.1688031 147.611352,68.1688031 147.611352,71.7069722 L147.611352,72.5466405 C147.611352,77.7276397 147.611352,77.7276397 142.481657,77.608991 C133.608572,77.4039411 128.918809,72.6938872 128.824233,63.8524196 C128.788233,60.4249896 128.763826,56.9951257 128.845589,53.5689126 C128.877318,52.2540402 128.59725,51.6942611 127.132843,51.750239 C125.628165,51.8074339 123.55603,52.4767349 122.741453,51.4277576 C121.984843,50.4536203 122.480301,48.4907427 122.475419,46.9629109 C122.460165,42.4566892 122.470538,42.3928014 126.97847,42.4433032 C128.442267,42.4597315 129.116504,42.0660608 128.808979,40.59299 C128.240301,37.8665007 129.519826,36.616733 132.055691,35.8987555 C134.383487,35.2397981 136.587419,34.1451866 139.053724,33.1588802" id="Fill-23" fill="#FDFDFD"></path>
            <path d="M80.7071211,33.1151931 C80.7071211,47.7077822 80.6973584,61.9565937 80.7260631,76.2054053 C80.728477,77.2933241 80.400816,77.6705662 79.2896974,77.6395355 C76.7696974,77.5689541 74.2442058,77.5586105 71.724816,77.6431861 C70.5575618,77.6821271 70.3501041,77.2227433 70.3525027,76.1853264 C70.3818329,63.6103757 70.3745109,51.034817 70.3635279,38.4598665 C70.3629177,37.7090324 70.4483414,37.2070566 71.3160024,36.8803159 C74.3705109,35.7315519 77.3786465,34.4617052 80.7071211,33.1151931" id="Fill-25" fill="#F8F8F8"></path>
            <path d="M116.281101,92.8888304 C114.94788,93.4553026 113.494457,93.326918 112.113033,93.6061993 C112.082524,93.4072346 112.051406,93.2088777 112.020897,93.0111297 C113.43405,92.7342824 114.857575,92.8060804 116.281101,92.8888304" id="Fill-27" fill="#BB8200"></path>
            <path d="M107.098172,93.1746216 C106.513019,93.3881894 105.921155,93.3979253 105.323799,93.233642 C105.907731,92.9866088 106.495324,92.8472729 107.098172,93.1746216" id="Fill-29" fill="#BB8200"></path>
            <path d="M164.141575,121.704919 C162.875474,124.767884 161.713711,127.58625 160.546457,130.402791 C156.809779,139.42071 153.041372,148.426461 149.368762,157.470544 C148.835474,158.784199 148.200287,159.278265 146.776762,159.171786 C144.68388,159.016021 142.09066,159.824659 140.609169,158.856606 C139.141711,157.897071 138.756694,155.257591 137.952491,153.331829 C134.969982,146.189778 131.97405,139.053203 129.078796,131.875862 C128.587609,130.659559 128.047609,130.161234 126.696084,130.209911 C123.683677,130.318216 120.663948,130.278666 117.648491,130.224513 C116.650253,130.206868 116.318931,130.504403 116.330524,131.522958 C116.381779,136.13931 116.285982,140.757487 116.38544,145.372014 C116.45866,148.738598 118.14883,150.265214 121.561508,150.369867 C121.772016,150.376561 121.982524,150.37291 122.193033,150.374127 C126.857779,150.410026 126.857779,150.410026 126.857779,154.969792 C126.857779,159.13832 126.857779,159.129193 122.773304,159.141971 C120.877508,159.148056 118.992084,159.098163 117.110321,158.818881 C111.367406,157.967652 107.362863,153.962189 107.044965,148.159957 C106.753914,142.859093 106.84666,137.533282 106.886931,132.219031 C106.897914,130.748394 106.66483,130.160626 104.980152,130.195308 C100.231202,130.293269 100.228762,130.204435 100.228762,125.524803 C100.228762,121.878329 100.228762,121.878329 103.984965,121.878329 C106.852762,121.878329 107.070592,121.856424 106.786863,119.008244 C106.537304,116.500191 107.526389,115.386108 109.777914,114.701596 C111.961101,114.037771 114.049101,113.059983 116.35066,112.151559 C116.35066,114.938285 116.447677,117.523613 116.31466,120.09738 C116.235338,121.626428 116.78083,121.934307 118.201914,121.910577 C123.251067,121.827827 128.30388,121.938566 133.352423,121.839996 C134.773508,121.812007 135.419677,122.216022 135.921847,123.565576 C138.642592,130.874344 141.47744,138.142345 144.282389,145.446246 C145.164694,145.247889 145.082321,144.470892 145.278185,143.967699 C147.961711,137.081199 150.634253,130.19044 153.220762,123.267433 C153.654592,122.104674 154.156762,121.624603 155.44483,121.672671 C158.236965,121.777325 161.035813,121.704919 164.141575,121.704919" id="Fill-31" fill="#020202"></path>
            <path d="M47.7609584,51.6391414 C52.4665855,51.6507565 56.2380431,55.3532085 56.2453828,59.9683437 C56.252077,64.5463629 52.4495007,68.3321736 47.7896363,68.3863261 C43.0998736,68.4404786 39.1618397,64.5433206 39.2021109,59.8874191 C39.2411618,55.284453 43.0351957,51.6276352 47.7609584,51.6391414" id="Fill-33" fill="#030303"></path>
            <path d="M160.074247,60.0218269 C160.053074,55.3574068 163.779989,51.6379181 168.472802,51.6397421 C173.146091,51.6409604 176.92426,55.4115593 176.88826,60.0388637 C176.85348,64.5390006 173.087514,68.3132504 168.561887,68.3850484 C163.978904,68.4568458 160.095785,64.6302692 160.074247,60.0218269" id="Fill-35" fill="#030303"></path>
        </g>
    </g>
</svg>