<?xml version="1.0" encoding="UTF-8"?>
<svg width="136px" height="136px" viewBox="0 0 136 136" version="1.1" xmlns="http://www.w3.org/2000/svg" xmlns:xlink="http://www.w3.org/1999/xlink">
    <title>Group</title>
    <g id="Page-1" stroke="none" stroke-width="1" fill="none" fill-rule="evenodd">
        <g id="Group">
            <path d="M135.6906,65.1965265 L135.6906,71.3113224 C135.587559,71.4084653 135.613927,71.5371796 135.61358,71.6551388 C135.606641,73.1917306 135.426233,74.714098 135.249988,76.2382 C134.975906,78.6081388 134.55611,80.953098 134.017661,83.2748122 C132.633376,89.2425061 130.477845,94.9194653 127.552457,100.303955 C124.773131,105.420261 121.38562,110.097343 117.411437,114.34769 C114.800722,117.1402 111.969702,119.693669 108.92462,122.005669 C104.903253,125.058384 100.59809,127.63718 96.0032327,129.733731 C91.9981714,131.561404 87.8539878,132.977608 83.574151,134.000731 C81.5070898,134.495118 79.4185184,134.881261 77.3150286,135.176853 C76.1885184,135.335751 75.0554163,135.4492 73.9226612,135.557098 C72.9560898,135.649384 71.9870898,135.728139 71.0153143,135.751731 C70.9396816,135.753465 70.8623143,135.7552 70.8213755,135.837424 L64.891151,135.837424 C64.8505592,135.7552 64.7728449,135.755547 64.6975592,135.751037 C64.2732531,135.724322 63.8496408,135.6872 63.4253347,135.671935 C62.2256204,135.629261 61.032498,135.503322 59.842498,135.360731 C57.7185388,135.105731 55.6105388,134.753588 53.5167633,134.305343 C48.4767837,133.225669 43.6290082,131.582567 38.9668449,129.38922 C35.6199265,127.814465 32.4228857,125.975343 29.3767633,123.874282 C26.3812939,121.807914 23.5665796,119.519506 20.9374776,117.003853 C19.5535388,115.679241 18.226151,114.299812 16.9580898,112.862445 C15.0960694,110.751669 13.3686612,108.536812 11.7817633,106.212322 C11.7061306,106.101996 11.5996204,106.004159 11.5996204,105.853935 C11.6703959,105.686016 11.8365796,105.62669 11.9718857,105.536139 C15.0405592,103.485731 18.1078449,101.433241 21.1827633,99.3918531 C21.9158449,98.9054449 22.6218653,98.3767102 23.3965796,97.9544857 C23.4860898,97.9940367 23.5242531,98.0793837 23.5759469,98.1539755 C25.7772735,101.341649 28.2672531,104.280914 31.0930694,106.936037 C33.6378653,109.327486 36.3800694,111.459424 39.3335592,113.321445 C42.8581102,115.543935 46.5918653,117.330669 50.5348245,118.67471 C53.6749673,119.745016 56.8865796,120.51522 60.1731306,120.983935 C61.9338449,121.235465 63.7001102,121.424894 65.4743551,121.485608 C68.1020694,121.575465 70.7290898,121.544241 73.3498653,121.254547 C74.7688449,121.097384 76.1833143,120.915935 77.5856408,120.657118 C80.5172735,120.115894 83.3868041,119.341527 86.1886816,118.318751 C89.1650694,117.231792 92.0241918,115.895731 94.7625796,114.302241 C97.9124367,112.468669 100.842682,110.334996 103.564069,107.908853 C105.668253,106.032608 107.607988,104.000935 109.390906,101.820078 C111.571069,99.1531592 113.476804,96.3020163 115.108804,93.2659551 C116.841416,90.0418531 118.229518,86.6779347 119.2686,83.1693429 C120.08009,80.4278327 120.67509,77.6408735 121.030702,74.8011796 C121.242335,73.1115878 121.404355,71.4188735 121.446335,69.7181796 C121.497335,67.6514653 121.475131,65.5861388 121.296457,63.5222 C121.173294,62.0987102 121.014396,60.6811184 120.78611,59.2728939 C120.477682,57.3692408 120.065171,55.4864041 119.550661,53.6257714 C118.290927,49.0742816 116.461518,44.7659959 114.065212,40.6981388 C113.610722,39.9268939 113.137151,39.166751 112.6726,38.4014041 C112.78258,38.3212612 112.890131,38.2369551 113.003233,38.1613224 C115.637539,36.4023429 118.271151,34.6426694 120.907192,32.8871592 C122.104824,32.0895469 123.308008,31.3002612 124.508416,30.5071592 C124.564273,30.5775878 124.625682,30.6445469 124.675294,30.7194857 C126.754498,33.8696898 128.542967,37.178098 130.060824,40.6332612 C131.289335,43.4295878 132.320784,46.2973837 133.1576,49.2359551 C133.839335,51.6301796 134.393049,54.0525061 134.803824,56.5084857 C135.064029,58.0645061 135.273927,59.6260776 135.430743,61.1959755 C135.518171,62.0719959 135.583049,62.9483633 135.623988,63.8271592 C135.592069,64.2861592 135.634049,64.7416898 135.6906,65.1965265" id="Fill-1" fill="#4FB4EC"></path>
            <path d="M112.672531,38.4012653 C112.503224,38.2638776 112.411286,38.0671633 112.292286,37.8926531 C107.137816,30.3293878 100.512673,24.4199796 92.3884082,20.2043265 C87.7324898,17.7882449 82.8191429,16.1135714 77.6594694,15.1626122 C75.3252653,14.7324082 72.9747551,14.4617959 70.6041224,14.3355102 C68.4756531,14.2224082 66.3485714,14.2342041 64.2246122,14.3809592 C57.4055306,14.8517551 50.8875918,16.512898 44.7356735,19.5024694 C33.7252245,24.8533061 25.4403265,33.0067143 19.8913878,43.9203673 C17.5419184,48.5412449 15.9609184,53.4261429 15.056449,58.5327347 C14.3830408,62.3358776 14.1145102,66.1678163 14.2786122,70.0216122 C14.7015306,79.9856939 17.6453061,89.1459184 23.1265918,97.483898 C23.2258163,97.6348163 23.358,97.7683878 23.3965102,97.9546939 C22.6217959,98.3769184 21.9157755,98.9053061 21.1826939,99.3917143 C18.1081224,101.433102 15.0404898,103.485592 11.9721633,105.536 C11.8365102,105.626551 11.6703265,105.685878 11.599551,105.853796 C11.4413469,105.771918 11.3723061,105.612327 11.2814082,105.475633 C6.49955102,98.2676327 3.20536735,90.4330612 1.411,81.9708776 C0.814959184,79.1606735 0.400020408,76.3216735 0.183183673,73.4549184 C0.102,72.3787143 0.0166530612,71.3032041 0.00693877551,70.2235306 C0.0589795918,69.9071224 0.0187346939,69.5893265 0.0194285714,69.2718776 C0.023244898,68.2879592 0.0249795918,67.3040408 0.0246326531,66.3197755 C0.0242857143,66.1542857 0.00867346939,65.9887959 0,65.8233061 C0.0322653061,63.7538163 0.211285714,61.6954286 0.455877551,59.6412041 C0.941591837,55.5563469 1.79887755,51.5512857 3.03085714,47.628102 C6.11895918,37.7941224 11.1693469,29.0942857 18.2083878,21.5702245 C26.820449,12.364898 37.2005102,6.02042857 49.3180408,2.53646939 C52.2403061,1.69618367 55.2121837,1.08002041 58.2246531,0.652938776 C60.378102,0.347285714 62.5409184,0.157163265 64.7113673,0.037122449 C64.7717347,0.034 64.8310612,0.0208163265 64.8910816,0.0121428571 C65.2199796,0.00797959184 65.5488776,0.00416326531 65.8777755,0 C66.0255714,0.0544693878 66.1782245,0.0291428571 66.3294898,0.0291428571 C67.3474082,0.0284489796 68.3656735,0.0284489796 69.3835918,0.0291428571 C69.5348571,0.0294897959 69.6875102,0.0544693878 69.8349592,0 C70.1638571,0.00416326531 70.4924082,0.00797959184 70.8216531,0.0121428571 C71.6543061,0.0738979592 72.4866122,0.137040816 73.3192653,0.197061224 C76.2012857,0.404877551 79.0541633,0.824673469 81.8792857,1.4217551 C89.2212041,2.97257143 96.1242449,5.65926531 102.56551,9.51306122 C111.336816,14.7612041 118.567367,21.6396122 124.281449,30.1146327 C124.366102,30.2395306 124.433061,30.3762245 124.508347,30.5073673 C123.307939,31.3001224 122.104755,32.0894082 120.907122,32.8870204 C118.271082,34.6428776 115.637469,36.402551 113.00351,38.1615306 C112.890061,38.2368163 112.78251,38.3211224 112.672531,38.4012653" id="Fill-7" fill="#0167BF"></path>
            <path d="M67.8351,67.8785367 C67.9780388,67.7924959 68.1241,67.7123531 68.2628755,67.6200673 C78.7199571,60.6472918 89.1766918,53.6738224 99.6337735,46.7007 C99.7690796,46.6104959 99.9099367,46.5286184 100.080631,46.423149 C100.164243,46.6292306 100.133365,46.8096388 100.133712,46.9827612 C100.135447,51.1345776 100.1351,55.2867408 100.1351,59.4385571 C100.1351,68.5790061 100.135447,77.7194551 100.134406,86.8595571 C100.134406,87.1783939 100.141692,87.4958429 100.044549,87.8087816 C99.7649163,88.7080469 99.0200388,89.3259449 98.0878143,89.4119857 C97.9368959,89.4257238 97.7842429,89.4257238 97.6322837,89.4257238 C77.1379163,89.4257238 56.643549,89.4257238 36.1491816,89.4248224 C35.982651,89.4248224 35.8164673,89.4067816 35.6502837,89.3974143 C35.7984265,89.2909041 35.9431,89.1798837 36.0943653,89.0789245 C46.5153653,82.1280061 56.9370592,75.1777816 67.3580592,68.2261694 C67.5214673,68.1168837 67.676202,67.9947612 67.8351,67.8785367" id="Fill-10" fill="#303E49"></path>
            <path d="M67.8351,67.8785367 C67.676202,67.9947612 67.5214673,68.1168837 67.3580592,68.2261694 C56.9370592,75.1777816 46.5153653,82.1280061 36.0943653,89.0789245 C35.9431,89.1798837 35.7984265,89.2909041 35.6502837,89.3974143 C35.5253857,89.2693939 35.5822837,89.1084143 35.5822837,88.9637408 C35.5791612,74.9279857 35.5791612,60.8925776 35.5812429,46.8571694 C35.5812429,46.7246388 35.5475898,46.5862102 35.6190592,46.4557612 C35.7581816,46.4363327 35.8414469,46.5414551 35.9368551,46.6049449 C46.5705286,53.6946388 57.2028143,60.7867612 67.8351,67.8785367" id="Fill-12" fill="#FFBF00"></path>
        </g>
    </g>
</svg>