<?xml version="1.0" encoding="UTF-8"?>
<svg width="58px" height="49px" viewBox="0 0 58 49" version="1.1" xmlns="http://www.w3.org/2000/svg" xmlns:xlink="http://www.w3.org/1999/xlink">
    <title>iconOnlineStreaming</title>
    <g id="Page-1" stroke="none" stroke-width="1" fill="none" fill-rule="evenodd">
        <g id="Artboard" transform="translate(-1062.000000, -53.000000)" fill-rule="nonzero">
            <g id="iconOnlineStreaming" transform="translate(1062.000000, 53.000000)">
                <path d="M52.6,1 C53.9248,1 55,2.08266667 55,3.41666667 L55,30 L1,30 L1,3.41666667 C1,2.08266667 2.0752,1 3.4,1 L52.6,1 Z" id="Path" fill="#2B2D42"></path>
                <path d="M1,31 L55,31 L55,37.4285714 C55,38.848 53.9248,40 52.6,40 L3.4,40 C2.0752,40 1,38.848 1,37.4285714 L1,31 Z" id="Path" fill="#0DD680"></path>
                <path d="M32.5384615,39 C32.5384615,39 33.1038462,43.7066667 35.9538462,47 L36,47 L21,47 C23.8846154,43.6666667 24.4153846,39 24.4153846,39 L32.5384615,39 Z" id="Path" fill="#0DD680"></path>
                <polygon id="Path" fill="#0DD680" points="25 11 25 22 36 16.5"></polygon>
                <path d="M7.23076923,37.4285714 L7.23076923,31 L1,31 L1,37.4285714 C1,38.848 2.24061538,40 3.76923077,40 L10,40 C8.47138462,40 7.23076923,38.848 7.23076923,37.4285714 Z" id="Path" fill="#0BB36B"></path>
                <path d="M22.5710456,39 C22.5710456,39 22.0160858,43.6666667 19,47 L25.4289544,47 C28,43 28,39 28,39 L22.5710456,39 Z" id="Path" fill="#0BB36B"></path>
                <polygon id="Path" fill="#0BB36B" points="28 13.5 24 10 24 24 28 20.5"></polygon>
                <path d="M10,1 L3.76923077,1 C2.24061538,1 1,2.08266667 1,3.41666667 L1,30 L7.23076923,30 L7.23076923,3.41666667 C7.23076923,2.08266667 8.47138462,1 10,1 Z" id="Path" fill="#1A1829"></path>
                <path d="M25.875,24 C25.5325,24 25.1925,23.9075009 24.8875,23.7200028 C24.3375,23.3775063 24,22.7750123 24,22.1250189 L24,10.8751321 C24,10.2251386 24.3375,9.62264469 24.8875,9.28014814 C25.445,8.93515161 26.135,8.91015186 26.71,9.19764897 L37.96,14.8225924 C38.6,15.1400892 39,15.7900826 39,16.5000755 C39,17.2100683 38.6,17.8600618 37.9625,18.1775586 L26.7125,23.802502 C26.4475,23.9350007 26.16,24 25.875,24 Z M26.1428571,12.2142857 L26.1428571,20.7857143 L34.7142857,16.5 L26.1428571,12.2142857 Z" id="Shape" fill="#FAFBFC"></path>
                <path d="M53.7708333,41 L4.22916667,41 C1.89708333,41 0,39.1067647 0,36.7794118 L0,4.22058824 C0,1.89323529 1.89708333,0 4.22916667,0 L53.7708333,0 C56.1029167,0 58,1.89323529 58,4.22058824 L58,36.7794118 C58,39.1067647 56.1029167,41 53.7708333,41 Z M3.61904762,3 C3.27733333,3 3,3.28 3,3.625 L3,37.375 C3,37.72 3.27733333,38 3.61904762,38 L54.3809524,38 C54.7226667,38 55,37.72 55,37.375 L55,3.625 C55,3.28 54.7226667,3 54.3809524,3 L3.61904762,3 Z" id="Shape" fill="#FAFBFC"></path>
                <polygon id="Path" fill="#FAFBFC" points="1 30 55 30 55 32 1 32"></polygon>
                <path d="M37.1249138,49 L20.8741669,49 C20.114132,49 19.4316006,48.5252918 19.1415873,47.7989624 C18.8540741,47.0726329 19.0115813,46.2347601 19.549106,45.6796368 C22.1642262,42.9662776 22.7142515,39.0518807 22.7192517,39.0129702 L25.4344225,39.5265888 C25.4169217,39.6796368 25.0669056,43.2918288 23.5768371,46.1089494 L34.3822418,46.1089494 C32.9046739,43.307393 32.5396571,39.692607 32.5171561,39.542153 L35.2298267,39 C35.2373271,39.0389105 35.7873523,42.7846952 38.194963,45.4565499 C38.6824854,45.8093385 39,46.3929961 39,47.0544747 C39,48.1284047 38.1599614,49 37.1249138,49 Z" id="Path" fill="#FAFBFC"></path>
            </g>
        </g>
    </g>
</svg>