<?xml version="1.0" encoding="UTF-8"?>
<svg width="53px" height="49px" viewBox="0 0 53 49" version="1.1" xmlns="http://www.w3.org/2000/svg" xmlns:xlink="http://www.w3.org/1999/xlink">
    <title>iconSearchEngine</title>
    <g id="Page-1" stroke="none" stroke-width="1" fill="none" fill-rule="evenodd">
        <g id="Artboard" transform="translate(-831.000000, -53.000000)" fill-rule="nonzero">
            <g id="iconSearchEngine" transform="translate(831.000000, 53.000000)">
                <path d="M44.6444444,42 L4.35555556,42 C1.94911111,42 0,40.0520588 0,37.6470588 L0,5 L49,5 L49,37.6470588 C49,40.0520588 47.0508889,42 44.6444444,42 Z" id="Path" fill="#2B2D42"></path>
                <ellipse id="Oval" fill="#2FDF84" cx="35.5" cy="34" rx="9.5" ry="9"></ellipse>
                <path d="M31.0232558,34 C31.0232558,29.86 33.988093,26.4082353 38,25.36 C37.1940465,25.1503529 36.3635349,25 35.4883721,25 C30.2485581,25 26,29.0298824 26,34 C26,38.9701176 30.2485581,43 35.4883721,43 C36.3635349,43 37.1940465,42.8517647 38,42.64 C33.988093,41.5917647 31.0232558,38.14 31.0232558,34 Z" id="Path" fill="#00B871"></path>
                <path d="M5.76470588,37.6470588 L5.76470588,5 L1,5 L1,37.6470588 C1,40.0520588 2.89529412,42 5.23529412,42 L10,42 C7.66,42 5.76470588,40.0520588 5.76470588,37.6470588 Z" id="Path" fill="#1A1829"></path>
                <path d="M44.6444444,45 L4.35555556,45 C1.94911111,45 0,43.0520588 0,40.6470588 L0,8 L49,8 L49,40.6470588 C49,43.0520588 47.0508889,45 44.6444444,45 Z" id="Path" fill="#2B2D42"></path>
                <path d="M50,9 L1,9 L1,5.57142857 C1,3.04571429 2.94911111,1 5.35555556,1 L45.6444444,1 C48.0508889,1 50,3.04571429 50,5.57142857 L50,9 Z" id="Path" fill="#0DD680"></path>
                <path d="M11,1 L6.23529412,1 C3.89529412,1 2,3.04571429 2,5.57142857 L2,9 L6.76470588,9 L6.76470588,5.57142857 C6.76470588,3.04571429 8.66,1 11,1 Z" id="Path" fill="#0BB36B"></path>
                <path d="M6.76470588,40.6470588 L6.76470588,8 L2,8 L2,40.6470588 C2,43.0520588 3.89529412,45 6.23529412,45 L11,45 C8.66,45 6.76470588,43.0520588 6.76470588,40.6470588 Z" id="Path" fill="#1A1829"></path>
                <path d="M45.15625,1.5 L5.84375,1.5 C4.6465738,1.5 3.56209976,1.99020374 2.77650044,2.78000412 C1.98801112,3.57270996 1.5,4.66737869 1.5,5.875 L1.5,41.125 C1.5,42.3326213 1.98801112,43.42729 2.77650044,44.2199959 C3.56209976,45.0097963 4.6465738,45.5 5.84375,45.5 L45.15625,45.5 C46.3534262,45.5 47.4379002,45.0097963 48.2234996,44.2199959 C49.0119889,43.42729 49.5,42.3326213 49.5,41.125 L49.5,5.875 C49.5,4.66737869 49.0119889,3.57270996 48.2234996,2.78000412 C47.4379002,1.99020374 46.3534262,1.5 45.15625,1.5 Z" id="Path" stroke="#FAFBFC" stroke-width="3"></path>
                <polygon id="Path-Copy-2" fill="#2B2D42" points="24 49 24 27 53 27 53 49"></polygon>
                <polygon id="Path" fill="#FAFBFC" points="1 8 50 8 50 10 1 10"></polygon>
                <ellipse id="Oval" fill="#0DD680" cx="35.5" cy="34" rx="9.5" ry="9"></ellipse>
                <path d="M31.0232558,34 C31.0232558,29.86 33.988093,26.4082353 38,25.36 C37.1940465,25.1503529 36.3635349,25 35.4883721,25 C30.2485581,25 26,29.0298824 26,34 C26,38.9701176 30.2485581,43 35.4883721,43 C36.3635349,43 37.1940465,42.8517647 38,42.64 C33.988093,41.5917647 31.0232558,38.14 31.0232558,34 Z" id="Path" fill="#0BB36B"></path>
                <path d="M35,45 C28.9346,45 24,40.0654 24,34 C24,27.9346 28.9346,23 35,23 C41.0654,23 46,27.9346 46,34 C46,40.0654 41.0654,45 35,45 Z M35,26.3 C30.754,26.3 27.3,29.754 27.3,34 C27.3,38.246 30.754,41.7 35,41.7 C39.246,41.7 42.7,38.246 42.7,34 C42.7,29.754 39.246,26.3 35,26.3 Z" id="Shape" fill="#FAFBFC"></path>
                <polygon id="Path" fill="#FAFBFC" transform="translate(46.222722, 44.172821) rotate(-45.000000) translate(-46.222722, -44.172821) " points="44.5628703 39.0598952 47.8254746 39.0781455 47.8825738 49.2857469 44.6199695 49.2674966"></polygon>
            </g>
        </g>
    </g>
</svg>