<?xml version="1.0" encoding="UTF-8"?>
<svg width="428px" height="358px" viewBox="0 0 428 358" version="1.1" xmlns="http://www.w3.org/2000/svg" xmlns:xlink="http://www.w3.org/1999/xlink">
    <title>Group 8</title>
    <defs>
        <polygon id="path-1" points="3.52899459e-05 0.544178314 427.922869 0.544178314 427.922869 357.353211 3.52899459e-05 357.353211"></polygon>
    </defs>
    <g id="Page-1" stroke="none" stroke-width="1" fill="none" fill-rule="evenodd">
        <g id="Group-8">
            <g id="Group-3">
                <mask id="mask-2" fill="white">
                    <use xlink:href="#path-1"></use>
                </mask>
                <g id="Clip-2"></g>
                <path d="M315.974671,329.23669 C315.974671,273.45168 316.325549,219.05959 315.577248,164.68545 C315.469837,156.98849 314.760921,144.42708 307.023709,141.70227 C299.648117,139.1067 292.809582,148.71354 286.855403,153.62466 C276.948479,161.79909 267.997517,171.14027 256.046193,182.44159 C254.148589,172.47575 253.03509,166.60969 251.026494,156.0515 C244.710696,166.03888 240.600414,172.53678 235.870726,180.00757 C232.752211,175.3657 229.970252,171.22284 226.282456,165.73014 C223.414568,169.56067 221.405972,172.24599 219.461823,174.84515 C216.508006,170.23559 213.518385,165.58295 207.560625,156.29562 C208.509427,166.25787 208.935492,170.67357 209.436746,175.95446 C207.299257,175.69957 205.215473,176.09806 204.25951,175.24005 C196.293154,168.09595 188.946205,160.19077 180.553784,153.62107 C175.86706,149.9485 168.663326,145.3892 164.223649,146.71391 C160.034599,147.95964 155.960122,156.18074 155.365778,161.71652 C153.52188,178.9198 153.135198,196.29899 152.583819,213.62433 C151.208951,256.65766 150.195702,299.69817 148.627494,342.72432 C148.448475,347.64621 145.677257,352.47835 144.105468,357.35357 C139.178859,354.83339 133.861988,352.86607 129.390087,349.69969 C112.956122,338.06809 107.359981,323.14805 114.567295,303.30253 C126.239349,271.16844 109.239683,246.61643 90.8400863,223.34605 C88.2478878,220.06479 79.787439,221.44694 74.0409217,220.66791 C74.1053686,226.45858 71.7208325,234.97047 74.6281048,237.59835 C95.8526248,256.79049 93.6936528,279.69469 88.2765309,301.65472 C60.4891659,275.47644 31.7279363,249.09712 3.90476746,221.75927 C-5.05335485,212.96018 3.35338823,205.36015 9.66560631,198.94841 C41.1013832,167.01895 72.6445717,135.19719 104.137635,103.32517 C133.951497,73.15481 163.657949,42.87675 193.600705,12.83204 C209.973804,-3.59579999 219.311447,-3.59220999 235.827761,13.08693 C296.780229,74.64466 357.528615,136.39984 418.463181,197.97193 C426.8377,206.42997 432.849166,215.09623 422.265549,225.51082 C387.45705,259.77019 352.380022,293.75313 315.974671,329.23669" id="Fill-1" fill="#00B737" mask="url(#mask-2)"></path>
            </g>
            <path d="M201,220 C201,223.316 198.316,226 195,226 C191.684,226 189,223.316 189,220 C189,216.684 191.684,214 195,214 C198.316,214 201,216.684 201,220" id="Fill-4" fill="#00B737"></path>
            <path d="M275,220 C275,223.316 272.316,226 269,226 C265.684,226 263,223.316 263,220 C263,216.684 265.684,214 269,214 C272.316,214 275,216.684 275,220" id="Fill-6" fill="#00B737"></path>
        </g>
    </g>
</svg>