<?xml version="1.0" encoding="UTF-8"?>
<svg width="608px" height="608px" viewBox="0 0 608 608" version="1.1" xmlns="http://www.w3.org/2000/svg" xmlns:xlink="http://www.w3.org/1999/xlink">
    <title>Fill 1</title>
    <g id="Page-1" stroke="none" stroke-width="1" fill="none" fill-rule="evenodd">
        <path d="M368.5045,253.2362 C368.6285,250.5222 368.7495,249.0992 368.7495,247.6762 C368.7615,218.0582 368.6625,188.4402 368.8715,158.8232 C368.9005,154.6742 367.3155,153.1332 363.7445,151.7822 C269.6195,116.1702 168.4725,169.2592 144.5355,267.4082 C141.2565,280.8502 139.5715,295.0082 139.4915,308.8492 C139.0285,388.7152 139.2705,468.5852 139.2735,548.4542 L139.2735,556.8362 C138.0645,556.4152 137.2425,556.3092 136.6335,555.8922 C74.9305,513.6622 29.7795,458.6382 10.9105,385.4122 C-14.4945,286.8192 4.6535,196.0882 66.3905,115.3932 C115.6715,50.9782 181.6245,13.5112 262.1695,2.6712 C302.8635,-2.8058 343.1565,0.2702 382.9025,10.6902 C386.6625,11.6752 387.8385,13.2522 387.8265,17.1162 C387.6865,62.7072 387.7265,108.2992 387.7215,153.8912 C387.7165,202.4672 388.1365,251.0482 387.5655,299.6182 C387.1665,333.5552 372.9085,360.5942 342.6785,377.2782 C310.3045,395.1452 269.8385,387.7232 243.8825,360.3272 C242.6475,359.0242 241.3995,357.7312 239.5385,355.7852 C239.3735,357.9452 239.1765,359.3232 239.1755,360.7002 C239.1585,390.4852 239.2455,420.2702 239.0635,450.0532 C239.0395,453.9252 240.4075,455.4462 243.8475,456.7692 C343.3835,495.0232 450.8855,432.0172 466.5805,326.0052 C467.8905,317.1542 468.5595,308.1262 468.5765,299.1792 C468.7225,217.9792 468.6575,136.7792 468.6545,55.5792 L468.6545,48.7802 C471.4485,50.5522 473.4095,51.6842 475.2525,52.9822 C554.8245,109.0472 599.7755,185.5602 606.3975,282.6182 C614.1685,396.4962 568.2905,487.1502 476.7175,552.6882 C401.3685,606.6142 316.2885,619.8042 226.0435,597.3862 C221.5775,596.2772 220.0105,594.6232 220.0205,589.7762 C220.1965,495.7642 220.1185,401.7512 220.1775,307.7392 C220.2045,266.0582 248.3195,231.0392 288.4875,223.5432 C318.0405,218.0282 343.2995,227.1062 364.2185,248.5382 C365.4265,249.7762 366.5535,251.0922 368.5045,253.2362" id="Fill-1" fill="#EDF2F4"></path>
    </g>
</svg>