<?xml version="1.0" encoding="UTF-8"?>
<svg width="30px" height="30px" viewBox="0 0 30 30" version="1.1" xmlns="http://www.w3.org/2000/svg" xmlns:xlink="http://www.w3.org/1999/xlink">
    <title>logoEcosia</title>
    <g id="Page-1" stroke="none" stroke-width="1" fill="none" fill-rule="evenodd">
        <g id="logoEcosia" transform="translate(1.000000, 1.000000)">
            <path d="M14,25 C7.898,25 3,20.102 3,14 C3,7.898 7.898,3 14,3 C20.102,3 25,7.898 25,14 C25,20.102 20.102,25 14,25 Z" id="Path" fill="#0097A7" fill-rule="nonzero"></path>
            <path d="M28,14 C28,21.73 21.73,28 14,28 C6.27,28 0,21.73 0,14 C0,6.27 6.27,0 14,0 C21.73,0 28,6.27 28,14 Z" id="Path" stroke="#E65100" stroke-width="2"></path>
            <path d="M6.8,15.398 C6.898,15.801 6.398,16.199 6.3,16.602 C6.2,17 6.102,17.301 5.898,17.398 C5.699,17.602 5.398,17.699 5.199,17.898 C5,18.102 4.399,19.102 4.199,19.199 C3.5,17.602 3,15.9 3,14 C3,13.398 3.102,12.898 3.102,12.398 C3.199,12.398 3.801,12.699 4.199,13 C4.699,13.3 5,14.3 5.399,14.5 C5.801,14.7 6.699,15.102 6.801,15.398 L6.8,15.398 Z M4.8,8 C5.398,8 5.7,7.5 5.898,7.5 C6.102,7.5 6.199,7.602 6.398,7.602 C6.5,7.602 6.801,7.5 6.801,7.199 C6.801,6.899 6.398,6.199 6.398,6.102 C5.801,6.699 5.199,7.301 4.801,8 L4.8,8 Z M8.3,4.898 C8.3,5 8,5.301 8,5.602 C8,5.898 8.2,6.199 8.5,6.199 C9,6.199 9.398,5.699 10.102,5.699 C10.699,5.699 11.898,5.199 11.898,4.5 C11.898,4.2 11.602,4.102 11.301,4.102 C11,4.102 10,4.102 9.601,3.898 C9.101,4.102 8.601,4.398 8.101,4.699 C8.199,4.699 8.301,4.801 8.301,4.899 L8.3,4.898 Z M16.603,19.5 C16.603,19.602 16.7,19.7 16.802,19.7 C16.899,19.7 17.001,19.602 17.102,19.5 C17.302,19.3 17.399,19 17.399,18.7 L17.399,18.5 C17.302,18.398 17.2,18.398 17.2,18.398 C16.9,18.398 16.7,18.898 16.603,19.199 L16.603,19.5 L16.603,19.5 Z M25,14 C25,15.3 24.8,16.5 24.398,17.602 C24.301,17.5 24.102,17.102 24.102,16.801 C24.102,16.601 24.301,16.101 24.301,15.699 C24.301,15.301 23.898,14.199 23.101,14.199 C22.101,14.199 22.199,15.699 21.699,15.699 C21,15.699 21,13.199 20.102,13.199 C19.801,13.199 19.398,13.699 19,14 C18.7,14.3 18,14.3 18,15.2 C18,15.898 16.5,16.102 16.5,17.7 C16.5,18.2 15.898,18.8 15.5,19.102 C15.2,19.398 14.8,20.699 13.7,20.699 C13.102,20.699 12.5,19.5 12.5,18.301 C12.5,17.601 12.7,17.398 12.7,16.699 C12.7,16 12.398,14.699 11,14.699 C10.3,14.699 9.602,14.301 9.602,12.699 C9.602,11.199 11.199,11.199 11.199,9.801 C11.199,9.398 12.102,9 12.102,8.801 C12.102,8.601 11.801,8.199 11.801,8 C11.801,7.8 12.101,7.602 12.301,7.602 C12.5,7.602 13,8.102 13.199,8.102 C13.399,8.102 13.5,7.602 13.602,7.199 C13.699,6.801 14.898,6.199 15.398,6.199 C15.898,6.199 17.199,6.899 18,6.899 C18.7,6.899 21.2,6.5 22,6.5 C23.0800868,7.68261429 23.8973643,9.08064273 24.398,10.602 C24.398,10.699 24.5,10.801 24.5,10.898 C24.602,11.102 24.602,11.398 24.7,11.602 C24.7,11.801 24.8,11.898 24.8,12.102 C24.8,12.301 24.898,12.602 24.898,12.801 L24.898,13.199 C25,13.5 25,13.7 25,14 Z M16.2,11.3 C16.2,11.2 16,11 15.7,11 C15.398,11 15.102,10.602 14.7,10.5 C14.398,10.398 13.5,9.8 13.2,9.8 C12.898,9.8 13,9.8 13,10 C13,10 13.8,11 14.3,11.3 C14.8,11.5 14.898,11.398 15.102,11.398 C15.301,11.398 15.398,11.602 15.699,11.602 C16.102,11.5 16.199,11.398 16.199,11.301 L16.2,11.3 Z" id="Shape" fill="#CDDC39" fill-rule="nonzero"></path>
        </g>
    </g>
</svg>