<?xml version="1.0" encoding="UTF-8"?>
<svg width="100px" height="101px" viewBox="0 0 100 101" version="1.1" xmlns="http://www.w3.org/2000/svg" xmlns:xlink="http://www.w3.org/1999/xlink">
    <title>Group</title>
    <g id="Page-1" stroke="none" stroke-width="1" fill="none" fill-rule="evenodd">
        <g id="Group" transform="translate(0.000000, 0.256333)">
            <path d="M49.7225641,52.79 C49.5053846,52.2453846 49.3505128,51.8912821 49.2215385,51.5282051 C46.2976923,43.3007692 43.3671795,35.075641 40.4705128,26.8384615 C40.2138462,26.1082051 39.8666667,25.7635897 39.0784615,25.7866667 C37.7407692,25.8261538 36.4010256,25.7879487 35.0623077,25.8002564 C33.915641,25.8110256 33.7397436,26.0820513 34.1602564,27.1835897 C38.1220513,37.564359 42.0920513,47.9417949 46.0376923,58.3287179 C46.2623077,58.92 46.3948718,59.5846154 46.3976923,60.2161538 C46.424359,66.224359 46.4315385,72.2325641 46.3946154,78.2405128 C46.3889744,79.1605128 46.6812821,79.4597436 47.5758974,79.3971795 C48.5184615,79.3312821 49.4689744,79.3825641 50.415641,79.3823077 C52.1010256,79.3823077 52.1017949,79.3823077 52.1017949,77.7389744 C52.1023077,71.8941026 52.094359,66.0489744 52.1141026,60.2041026 C52.1158974,59.6302564 52.1966667,59.0246154 52.39,58.4876923 C54.4097436,52.8782051 56.4541026,47.2771795 58.5033333,41.6784615 C60.9220513,35.0694872 63.3538462,28.4651282 65.7761538,21.8576923 C66.1982051,20.7066667 66.0869231,20.5546154 64.8561538,20.55 C63.7458974,20.5458974 62.635641,20.5489744 61.525641,20.5489744 C59.7882051,20.5489744 59.7879487,20.5489744 59.2515385,22.2133333 C56.6433333,30.3058974 54.0166667,38.3928205 51.4402564,46.4953846 C50.8007692,48.5064103 50.3238462,50.5687179 49.7225641,52.79 M6.07435897,0 L94.0541026,0 C94.4605128,0.104871795 94.8687179,0.202307692 95.2728205,0.315641026 C98.1758974,1.12948718 99.8505128,3.54051282 99.8507692,6.92564103 C99.8525641,35.0361538 99.8517949,63.1469231 99.8517949,91.2571795 C99.8517949,92.0407692 99.8761538,92.825641 99.844359,93.6076923 C99.7384615,96.2174359 98.5671795,98.2097436 96.1597436,99.2533333 C95.1792308,99.6782051 94.0092308,99.8271795 92.9251282,99.8282051 C64.2920513,99.8579487 35.6592308,99.8517949 7.02641026,99.8517949 C6.76512821,99.8517949 6.50358974,99.8582051 6.24282051,99.8458974 C3.34,99.7074359 1.07,97.9569231 0.316410256,95.2753846 C0.202820513,94.8705128 0.105128205,94.4612821 1.42108547e-14,94.0541026 L1.42108547e-14,6.07435897 C0.0666666667,5.79589744 0.142820513,5.51948718 0.198717949,5.23897436 C0.685384615,2.79410256 2.11384615,1.17358974 4.47333333,0.387948718 C4.9925641,0.215128205 5.54,0.127179487 6.07435897,0" id="Fill-1" fill="#FF0006"></path>
            <path d="M49.7225641,52.79 C50.3238462,50.5687179 50.8007692,48.5064103 51.4402564,46.4953846 C54.0166667,38.3928205 56.6433333,30.3058974 59.2515385,22.2133333 C59.7879487,20.5489744 59.7882051,20.5489744 61.525641,20.5489744 C62.635641,20.5489744 63.7458974,20.5458974 64.8561538,20.55 C66.0869231,20.5546154 66.1982051,20.7066667 65.7761538,21.8576923 C63.3538462,28.4651282 60.9220513,35.0694872 58.5033333,41.6784615 C56.4541026,47.2771795 54.4097436,52.8782051 52.39,58.4876923 C52.1966667,59.0246154 52.1158974,59.6302564 52.1141026,60.2041026 C52.094359,66.0489744 52.1023077,71.8941026 52.1017949,77.7389744 C52.1017949,79.3823077 52.1010256,79.3823077 50.415641,79.3823077 C49.4689744,79.3825641 48.5184615,79.3312821 47.5758974,79.3971795 C46.6812821,79.4597436 46.3889744,79.1605128 46.3946154,78.2405128 C46.4315385,72.2325641 46.424359,66.224359 46.3976923,60.2161538 C46.3948718,59.5846154 46.2623077,58.92 46.0376923,58.3287179 C42.0920513,47.9417949 38.1220513,37.564359 34.1602564,27.1835897 C33.7397436,26.0820513 33.915641,25.8110256 35.0623077,25.8002564 C36.4010256,25.7879487 37.7407692,25.8261538 39.0784615,25.7866667 C39.8666667,25.7635897 40.2138462,26.1082051 40.4705128,26.8384615 C43.3671795,35.075641 46.2976923,43.3007692 49.2215385,51.5282051 C49.3505128,51.8912821 49.5053846,52.2453846 49.7225641,52.79" id="Fill-4" fill="#FFFFFF"></path>
        </g>
    </g>
</svg>