<?xml version="1.0" encoding="UTF-8"?>
<svg width="324px" height="366px" viewBox="0 0 324 366" version="1.1" xmlns="http://www.w3.org/2000/svg" xmlns:xlink="http://www.w3.org/1999/xlink">
    <title>Group 6</title>
    <g id="Page-1" stroke="none" stroke-width="1" fill="none" fill-rule="evenodd">
        <g id="Group-6">
            <path d="M266.1272,233.4495 C266.9842,240.0525 264.3112,244.4375 258.3632,247.5675 C231.1072,261.9075 204.0022,276.5325 176.7702,290.9195 C166.8092,296.1815 156.5292,296.2405 146.5742,290.9645 C103.0372,267.8845 59.5252,244.7545 16.1082,221.4465 C5.5672,215.7885 0.3152,206.4325 0.1172,194.4675 C-0.0488,184.4775 0.2862,174.4775 0.0252,164.4915 C-0.2438,154.1745 3.4632,145.8015 10.7202,138.5725 C46.5882,102.8385 82.3562,67.0045 118.1502,31.1965 C124.1542,25.1895 130.1462,19.1695 136.0812,13.0945 C140.4312,8.6425 145.0672,4.6575 151.1422,2.7345 C151.9802,2.4695 152.6252,1.9995 152.6292,1.0005 L169.6192,1.0005 C177.3722,4.7835 184.3682,9.5165 190.1872,16.0345 C194.8342,21.2405 199.9402,26.0375 204.8802,30.9795 C240.1692,66.2805 275.3642,101.6775 310.8382,136.7915 C319.4472,145.3145 323.3562,154.9055 323.292973,167.0485 C323.0042,221.9535 323.1742,276.8595 323.1602,331.7655 C323.1572,346.6325 315.2372,357.9705 301.3952,363.1455 C300.3882,363.5215 298.9682,363.3345 298.5442,364.7815 L23.7042,364.7815 C23.0942,362.7685 21.0762,362.9925 19.6662,362.3235 C7.4212,356.5185 0.3312,346.9845 0.1742,333.3695 C-0.1328,306.5575 0.0462,279.7415 0.1082,252.9275 C0.1252,245.8185 4.6482,241.1215 10.9822,241.2445 C17.3172,241.3675 21.5302,246.0715 21.5402,253.2645 C21.5762,278.4135 21.5452,303.5625 21.5602,328.7115 C21.5662,340.0365 24.7832,343.2215 36.1272,343.2215 C119.9022,343.2225 203.6782,343.2235 287.4542,343.2205 C298.3772,343.2205 301.6852,339.9105 301.6872,328.8755 C301.6982,274.7465 301.6442,220.6185 301.7652,166.4905 C301.7772,160.9395 300.1332,156.7195 296.1562,152.7575 C254.7472,111.4935 213.4762,70.0925 172.1612,28.7345 C163.7882,20.3525 159.5012,20.3115 151.2752,28.5455 C109.7262,70.1395 68.2132,111.7715 26.5812,153.2825 C22.9952,156.8585 21.3502,160.6385 21.4862,165.6695 C21.7312,174.6575 21.6232,183.6565 21.5352,192.6485 C21.4862,197.6695 23.5652,201.0615 28.0622,203.4485 C70.5602,226.0035 113.0122,248.6455 155.4602,271.2955 C159.0702,273.2205 162.7222,273.8885 166.4192,271.9175 C192.5582,257.9795 218.6662,243.9845 244.7842,230.0085 C245.6932,229.6565 246.6442,229.3845 247.5072,228.9425 C256.6482,224.2665 260.3292,225.1485 266.1272,233.4495" id="Fill-1" fill="#1E7DC1"></path>
            <path d="M266.1272,233.4495 C260.3292,225.1485 256.6482,224.2665 247.5072,228.9425 C246.6442,229.3845 245.6932,229.6565 244.7842,230.0085 C244.7532,209.5275 244.7262,189.0475 244.6892,168.5665 C244.6712,159.0745 240.8852,155.1255 231.4252,155.1165 C184.9662,155.0745 138.5062,155.0775 92.0472,155.1125 C82.3012,155.1195 78.5712,159.0075 78.5582,168.8415 C78.5492,176.0015 78.6342,183.1625 78.5312,190.3215 C78.4312,197.3155 73.8802,201.9995 67.5192,201.8875 C61.3932,201.7805 57.0342,197.1675 56.9432,190.3775 C56.8312,181.8865 56.7262,173.3875 56.9602,164.9015 C57.4282,147.8545 70.8982,134.0005 88.0022,133.9105 C137.1232,133.6555 186.2472,133.6585 235.3682,133.9205 C252.0492,134.0085 265.8212,147.3985 266.1622,164.0275 C266.6372,187.1585 266.1832,210.3075 266.1272,233.4495" id="Fill-4" fill="#FEB61D"></path>
        </g>
    </g>
</svg>