<?xml version="1.0" encoding="UTF-8"?>
<svg width="100px" height="100px" viewBox="0 0 100 100" version="1.1" xmlns="http://www.w3.org/2000/svg" xmlns:xlink="http://www.w3.org/1999/xlink">
    <title>Group</title>
    <g id="Page-1" stroke="none" stroke-width="1" fill="none" fill-rule="evenodd">
        <g id="Group" fill-rule="nonzero">
            <rect id="bg" fill="#A9D158" x="0.0973841476" y="0" width="99.6176471" height="99.6074665"></rect>
            <polygon id="Path" fill="#FFFFFF" points="21.0984873 51.2851474 8.96216432 98.6932224 0 99.6264426 12.136323 52.2183676"></polygon>
            <polygon id="Path" fill="#FFFFFF" points="46.3054565 48.3223191 34.1691335 95.9173344 25.2069692 96.8506253 37.5295924 49.25561 46.3047509 48.3223897"></polygon>
            <path d="M82.7186597,58.9038488 C82.9053829,60.77036 82.9053829,62.8234591 82.5319362,64.6898997 C82.1584891,66.5564112 81.4116656,68.4228518 80.1046715,69.9160468 C78.9844009,71.4091712 77.1173068,72.7157079 74.8767659,73.8355865 C72.8229482,74.955465 69.8355129,75.5154397 66.2879074,75.8886853 L64.0473662,76.0756259 L65.7277368,92.1271009 L55.831955,93.2469794 L50.6040491,47.8917215 L63.4869841,46.5851847 C66.4743485,46.3982441 69.0883368,46.3982441 71.328525,46.772125 C73.3823426,47.1453003 75.43616,47.8920035 77.1166012,49.0118821 C78.6103188,50.1317606 79.9173129,51.4382974 80.8508597,53.11808 C81.7844068,54.611275 82.3445774,56.6643738 82.7179538,58.9041309 L82.7186597,58.9038488 Z M63.1141015,68.2360526 L64.9811956,68.0491121 C67.7819074,67.8621718 69.8357247,66.9292335 71.1426482,65.809355 C72.2629188,64.6894765 72.8230188,62.6363776 72.6363659,60.3966206 C72.4496424,58.1568632 71.5160953,56.4770809 70.2091012,55.5437897 C68.9021071,54.6105694 66.6615662,54.4239112 64.0476485,54.6105694 L61.6203841,54.7975097 L63.1141015,68.2360526 Z" id="letter_P" fill="#FFFFFF"></path>
            <ellipse id="dot" fill="#E68245" cx="93.8381147" cy="85.0481994" rx="5.60135271" ry="5.59939282"></ellipse>
        </g>
    </g>
</svg>