<?xml version="1.0" encoding="UTF-8"?>
<svg width="428px" height="429px" viewBox="0 0 428 429" version="1.1" xmlns="http://www.w3.org/2000/svg" xmlns:xlink="http://www.w3.org/1999/xlink">
    <title>Group</title>
    <defs>
        <polygon id="path-1" points="5.04175079e-05 0.768 427.656 0.768 427.656 427.999843 5.04175079e-05 427.999843"></polygon>
    </defs>
    <g id="Page-1" stroke="none" stroke-width="1" fill="none" fill-rule="evenodd">
        <g id="Group" transform="translate(0.000000, 0.232000)">
            <g id="Group-3">
                <mask id="mask-2" fill="white">
                    <use xlink:href="#path-1"></use>
                </mask>
                <g id="Clip-2"></g>
                <path d="M366.7374,161.5126 C366.8314,155.1006 361.6474,149.7526 355.1994,149.6086 C348.5884,149.4606 342.8744,154.8956 342.869397,161.3346 C342.8644,167.5236 348.3404,172.9086 354.7684,173.0376 C361.0694,173.1636 366.6454,167.7936 366.7374,161.5126 L366.7374,161.5126 Z M365.8064,186.0726 C365.4854,185.8436 365.1634,185.6146 364.8424,185.3856 C358.3364,183.7526 351.7234,185.0216 345.1694,184.6766 C343.0534,184.5656 342.8374,186.0036 342.8434,187.6376 C342.9244,209.1386 342.9924,230.6386 343.0634,252.1396 C342.9864,259.4476 342.9594,266.7556 342.8094,274.0616 C342.7414,277.3676 344.1044,279.0426 347.4964,279.0136 C352.3204,278.9716 357.1444,278.9686 361.9684,279.015153 C365.2454,279.0466 366.8664,277.6926 366.7794,274.2336 C366.6114,267.5926 366.6334,260.9456 366.5754,254.3016 C366.6334,232.4576 366.6924,210.6136 366.7434,188.7706 C366.7454,187.7756 366.6954,186.7706 365.8064,186.0726 L365.8064,186.0726 Z M330.7504,238.3456 C330.6594,233.0236 330.5694,227.7006 330.4794,222.3796 C329.3524,215.2136 326.1844,208.9986 321.6324,203.4296 C315.6634,195.1356 307.7664,189.6346 297.8584,187.0476 C287.6584,183.6816 277.6154,184.0216 267.7384,188.3146 C261.7294,189.8186 261.1064,189.3086 260.9944,182.8726 C260.9744,181.7316 260.8614,180.5926 260.7914,179.4516 C260.8604,170.9746 260.8834,162.4966 261.0224,154.0206 C261.0754,150.8246 259.6654,149.5146 256.5104,149.5756 C251.3524,149.6756 246.1874,149.7166 241.0324,149.5566 C238.3894,149.4746 237.5714,150.4616 237.6114,153.0206 C237.7724,163.4926 237.7814,173.9666 237.8464,184.4406 L237.8464,220.3746 C237.6134,226.3716 237.3154,232.3706 238.1144,238.3526 C241.5124,261.0216 258.4664,276.6876 281.9904,278.8966 C302.4764,280.8206 322.1884,266.8906 329.4904,245.3296 C329.9104,243.0016 330.3304,240.6736 330.7504,238.3456 L330.7504,238.3456 Z M200.8694,240.3356 L196.7774,247.1476 C193.8474,250.0356 190.4134,252.2106 186.8204,254.1576 C185.8424,254.3066 184.8534,254.4056 183.8884,254.6136 C172.0164,257.1746 160.6584,250.9076 156.5994,239.5536 C155.1864,235.6006 155.2674,231.4476 154.9104,227.3516 C154.9074,222.3566 154.9054,217.3616 154.9034,212.3666 C154.9014,208.3796 154.8994,204.3926 154.8974,200.4066 C154.9654,196.6156 154.9864,192.8236 155.1144,189.0346 C155.2224,185.8286 153.6214,184.6066 150.5684,184.6446 C145.4494,184.7096 140.3254,184.7566 135.2084,184.6166 C132.6894,184.5486 131.4774,185.3416 131.7524,187.9806 C131.9044,189.4516 131.9004,190.9396 131.9664,192.4206 C131.9664,196.7396 131.9654,201.0586 131.9634,205.3786 C131.9614,209.3756 131.9594,213.3726 131.9574,217.3706 C131.9634,222.6956 131.9684,228.0216 131.9734,233.3466 C131.3194,255.9746 152.1904,277.9886 174.6624,278.3726 C182.0824,279.7866 189.0914,278.3366 195.8764,275.3286 C200.4584,274.0136 204.4374,271.6566 207.8884,268.3866 C211.7214,265.8796 214.5844,262.4676 216.9844,258.6266 C219.4304,255.9766 221.0614,252.8816 222.0114,249.4156 C223.9414,246.0416 224.9354,242.4196 224.8994,238.5246 L225.1544,237.5526 C226.0234,235.1976 225.8244,232.7756 225.6024,230.3526 C225.6704,216.7186 225.7014,203.0836 225.831891,189.4496 C225.8634,186.0546 224.3314,184.58804 221.0164,184.6186 C215.8564,184.6676 210.6924,184.7176 205.5344,184.5916 C203.0434,184.5306 201.9254,185.2376 201.9764,187.9536 C202.1764,198.4236 202.2014,208.8956 202.2924,219.3676 C202.2924,220.4176 202.2924,221.4676 202.2934,222.5166 C202.2944,224.4036 202.2964,226.2896 202.2984,228.1766 C202.2714,229.9396 202.2444,231.7016 202.2174,233.4646 L200.8694,240.3356 Z M61.1664,217.4266 C61.1694,220.4286 61.1714,223.4296 61.1744,226.4316 C60.2014,236.4146 61.8604,245.8536 66.8174,254.6726 C78.5604,275.5646 104.0464,284.5366 125.7244,275.3566 C130.7844,273.2136 131.1514,272.2586 128.5634,267.6036 C126.9494,264.7006 124.9944,261.9546 123.6674,258.9306 C121.4894,253.9666 118.3994,252.1116 113.1814,254.5606 C111.8894,255.1666 110.2654,255.2016 108.7854,255.2546 C94.7984,255.7476 84.5794,245.1446 83.7864,229.3726 C83.9054,226.3666 84.0234,223.3606 84.1414,220.3536 C84.8494,217.3626 84.7714,214.3666 84.1884,211.3676 C85.2154,208.7336 87.3084,208.3656 89.8474,208.4046 C97.0044,208.5156 104.1634,208.4476 111.3224,208.4486 C120.0584,208.4486 120.2274,208.2626 119.5574,199.3986 C119.5534,196.7376 119.5504,194.0766 119.5464,191.4156 C119.8364,190.0366 119.9324,188.6646 119.4114,187.3116 C119.2534,187.0476 119.0954,186.7836 118.9364,186.5196 C117.7994,184.1366 115.5844,184.7786 113.6964,184.7646 C105.7194,184.7076 97.7424,184.7166 89.7664,184.7626 C87.5124,184.7766 85.4044,184.6996 84.4294,182.1756 C84.4844,173.0426 84.4704,163.9076 84.6244,154.7756 C84.6894,150.9126 83.0294,149.4086 79.2014,149.5626 C74.3874,149.7556 69.5564,149.7206 64.7404,149.5666 C62.0674,149.4806 60.8734,150.1626 60.9038121,153.1366 C61.0844,170.2406 61.0944,187.3456 61.1614,204.4496 C61.1634,208.7756 61.1654,213.1006 61.1664,217.4266 L61.1664,217.4266 Z M0.2124,214.0836 C0.2124,174.8386 -0.3706,135.5826 0.3954,96.3526 C1.0214,64.3176 13.0054,37.2266 40.0064,18.2026 C53.9174,8.4026 69.6484,3.5936 86.4674,1.8596 C94.5834,1.0226 102.6984,0.7756 110.8444,0.7786 C182.0854,0.8086 253.3254,0.6946 324.5654,0.8606 C344.8764,0.9076 364.6804,3.9896 382.4104,14.8586 C406.8214,29.8236 421.0624,51.6576 425.6124,79.8456 C427.1754,89.5316 427.6644,99.2876 427.656496,109.1036 C427.5964,181.1116 427.7064,253.1186 427.5754,325.1266 C427.5334,348.0956 423.3784,370.1006 409.4094,389.1526 C392.0944,412.7656 368.2374,424.4826 339.4404,427.1006 C331.3154,427.8396 323.1904,427.9796 315.0454,427.9776 C244.4704,427.9586 173.8964,428.0806 103.3224,427.8966 C82.3154,427.8426 61.8784,424.5636 43.7194,412.9386 C20.2784,397.9306 6.5494,376.4946 2.0714,349.1026 C0.4624,339.2546 -0.0156,329.3326 0.0104,319.3516 C0.1024,284.2626 0.0464,249.1726 0.0464,214.0836 L0.2124,214.0836 Z" id="Fill-1" fill="#26262E" mask="url(#mask-2)"></path>
            </g>
            <path d="M241.0321,149.557 C246.1871,149.716 251.3531,149.676 256.5111,149.576 C259.6661,149.515 261.0751,150.825 261.0221,154.02 C260.8831,162.496 260.8601,170.974 260.7911,179.452 L255.0548,180.699072 C256.9668,180.283462 258.8788,179.8679 260.7908,179.4524 C260.8618,180.5924 260.9738,181.7314 260.9938,182.8724 C261.1058,189.3084 261.7298,189.8184 267.7388,188.3144 C267.677492,188.784323 267.595084,189.246897 267.494821,189.703252 L267.631619,189.014703 C267.672417,188.78331 267.708346,188.550223 267.739,188.3153 C277.615,184.0213 287.658,183.6823 297.858,187.0473 C307.7656,189.634195 315.662362,195.134855 321.631276,203.428295 L321.6321,203.4291 C326.050218,208.835276 329.165492,214.848128 330.374462,221.749269 L330.4787,222.3792 L330.4787,222.3792 C330.5697,227.7012 330.6597,233.0232 330.7497,238.3452 C328.015033,238.33995 325.434853,238.98361 322.894031,239.784705 L323.439375,239.615785 C325.804745,238.894964 328.211167,238.340265 330.7505,238.345661 L329.4905,245.3297 L329.4905,245.3297 L329.4903,245.3295 C322.1883,266.8905 302.4763,280.8205 281.9903,278.8965 C258.4663,276.6875 241.5123,261.0215 238.1143,238.3525 L238.114319,238.352204 L237.991191,237.355997 C237.34831,231.703856 237.626344,226.039078 237.8464,220.3743 L237.8468,184.4404 L237.8468,184.4404 L245.057149,182.872837 C242.653544,183.395302 240.249871,183.917701 237.8461,184.44 C237.7811,173.967 237.7721,163.493 237.6111,153.02 C237.5721,150.462 238.3901,149.474 241.0321,149.557 Z M275.967,209.9893 L275.967,209.9883 C271.21,212.1273 267.391,215.4093 264.287,219.5633 C264.1774,219.8833 263.9914,220.1503 263.7264,220.3623 C263.4494,220.8353 263.1734,221.3073 262.8964,221.7793 C262.2134,223.9763 261.5314,226.1733 260.8484,228.3713 L260.8483,228.3715 C260.3453,239.8215 264.3573,248.7795 275.2893,253.6115 C283.3873,257.1915 291.0943,255.4895 298.4453,251.1715 C299.1293,251.247312 299.809355,251.302187 300.485768,251.337736 L299.808325,251.295766 C299.355745,251.263396 298.9015,251.2222 298.4455,251.1717 C301.2065,248.5167 303.7435,245.6827 305.5685,242.2787 L305.928834,242.427023 L305.928834,242.427023 L305.5687,242.2782 L305.5687,242.2782 C306.3447,239.6262 307.1197,236.9742 307.8947,234.3212 C307.7731,233.9967 307.7911,233.6797 307.9461,233.3697 C307.9217,232.0332 307.8967,230.6972 307.8727,229.3602 C306.9121,223.7801 304.2411,219.0521 300.6051,214.8041 C293.224,208.9513 285.086,206.9673 275.967,209.9893 Z" id="Combined-Shape" fill="#FC005A"></path>
            <path d="M84.6242,154.7755 C84.4967,162.3855 84.4844778,169.997583 84.4538528,177.610593 L84.4322,182.1785 L84.4322,182.1785 C85.4042,184.6995 87.5122,184.7765 89.7672,184.7635 C97.7432,184.7165 105.7202,184.7075 113.6962,184.7655 C115.5842,184.7785 117.7992,184.1365 118.9362,186.5195 L118.995988,186.699516 C118.97326,186.64138 118.9535,186.5815 118.9367,186.5199 L119.174575,186.9159 L119.174575,186.9159 L119.4122,187.3115 L119.4122,187.3115 C119.898467,188.5743 119.846387,189.854522 119.601501,191.139971 L119.546,191.4154 L119.546,191.4154 C119.55,194.0764 119.554,196.7374 119.558,199.3984 C120.2272,208.2625 120.0592,208.4485 111.3222,208.4485 C104.1632,208.4475 97.0042,208.5165 89.8472,208.4045 C87.3085306,208.365505 85.2157451,208.733404 84.1886012,211.367471 L84.1887,211.3676 C84.7717,214.3666 84.8497,217.3626 84.1417,220.3536 C82.4003667,220.477267 80.6388111,220.5226 78.8791815,220.5756 L79.6336262,220.553204 C81.1421102,220.508149 82.6497429,220.4597 84.1426,220.3537 C84.0236,223.3607 83.9056,226.3667 83.7866,229.3727 C83.09335,229.429325 82.4014906,229.495512 81.7111664,229.57113 L82.747886,229.464993 C83.0937977,229.431916 83.440075,229.401212 83.7867,229.3729 C84.5797,245.1439 94.7987,255.7479 108.7857,255.2539 C110.2657,255.2019 111.8897,255.1669 113.1817,254.5599 C118.3997,252.1109 121.4897,253.9669 123.6667,258.9309 C124.9947,261.9549 126.9497,264.7009 128.5637,267.6039 C131.1517,272.2579 130.7847,273.2139 125.7247,275.3559 C104.0457,284.5369 78.5607,275.5649 66.8167,254.6729 C61.8597,245.8529 60.2017,236.4149 61.1737,226.4319 C61.1716,223.4297 61.1686,220.4277 61.1666,217.4267 C61.1647,213.1006 61.1637,208.7756 61.1617,204.4496 C61.0942,187.3455 61.0842,170.2405 60.9052,153.1365 C60.8732,150.1625 62.0672,149.4805 64.7402,149.5665 C69.5572,149.7205 74.3882,149.7555 79.2012,149.5625 C83.0292,149.4095 84.6892,150.9125 84.6242,154.7755 Z" id="Combined-Shape" fill="#FC005A"></path>
            <path d="M364.145323,185.221134 L364.8429,185.3851 L364.8429,185.3851 L365.3244,185.728725 L365.3244,185.728725 L365.8063,186.0727 L365.8063,186.0727 C366.6953,186.7707 366.7453,187.7757 366.7433,188.7707 C366.692302,210.6127 366.633305,232.4557 366.575308,254.2977 C366.575008,254.299036 366.575404,254.300368 366.5758,254.3017 C366.6328,260.9457 366.6108,267.5927 366.7788,274.2337 C366.8668,277.6927 365.2448,279.0467 361.9688,279.0147 C357.1448,278.9687 352.3208,278.9717 347.4968,279.0137 C344.1038,279.0427 342.7418,277.3677 342.8088,274.0617 C342.9598,266.7557 342.9868,259.4477 343.0638,252.1407 L343.0639,252.1401 C342.9919,230.6391 342.9249,209.1381 342.843782,187.6381 C342.8379,186.0031 343.0529,184.5651 345.1689,184.6771 C351.488829,185.008814 357.863618,183.841615 364.145323,185.221134 Z M355.1994,149.6086 C361.6474,149.7526 366.8314,155.1006 366.7374,161.5126 C366.6454,167.7936 361.0694,173.1636 354.7684,173.0376 C348.3404,172.9086 342.8644,167.5236 342.869397,161.3346 C342.8744,154.8956 348.5884,149.4606 355.1994,149.6086 Z" id="Combined-Shape" fill="#FC005A"></path>
            <path d="M205.5351,184.5921 C210.6921,184.7181 215.8561,184.6671 221.0161,184.6191 C224.3321,184.588536 225.8631,186.0551 225.8311,189.4491 C225.7271,200.3563 225.68646,211.26414 225.64006,222.172108 L225.6031,230.3531 L225.6031,230.3531 C225.8241,232.7761 226.0231,235.1971 225.1561,237.5511 C225.0711,237.8741 224.9851,238.2001 224.8991,238.5251 C224.934491,242.250752 224.025671,245.725712 222.257529,248.97361 L222.011,249.4154 L222.011,249.4154 C221.062,252.8814 219.431,255.9764 216.984,258.6264 C216.670177,257.960451 216.345229,257.304278 216.008567,256.6584 C216.345516,257.304291 216.67047,257.96055 216.9843,258.6266 C214.584511,262.467262 211.721803,265.879 207.889311,268.385939 C207.888425,268.386332 207.888513,268.386666 207.8886,268.387 C204.57564,271.5262 200.776075,273.823979 196.42355,275.166207 L195.8767,275.3291 L195.8767,275.3291 C189.0917,278.3371 182.0827,279.7871 174.6617,278.3731 C152.1897,277.9891 131.3187,255.9751 131.9737,233.3471 C131.9687,228.0211 131.9627,222.6961 131.9577,217.3701 L131.9572,217.3705 L131.9632,205.3785 L131.9632,205.3785 L132.738976,205.41094 C132.481329,205.396324 132.223043,205.385243 131.9639,205.3781 C131.9649,201.0591 131.9659,196.7401 131.9669,192.4201 C131.9006,190.9401 131.9046,189.4521 131.7516,187.9811 C131.4776,185.3421 132.6896,184.5491 135.2086,184.6171 C140.3256,184.7571 145.4496,184.7091 150.5686,184.6451 C153.6216,184.6071 155.2226,185.8291 155.1146,189.0351 C154.9866,192.8231 154.9646,196.6151 154.8976,200.4061 C149.501948,197.71123 143.871927,195.687234 138.11091,194.038532 L137.09311,193.751531 C143.20872,195.451779 149.184074,197.553491 154.8979,200.4061 L154.900025,206.3866 L154.900025,206.3866 L154.9032,212.3675 L154.9032,212.3675 C154.9052,217.3615 154.9082,222.3565 154.9102,227.3515 L154.879427,227.356231 C154.889835,227.354563 154.900259,227.352853 154.9107,227.3511 C155.2677,231.4471 155.1857,235.6001 156.5997,239.5541 C160.6587,250.9081 172.0157,257.1741 183.8887,254.6141 C184.8537,254.4061 185.8427,254.3071 186.8207,254.1581 C190.4136,252.21 193.8476,250.036 196.7766,247.147 L200.8693,240.3356 C201.63846,240.778356 202.382334,241.243339 203.101913,241.72968 C202.38291,241.243194 201.639094,240.778177 200.87,240.3354 C201.319,238.0454 201.768,235.7544 202.218,233.4644 L202.2981,228.1771 L202.2981,228.1771 L202.2981,228.1765 C202.2961,226.2895 202.2941,224.4035 202.2931,222.5165 C202.2921,221.4671 202.2921,220.4171 202.2921,219.3681 C202.2021,208.8961 202.1771,198.4231 201.9771,187.9531 C201.9251,185.2371 203.0431,184.5311 205.5351,184.5921 Z" id="Combined-Shape" fill="#FC005A"></path>
            <path d="M305.5685,242.2787 C303.7435,245.6827 301.2065,248.5167 298.4455,251.1717 C291.0945,255.4897 283.3875,257.1917 275.2895,253.6117 C264.3575,248.7787 260.3455,239.8217 260.8485,228.3707 C261.5315,226.1737 262.2135,223.9767 262.8965,221.7777 C263.1735,221.3047 263.4495,220.8337 263.7265,220.3627 C263.9915,220.1507 264.1775,219.8837 264.2865,219.5627 C267.3905,215.4097 271.2095,212.1267 275.9675,209.9887 C285.0855,206.9667 293.2245,208.9507 300.6055,214.8037 C304.2405,219.0517 306.9115,223.7797 307.8725,229.3607 C307.8975,230.6967 307.9215,232.0337 307.9455,233.3697 C307.7905,233.6797 307.7735,233.9967 307.8955,234.3217 C307.1195,236.9737 306.3445,239.6267 305.5685,242.2787" id="Fill-70" fill="#26262E"></path>
        </g>
    </g>
</svg>