<?xml version="1.0" encoding="UTF-8"?>
<svg width="226px" height="187px" viewBox="0 0 226 187" version="1.1" xmlns="http://www.w3.org/2000/svg" xmlns:xlink="http://www.w3.org/1999/xlink">
    <title>Group</title>
    <g id="Page-1" stroke="none" stroke-width="1" fill="none" fill-rule="evenodd">
        <g id="Group" transform="translate(-0.000164, 0.000000)" fill="#EDF2F4">
            <path d="M56.3038825,1 C58.1101693,3.16934555 59.7995089,5.44984614 61.7428432,7.48890341 C68.76516,14.8588472 75.862396,22.1577246 82.9587185,29.4566021 C84.0825084,30.6127968 85.3451732,31.6350587 87.2346022,33.3433842 L87.2346022,2.4377267 L96.0001639,2.4377267 L96.0001639,53.377714 L94.9430704,54 C84.6544536,43.321827 74.367664,32.6436541 63.1580876,21.0088188 L63.1580876,52.7526946 L54.0001639,52.7526946 C54.0001639,50.3145726 53.9996563,47.9311169 54.0001639,45.5476612 C54.0060518,32.1899228 53.9987426,18.8321844 54.0389433,5.47535714 C54.0435115,3.98296402 54.3240022,2.49148201 54.4765818,1 L56.3038825,1 Z" id="Fill-1"></path>
            <path d="M209.917544,0 C214.554718,1.6256277 219.191892,3.25125541 224.428944,5.08776544 C222.702463,8.16114619 221.480759,10.3378186 220.25814,12.514491 C220.184069,12.0633862 220.109999,11.6113645 220.035929,11.1593428 C214.138643,10.4249222 208.210267,8.92215634 202.350474,9.15229314 C195.06414,9.4383596 190.444341,14.3647542 188.552345,21.7520539 C186.468314,29.8884444 188.725176,37.2033106 194.968123,41.7941272 C201.008062,46.2373263 207.633249,46.6847636 214.431267,43.8589403 C215.34023,43.4811859 216.08825,41.8271349 216.231818,40.6792015 C216.512554,38.4300956 216.314119,36.1204757 216.314119,33.2772317 L204.739931,33.2772317 L204.739931,25.798244 L224.991331,25.798244 C224.991331,32.7665297 225.035224,39.7146441 224.927319,46.6609247 C224.916346,47.3843428 224.151866,48.2682148 223.504436,48.7844181 C210.16536,59.4211394 186.343035,52.9452181 180.004071,36.9915114 C173.777584,21.3192867 182.582818,4.75035371 199.19288,0.855448758 C200.044232,0.655568984 200.857178,0.288817105 201.687498,0 L209.917544,0 Z" id="Fill-3"></path>
            <path d="M22.1803008,1 C25.6154495,2.13250696 29.0515223,3.2659221 32.9811032,4.56099421 C31.9626653,7.4290431 31.0856257,9.89839868 30.3010034,12.1071051 C26.6338874,11.0926622 23.3198053,9.78124279 19.8892775,9.33532385 C16.380195,8.87941488 13.0060416,9.84935668 11.9044282,13.8371979 C10.8517958,17.6506676 13.2084354,19.7522082 16.2896261,21.3342668 C19.4179495,22.9390301 22.5860124,24.4711386 25.6801415,26.1376584 C32.4145856,29.7649501 35.0734295,35.0823745 33.6104646,41.8002205 C32.1613624,48.4508608 26.8159494,53.0453698 19.758045,53.8264091 C12.5772257,54.6210711 6.11263993,52.6239719 0.00016387848,49.1338161 L0.00016387848,48.2256309 C1.09530814,46.0033017 2.1904524,43.7800643 3.01758667,42.101738 C7.82882803,43.3931774 12.1539547,44.9234695 16.6149347,45.6345785 C20.2293729,46.2103679 23.3724831,44.6882495 24.385376,40.792135 C25.3881031,36.933256 23.403905,34.4675332 20.0426901,32.7655941 C16.3607873,30.9010898 12.5726048,29.1918853 9.0773849,27.0304045 C-0.193912319,21.2933985 0.269098038,8.84217928 9.89620162,3.69731007 C12.0144047,2.5657113 14.3821343,1.88729695 16.6352665,1 L22.1803008,1 Z" id="Fill-5"></path>
            <path d="M138.614661,17.5365964 C136.028222,23.5370496 133.94265,28.3772944 131.807813,33.3290279 L145.476248,33.3290279 C143.139787,27.9503739 141.125376,23.3149785 138.614661,17.5365964 M163.000164,52.0600499 C153.814888,53.1840018 153.557612,53.2791752 150.775937,45.8239293 C149.422048,42.1928393 147.521678,40.7244505 143.771115,41.2030365 C142.276728,41.3942896 140.705707,41.4278269 139.221356,41.2012237 C131.773144,40.0645819 126.659569,41.8094267 124.462693,50.0804441 C123.164457,54.9669159 118.288998,51.4817584 114.000164,53 C122.347014,34.9596646 130.112715,18.1765239 137.876591,1.39338319 C138.330015,1.26285973 138.78344,1.13142987 139.236865,1 C147.585541,17.634489 154.870446,34.7765692 163.000164,52.0600499" id="Fill-15"></path>
            <path d="M213.615064,84.0005 C218.763472,84.0005 222.964706,85.9843305 223.823064,87.4425 L224.095064,89.2875 C222.581064,89.6865 221.040064,90.4985 219.556064,90.4055 C215.349064,90.1415 211.099064,88.8155 206.993064,89.2115 C202.828064,89.6135 199.801064,92.6625 199.091064,97.0945 C198.413064,101.3235 200.339064,104.5385 203.878064,106.7285 C206.833064,108.5575 209.819064,110.3845 212.958064,111.8585 C218.293064,114.3655 222.987064,117.4755 225.615064,123.0005 L225.615064,130.0005 C219.790064,142.5695 205.735064,146.4175 194.013064,138.5175 C193.180064,137.9555 193.121064,136.2455 192.702064,135.0695 C193.813064,134.8995 195.024064,134.3595 196.019064,134.6255 C199.995064,135.6905 203.832064,137.6115 207.853064,138.0865 C213.964064,138.8075 219.015064,135.2775 220.381064,130.3795 C221.918064,124.8625 219.858064,120.8315 213.730064,117.4505 C209.801064,115.2825 205.845064,113.1615 201.908064,111.0065 C196.352064,107.9675 193.683064,103.3375 194.580064,96.9965 C195.439064,90.9105 199.378064,87.3705 204.901064,85.3215 C206.133064,84.8645 207.377064,84.4395 208.615064,84.0005 L213.615064,84.0005 Z" id="Fill-11"></path>
            <path d="M23.8289639,185.7016 C23.8289639,179.4586 23.5789639,173.2016 23.9119639,166.9766 C24.1579639,162.4046 22.7109639,160.7396 18.0059639,161.0826 C12.3949639,161.4916 6.73296388,161.1786 0.716963878,161.1786 L0.716963878,154.2326 L30.8199639,154.2326 C31.0339639,157.8966 31.2499639,161.6076 31.4669639,165.3176 C31.8429639,165.4926 32.2189639,165.6686 32.5949639,165.8436 C34.9959639,162.8206 37.1869639,159.5926 39.8799639,156.8576 C41.3249639,155.3896 43.6289639,153.8976 45.5489639,153.8926 C104.186964,153.7386 162.826964,153.7666 221.466964,153.7796 C222.424964,153.7796 223.382964,153.9346 224.578964,154.0366 L224.578964,161.1786 L218.578964,161.1786 C163.436964,161.1686 108.296964,161.2106 53.1549639,161.0636 C47.8069639,161.0496 44.1269639,162.7266 40.9189639,167.0636 C36.0269639,173.6806 30.5159639,179.8376 25.2669639,186.1886 C24.7879639,186.0266 24.3079639,185.8636 23.8289639,185.7016" id="Fill-13"></path>
            <path d="M127.322164,140.81 L122.196164,140.81 C122.806164,122.143 123.406164,103.757 124.007164,85.371 C124.516164,85.19 125.026164,85.01 125.536164,84.83 C133.311164,98.502 141.088164,112.175 149.230164,126.494 C157.277164,112.324 164.953164,98.806 172.630164,85.288 C173.067164,85.359 173.505164,85.431 173.943164,85.502 C174.656164,103.816 175.369164,122.129 176.079164,140.384 C171.552164,140.956 171.469164,140.956 171.457164,137.017 C171.415164,124.553 171.441164,112.088 171.441164,99.624 L169.420164,99.104 C162.767164,110.561 156.116164,122.018 149.104164,134.093 C142.128164,122.11 135.492164,110.713 128.855164,99.315 C128.344164,99.416 127.834164,99.518 127.322164,99.619 L127.322164,140.81 Z" id="Fill-17"></path>
            <path d="M5.08726388,111.9472 L28.4152639,111.9472 C29.7792639,115.6332 27.9382639,115.9932 25.3852639,115.9692 C18.6112639,115.9052 11.8362639,115.9472 4.63726388,115.9472 L4.63726388,142.1732 C2.37926388,140.5702 0.167263878,139.7392 0.157263878,138.8832 C-0.0437361215,121.2852 0.00526387848,103.6842 0.00526387848,85.4162 C10.2582639,85.4162 20.0152639,85.3552 29.7682639,85.5342 C30.5242639,85.5492 31.2482639,87.2512 32.7222639,89.0832 L5.08726388,89.0832 L5.08726388,111.9472 Z" id="Fill-19"></path>
            <path d="M80.2176639,137.0615 C88.7666639,137.0615 96.5756639,136.9635 104.376664,137.1595 C105.648664,137.1915 106.886664,138.5255 108.139664,139.2585 C107.919664,139.7615 107.699664,140.2655 107.479664,140.7685 L75.6506639,140.7685 L75.6506639,131.3975 C75.6516639,117.3995 75.5896639,103.4005 75.7506639,89.4045 C75.7666639,88.0675 77.1716639,86.7465 77.9316639,85.4165 C78.6936639,86.7645 80.1046639,88.1055 80.1176639,89.4605 C80.2736639,105.1055 80.2176639,120.7515 80.2176639,137.0615" id="Fill-22"></path>
            <path d="M49.9021639,140.2304 C49.9021639,122.9654 49.8651639,105.7004 49.9941639,88.4364 C50.0021639,87.3824 51.3281639,86.3394 52.0401639,85.2914 C52.7641639,86.3294 54.1121639,87.3614 54.1201639,88.4054 C54.2511639,105.0184 54.2631639,121.6324 54.0861639,138.2444 C54.0741639,139.3624 52.3191639,140.4614 51.3761639,141.5694 C50.8841639,141.1234 50.3931639,140.6764 49.9021639,140.2304" id="Fill-24"></path>
        </g>
    </g>
</svg>