<?xml version="1.0" encoding="UTF-8"?>
<svg width="124px" height="124px" viewBox="0 0 124 124" version="1.1" xmlns="http://www.w3.org/2000/svg" xmlns:xlink="http://www.w3.org/1999/xlink">
    <title>Artboard</title>
    <g id="Artboard" stroke="none" stroke-width="1" fill="none" fill-rule="evenodd">
        <rect id="Rectangle" fill="#8845FE" fill-rule="nonzero" x="-4.82600001e-07" y="0" width="124" height="124" rx="4"></rect>
        <path d="M121.947046,68.1386265 L1.4632499,5.15912284 C0.973799997,4.90327671 0.369618194,5.09265 0.113772073,5.5820999 C0.0390342028,5.7250782 -4.82600001e-07,5.88401664 -4.82600001e-07,6.04535028 L-4.82600001e-07,110.748775 C-4.82600001e-07,111.30106 0.447714768,111.748775 0.999999517,111.748775 C1.11138342,111.748775 1.22198471,111.730166 1.32723609,111.693717 L121.811032,69.9697964 C122.332909,69.7890686 122.609466,69.2194946 122.428738,68.6976173 C122.345305,68.456694 122.172999,68.2567372 121.947046,68.1386265 Z" id="Path-2" fill="#7102FE" fill-rule="nonzero"></path>
        <path d="M4.46999952,124.17675 C1.04499952,124.17675 0.129999517,122.327999 0.0449995174,119.47675 C-0.120021045,113.941283 0.144999517,108.37675 0.144999517,102.82675 C0.444999517,102.92675 0.744999517,103.02675 1.04499952,103.12675 C6.61999952,99.25175 9.94499952,93.35175 14.2449995,88.32675 C20.4199995,81.12675 24.5699995,73.02675 25.7199995,63.42675 C27.1449995,51.47675 33.7199995,42.47675 42.7949995,35.05175 C45.6449995,32.70175 48.5199995,30.40175 51.3949995,28.07675 C53.2199995,27.07675 52.6199995,25.10175 53.0949995,23.60175 C55.1699995,17.07675 58.2699995,11.27675 64.3199995,7.57675 C69.9199995,4.20175 71.2949995,5.05175 72.6449995,11.35175 C74.4949995,19.82675 76.2199995,28.42675 85.4699995,32.77675 C93.1949995,36.42675 98.9449995,42.27675 102.195,50.35175 C102.745,57.45175 101.82,64.82675 106.12,71.25175 C107.02,72.62675 107.645,74.20175 107.52,75.95175 C103.67,85.85175 95.1449995,90.32675 85.8199995,92.27675 C79.6449995,93.55175 80.0449995,97.05175 80.5199995,100.87675 C81.1949995,106.00175 83.6699995,110.70175 86.5699995,114.90175 C88.5699995,117.80175 89.3949995,120.70175 89.4699995,124.02675 C61.1199995,124.02675 32.7956337,124.17675 4.46999952,124.17675 Z" id="Path" fill="#FDFCFE" fill-rule="nonzero"></path>
        <path d="M91.0900885,54.0344445 L75.4041023,45.7267688 C73.9399231,44.9513043 72.1243331,45.5096178 71.3488685,46.973797 C71.119772,47.4063614 70.9999995,47.8884131 70.9999995,48.3778998 L70.9999995,65.3187649 C70.9999995,66.9756191 72.3431453,68.3187649 73.9999995,68.3187649 C74.5058016,68.3187649 75.0033928,68.1908787 75.4465143,67.9469953 L91.1325005,59.3138059 C92.5840321,58.5149178 93.1131042,56.6905923 92.3142161,55.2390607 C92.0322848,54.7268085 91.6068042,54.3081096 91.0900885,54.0344445 Z" id="Path-2" fill="#8845FE" fill-rule="nonzero"></path>
    </g>
</svg>