<?xml version="1.0" encoding="UTF-8"?>
<svg width="274px" height="263px" viewBox="0 0 274 263" version="1.1" xmlns="http://www.w3.org/2000/svg" xmlns:xlink="http://www.w3.org/1999/xlink">
    <title>Group</title>
    <g id="Page-1" stroke="none" stroke-width="1" fill="none" fill-rule="evenodd">
        <g id="Group" transform="translate(-0.000100, 0.000400)" fill="#AFC90C">
            <path d="M150.956,0 C158.658,1.665 166.424,3.077 174.047,5.048 C188.989,8.912 202.784,15.411 215.54,24.088 C216.581,24.795 218.001,25.187 218.465,27.016 C208.315,25.386 198.339,24.719 188.178,25.805 C154.86,29.367 132.161,53.142 130.728,86.577 C130.472,92.562 130.641,98.537 131.616,104.491 C132.013,106.911 132.838,107.848 135.398,107.81 C144.721,107.67 154.049,107.651 163.371,107.815 C166.312,107.867 167.041,106.853 166.892,104.064 C166.456,95.906 166.667,87.785 168.942,79.824 C174.241,61.275 194.594,52.615 211.748,61.669 C221.018,66.563 225.605,78.486 223.542,91.719 C221.531,104.613 215.321,115.508 207.604,125.665 C191.272,147.162 170.896,164.621 150.673,182.214 C144.144,187.894 137.543,193.501 130.792,198.914 C128.449,200.793 127.622,202.779 127.729,205.703 C127.967,212.187 128.14,218.695 127.833,225.17 C127.646,229.115 129.134,229.762 132.685,229.745 C161.992,229.61 191.299,229.669 220.606,229.669 L226.686,229.669 C215.549,239.07 204.376,245.695 192.319,250.906 C178.463,256.894 163.967,260.337 148.968,261.788 C147.915,261.89 146.556,261.298 145.957,262.812 L143.958,262.812 C142.579,261.319 140.812,262.12 139.254,262.145 C127.89,262.322 116.58,261.603 105.576,258.747 C51.079,244.604 15.722,211.197 2.411,155.768 C1.621,152.474 1.981,148.897 1.42108547e-14,145.896 L1.42108547e-14,116.916 C0.964,116.548 0.935,115.683 1.04,114.872 C8.379,58.656 52.144,15.194 105.711,3.406 C111.12,2.216 116.766,2.158 121.965,0 L150.956,0 Z" id="Fill-1"></path>
            <path d="M264.934,86.2314 C269.348,96.7484 271.55,106.3934 272.691,116.2314 C275.686,142.0404 271.121,166.5164 259.182,189.6284 C258.084,191.7554 257.011,192.9014 254.373,192.888509 C231.904,192.7764 209.435,192.8234 186.966,192.8064 C186.537,192.8064 186.107,192.6184 185.077,192.3764 C194.194,184.7434 202.987,177.4974 211.652,170.0994 C222.807,160.5774 233.267,150.3554 242.418,138.8474 C254.429,123.7444 263.2,107.2104 264.934,86.2314" id="Fill-4"></path>
        </g>
    </g>
</svg>