<?xml version="1.0" encoding="UTF-8"?>
<svg width="96px" height="115px" viewBox="0 0 96 115" version="1.1" xmlns="http://www.w3.org/2000/svg" xmlns:xlink="http://www.w3.org/1999/xlink">
    <title>Group</title>
    <g id="Page-1" stroke="none" stroke-width="1" fill="none" fill-rule="evenodd">
        <g id="Group" transform="translate(0.000000, 0.000000)" fill-rule="nonzero">
            <path d="M77.574,41.851 C77.574,37.166 77.6500905,34.2979304 77.541,29.614 C77.2464698,16.968 67.8508989,0 48,0 C27.3684118,0 17.621,16.968 17.621,29.786 L17.621,40.651 L17.621,41.821 C17.146,41.821 16.827,41.82 16.505,41.821 L5.023,41.821 C2.25,41.821 0,44.07 0,46.844 L0,109.719 C0,112.492 2.25,114.742 5.023,114.742 L90.474,114.742 C93.249,114.742 95.498,112.492 95.498,109.719 L95.498,46.844 C95.498,44.07 93.249,41.821 90.474,41.821 L77.574,41.851 Z" id="path17" fill="#FFFFFF"></path>
            <path d="M74.574,44.851 C74.574,40.166 74.648,34.298 74.541,29.614 C74.494,27.596 74.273,25.538 73.795,23.58 C70.374,9.581 56.823,0.875 42.594,3.45 C29.998,5.729 20.621,16.968 20.621,29.786 L20.621,43.651 L20.621,44.821 C20.146,44.821 19.827,44.82 19.505,44.821 L8.023,44.821 C5.25,44.821 3,47.07 3,49.844 L3,106.719 C3,109.492 5.25,111.742 8.023,111.742 L87.474,111.742 C90.249,111.742 92.498,109.492 92.498,106.719 L92.498,49.844 C92.498,47.07 90.249,44.821 87.474,44.821 L74.574,44.851 Z M55.107,98.118 L40.332,98.118 C38.01,98.118 36.129,96.204 36.129,93.844 C36.129,93.781 36.136,93.717 36.138,93.654 C36.133,93.654 36.132,92.633 36.13,91.613 C36.129,90.484 36.641,87.324 38.191,85.039 C39.832,82.621 42.046,81.049 44.448,80.342 C41.282,79.051 39.052,75.944 39.052,72.317 C39.052,67.528 42.932,63.649 47.719,63.649 C52.508,63.649 56.386,67.528 56.386,72.317 C56.386,76.036 54.042,79.208 50.749,80.437 C53.081,81.19 55.286,82.75 57.022,85.144 C58.643,87.379 59.3070004,90.487 59.3070004,91.614 L59.3070004,93.657 C59.301,93.719 59.3070004,93.782 59.3070004,93.846 C59.308,96.204 57.427,98.118 55.107,98.118 M64.779,36.104 C63.217,40.715 60.259,44.409 57.169,48.016 C54.783,50.799 51.979,53.141 48.993,55.263 C48.849,55.366 48.695,55.451 48.308,55.69 C50.089,52.614 51.525,49.692 51.941,46.286 C47.707,47.288 43.714,46.85 39.848,45.146 C32.986,42.123 28.885,35.528 29.585,28.083 C30.158,21.956 33.525,17.54 38.906,14.688 C47.573,10.095 58.64,13.033 63.595,21.204 C66.482,25.962 66.527,30.945 64.779,36.104" id="path17" fill="#414141"></path>
        </g>
    </g>
</svg>